{"glyphs":{"0":{"ha":1174,"x_min":83,"x_max":1090,"o":"m 588 -14 q 322 75 436 -14 q 146 323 208 164 q 83 694 83 482 q 146 1066 83 907 q 322 1314 208 1225 q 588 1403 436 1403 q 851 1314 739 1403 q 1027 1066 964 1225 q 1090 694 1090 907 q 1027 323 1090 482 q 851 75 964 164 q 588 -14 739 -14 m 289 696 q 325 334 289 489 q 428 93 361 179 q 586 7 496 7 q 745 93 678 7 q 849 334 813 179 q 885 696 885 489 q 849 1057 885 903 q 745 1297 813 1211 q 586 1383 678 1383 q 428 1297 496 1383 q 325 1057 361 1211 q 289 696 289 903 z "},"1":{"ha":429,"x_min":0,"x_max":332,"o":"m 0 1086 l 0 1093 q 80 1154 33 1115 q 174 1238 126 1193 q 265 1327 222 1283 q 332 1403 307 1371 l 332 0 l 131 0 l 131 1086 l 0 1086 z "},"2":{"ha":1075,"x_min":42,"x_max":1006,"o":"m 60 0 q 48 41 54 24 q 42 81 42 58 q 81 231 42 161 q 188 360 121 300 q 339 473 256 419 q 512 576 422 526 q 685 672 601 625 q 835 767 768 719 q 942 866 903 815 q 982 972 982 917 q 935 1099 982 1043 q 808 1188 889 1156 q 622 1221 726 1221 q 341 1163 457 1221 q 156 1007 225 1104 l 42 1154 q 103 1240 58 1196 q 214 1320 149 1283 q 356 1380 279 1357 q 513 1403 433 1403 q 774 1348 664 1403 q 945 1196 885 1293 q 1006 972 1006 1099 q 963 763 1006 856 q 849 594 919 669 q 692 457 778 518 q 522 344 607 396 q 367 245 438 292 q 253 151 296 199 q 210 53 210 104 q 215 28 210 36 q 236 21 219 21 q 528 51 388 21 q 788 127 669 82 q 992 214 907 172 l 992 0 l 60 0 z "},"3":{"ha":1094,"x_min":69,"x_max":1053,"o":"m 518 -14 q 322 10 411 -14 q 167 72 232 35 q 69 143 103 108 l 153 318 q 361 221 249 258 q 613 183 474 183 q 701 189 649 183 q 811 206 754 194 q 917 239 868 218 q 998 290 967 260 q 1029 360 1029 319 q 992 440 1029 407 q 895 498 956 474 q 763 542 835 522 q 619 583 692 563 q 487 631 547 604 q 390 695 426 658 q 353 786 353 732 q 385 890 353 843 q 467 976 417 936 q 574 1054 517 1017 q 681 1129 631 1092 q 763 1208 731 1167 q 794 1299 794 1250 q 774 1349 794 1329 q 714 1368 754 1368 q 478 1339 593 1368 q 265 1266 363 1310 q 96 1178 167 1222 l 96 1389 l 963 1389 q 1010 1385 992 1389 q 1029 1358 1029 1382 q 998 1308 1029 1338 q 915 1243 967 1279 q 800 1168 863 1207 q 676 1090 738 1129 q 562 1013 614 1050 q 478 945 510 976 q 447 892 447 914 q 480 838 447 857 q 567 804 513 818 q 685 775 621 790 q 815 735 750 760 q 933 670 879 711 q 1020 563 988 629 q 1053 397 1053 497 q 1007 226 1053 303 q 883 97 961 150 q 711 15 806 43 q 518 -14 617 -14 z "},"4":{"ha":1106,"x_min":69,"x_max":1078,"o":"m 69 292 q 154 430 106 350 q 256 601 203 510 q 358 790 308 693 q 449 978 408 886 q 513 1149 489 1069 q 538 1288 538 1229 q 510 1349 538 1322 q 447 1382 483 1376 l 447 1389 l 689 1389 q 722 1353 707 1375 q 738 1281 738 1332 q 702 1078 738 1194 q 606 831 667 963 q 467 567 544 700 q 307 313 390 433 q 506 313 401 313 q 710 319 610 314 l 710 886 l 911 886 l 911 336 q 1005 351 963 343 q 1078 372 1047 360 l 1078 292 l 911 292 l 911 0 l 710 0 l 710 292 l 69 292 z "},"5":{"ha":1108,"x_min":69,"x_max":1067,"o":"m 69 143 l 153 318 q 361 221 249 258 q 613 183 474 183 q 701 189 649 183 q 811 206 754 194 q 917 239 868 218 q 998 290 967 260 q 1029 360 1029 319 q 983 488 1029 433 q 860 583 938 542 q 684 660 782 625 q 482 732 586 696 q 279 813 378 768 q 222 844 250 826 q 180 884 194 861 q 175 936 165 907 l 350 1389 l 1044 1389 l 1044 1200 l 301 1200 l 240 1046 q 271 1033 240 1046 q 353 1001 301 1021 q 472 958 406 982 q 607 913 538 935 q 772 853 690 886 q 919 768 853 819 q 1026 638 986 717 q 1067 442 1067 560 q 1019 246 1067 331 q 890 103 971 161 q 713 16 810 46 q 518 -14 617 -14 q 322 10 411 -14 q 167 72 232 35 q 69 143 103 108 z "},"6":{"ha":1129,"x_min":83,"x_max":1074,"o":"m 83 624 q 115 865 83 750 q 199 1078 147 979 q 310 1256 250 1178 q 426 1389 369 1335 l 674 1389 q 594 1290 640 1346 q 496 1167 547 1235 q 399 1022 444 1100 q 324 853 353 943 l 338 860 q 435 920 374 890 q 590 950 496 950 q 797 910 707 950 q 949 801 888 871 q 1042 642 1011 732 q 1074 449 1074 551 q 1038 269 1074 353 q 940 122 1003 186 q 793 22 876 58 q 614 -14 710 -14 q 374 39 475 -14 q 209 182 274 92 q 114 386 144 272 q 83 624 83 500 m 513 903 q 388 867 444 903 q 303 781 331 832 q 290 702 294 742 q 285 621 285 663 q 305 463 285 544 q 363 305 325 381 q 455 169 401 229 q 574 74 508 110 q 715 39 640 39 q 821 63 781 39 q 881 125 861 86 q 908 211 901 164 q 915 306 915 258 q 893 469 915 386 q 832 631 871 553 q 742 769 793 708 q 633 867 692 831 q 513 903 574 903 z "},"7":{"ha":978,"x_min":69,"x_max":950,"o":"m 69 1197 l 69 1389 l 950 1389 q 815 1047 885 1215 q 685 710 744 879 q 588 366 625 542 q 551 0 551 190 l 322 0 q 356 268 322 142 q 447 511 390 394 q 573 740 504 628 q 714 965 642 851 q 849 1197 786 1078 l 69 1197 z "},"8":{"ha":1032,"x_min":56,"x_max":976,"o":"m 56 390 q 135 620 56 531 q 344 774 214 710 q 222 866 276 818 q 134 969 167 914 q 101 1089 101 1025 q 137 1231 101 1172 q 232 1328 172 1290 q 365 1385 292 1367 q 515 1403 439 1403 q 663 1383 590 1403 q 793 1326 735 1364 q 885 1233 851 1289 q 919 1107 919 1178 q 894 978 919 1031 q 828 892 868 926 q 748 836 789 857 q 678 803 707 815 q 807 719 751 757 q 900 638 863 681 q 957 538 938 596 q 976 392 976 479 q 940 215 976 290 q 840 88 903 139 q 697 12 776 38 q 532 -14 617 -14 q 355 8 440 -14 q 202 78 269 31 q 95 203 135 126 q 56 390 56 281 m 918 278 q 883 394 918 340 q 790 496 849 449 q 659 588 732 543 q 508 675 586 632 q 358 764 431 718 q 239 648 285 711 q 193 489 193 585 q 228 335 193 408 q 325 206 263 263 q 469 116 388 149 q 647 83 551 83 q 774 103 713 83 q 877 167 836 124 q 918 278 918 210 m 454 1376 q 308 1316 357 1376 q 269 1169 258 1256 q 307 1068 278 1110 q 378 994 336 1026 q 469 935 421 963 q 563 878 517 908 q 658 815 615 843 q 751 890 721 847 q 782 983 782 933 q 758 1117 782 1049 q 689 1244 733 1186 q 585 1340 644 1303 q 454 1376 525 1376 z "},"9":{"ha":1129,"x_min":56,"x_max":1046,"o":"m 56 940 q 91 1119 56 1036 q 190 1267 126 1203 q 336 1367 253 1331 q 515 1403 419 1403 q 755 1350 654 1403 q 920 1207 856 1297 q 1015 1003 985 1117 q 1046 765 1046 889 q 1017 569 1046 664 q 940 388 988 474 q 835 228 892 301 q 724 97 779 154 q 625 0 668 39 l 331 0 q 430 80 369 29 q 558 199 490 131 q 687 351 625 268 q 790 528 749 435 q 694 468 756 497 q 539 439 633 439 q 332 478 422 439 q 180 588 242 518 q 87 748 118 657 q 56 940 56 839 m 414 1350 q 308 1326 349 1350 q 248 1264 268 1303 q 221 1178 228 1225 q 214 1083 214 1131 q 236 919 214 1003 q 297 758 258 836 q 387 619 336 681 q 497 522 438 558 q 617 486 556 486 q 731 516 679 486 q 814 589 783 546 q 837 678 829 633 q 844 768 844 722 q 824 927 844 846 q 766 1084 804 1008 q 674 1219 728 1160 q 555 1315 621 1279 q 414 1350 489 1350 z "},"\u0000":{"ha":0,"x_min":0,"x_max":0,"o":""},"\r":{"ha":347,"x_min":0,"x_max":0,"o":""}," ":{"ha":556,"x_min":0,"x_max":0,"o":""},"A":{"ha":1167,"x_min":28,"x_max":1139,"o":"m 331 0 l 28 0 q 108 265 71 142 q 180 500 146 388 q 248 725 214 613 q 319 958 282 838 q 397 1217 356 1078 q 436 1308 413 1265 q 497 1376 460 1350 q 583 1403 533 1403 q 671 1376 635 1403 q 731 1308 707 1350 q 769 1217 756 1265 q 848 958 811 1078 q 919 725 885 838 q 988 500 953 613 q 1059 265 1022 388 q 1139 0 1096 142 l 926 0 q 847 267 883 144 q 776 504 810 390 l 313 504 q 311 286 310 389 q 318 108 313 183 q 331 0 324 32 m 314 525 l 769 525 q 704 742 738 635 q 635 967 671 850 q 557 1217 600 1083 q 538 1254 550 1240 q 501 1268 525 1268 q 435 1225 464 1268 q 385 1108 406 1182 q 349 938 364 1033 q 326 737 335 843 q 314 525 318 631 z "},"B":{"ha":1110,"x_min":69,"x_max":1082,"o":"m 69 1389 l 790 1389 q 891 1374 843 1389 q 969 1326 939 1360 q 999 1236 999 1293 q 963 1119 999 1167 q 870 1040 926 1072 q 750 988 814 1008 q 630 951 686 967 q 538 919 574 935 q 501 882 501 903 q 533 826 501 849 q 616 786 564 804 q 730 748 668 768 q 853 698 792 728 q 967 623 915 668 q 1051 510 1019 578 q 1082 344 1082 442 q 1051 206 1082 269 q 966 97 1019 143 q 844 26 913 51 q 700 0 775 0 l 69 0 l 69 1389 m 271 194 l 779 194 q 924 210 860 194 q 1024 261 988 225 q 1061 357 1061 297 q 1023 451 1061 415 q 922 508 985 488 q 785 544 860 529 q 634 574 710 558 q 496 614 558 590 q 395 676 433 638 q 357 779 357 715 q 388 853 357 824 q 469 906 419 883 q 574 953 519 929 q 679 1008 629 976 q 760 1089 729 1040 q 792 1210 792 1138 q 755 1309 792 1275 q 655 1356 718 1343 q 514 1368 592 1368 l 271 1368 l 271 194 z "},"R":{"ha":1088,"x_min":97,"x_max":1088,"o":"m 299 0 l 97 0 l 97 1389 l 801 1389 q 927 1353 878 1389 q 1001 1262 976 1317 q 1026 1150 1026 1207 q 993 1008 1026 1067 q 908 908 960 949 q 797 840 856 867 q 685 792 738 813 q 600 755 633 772 q 567 717 567 738 q 590 648 567 696 q 652 535 613 600 q 740 398 692 469 q 841 257 789 326 q 941 131 893 188 q 1028 42 989 75 q 1088 8 1067 8 l 1088 0 l 858 0 q 797 7 818 0 q 756 36 775 14 q 700 106 736 58 q 625 209 665 151 q 546 328 585 267 q 475 446 507 389 q 424 549 443 503 q 406 622 406 596 q 436 682 406 656 q 514 735 467 708 q 615 794 561 761 q 717 872 669 826 q 794 982 764 917 q 825 1138 825 1047 q 802 1255 825 1203 q 728 1338 779 1307 q 596 1368 678 1368 l 299 1368 l 299 0 z "},"P":{"ha":1043,"x_min":97,"x_max":988,"o":"m 299 0 l 97 0 l 97 1389 l 611 1389 q 769 1353 699 1389 q 888 1258 839 1318 q 962 1125 936 1199 q 988 975 988 1051 q 959 825 988 899 q 874 692 931 751 q 735 597 818 632 q 544 561 653 561 l 299 561 l 299 0 m 417 1371 l 299 1371 l 299 582 l 417 582 q 578 615 508 582 q 693 705 647 649 q 763 831 739 761 q 786 972 786 900 q 763 1117 786 1046 q 694 1245 740 1188 q 579 1337 649 1303 q 417 1371 510 1371 z "},"I":{"ha":396,"x_min":97,"x_max":299,"o":"m 97 0 l 97 1389 l 299 1389 l 299 0 l 97 0 z "},"S":{"ha":1049,"x_min":28,"x_max":1021,"o":"m 483 -14 q 300 9 389 -14 q 140 69 211 32 q 28 146 68 106 l 111 339 q 257 256 186 293 q 408 199 328 219 q 586 178 488 178 q 686 183 632 178 q 795 200 740 188 q 895 236 850 213 q 967 296 940 260 q 994 385 994 332 q 965 467 994 435 q 887 519 936 499 q 776 551 838 539 q 650 573 715 564 q 524 592 585 582 q 247 676 349 622 q 101 813 144 731 q 57 1010 57 896 q 83 1142 57 1074 q 170 1270 110 1211 q 332 1366 231 1329 q 583 1403 433 1403 q 735 1394 656 1403 q 885 1365 815 1385 q 999 1310 956 1344 l 942 1099 q 831 1151 901 1128 q 674 1190 761 1175 q 499 1204 588 1204 q 348 1192 422 1204 q 213 1156 274 1181 q 117 1090 153 1131 q 81 993 81 1050 q 108 917 81 946 q 180 872 135 888 q 280 851 225 857 q 390 842 335 844 q 493 838 446 840 q 769 778 650 826 q 954 642 888 731 q 1021 424 1021 554 q 976 241 1021 322 q 856 103 932 160 q 684 16 781 46 q 483 -14 588 -14 z "},"D":{"ha":1144,"x_min":97,"x_max":1089,"o":"m 436 0 l 97 0 l 97 1389 l 436 1389 q 699 1349 589 1389 q 885 1241 810 1310 q 1005 1083 960 1172 q 1069 895 1050 994 q 1089 694 1089 796 q 1069 494 1089 593 q 1005 306 1050 394 q 885 148 960 217 q 699 40 810 79 q 436 0 589 0 m 393 1368 l 299 1368 l 299 21 l 393 21 q 607 64 519 21 q 750 178 694 107 q 835 339 806 250 q 876 520 865 428 q 888 694 888 613 q 876 869 888 776 q 835 1050 865 961 q 750 1210 806 1139 q 607 1325 694 1282 q 393 1368 519 1368 z "},"C":{"ha":1088,"x_min":56,"x_max":1067,"o":"m 640 -14 q 386 45 496 -14 q 203 206 276 104 q 92 439 129 308 q 56 713 56 569 q 99 987 56 861 q 224 1206 142 1113 q 424 1351 307 1300 q 689 1403 542 1403 q 828 1382 761 1403 q 949 1328 896 1361 q 1026 1256 1001 1294 l 890 1093 q 696 1249 808 1190 q 465 1308 583 1308 q 303 1250 371 1308 q 201 1090 236 1192 q 165 854 165 988 q 197 603 165 722 q 290 391 228 483 q 444 245 353 299 q 653 192 535 192 q 799 213 740 192 q 892 262 858 235 q 941 310 926 289 q 956 332 956 332 l 1067 154 q 1041 128 1067 154 q 963 70 1015 103 q 829 12 910 38 q 640 -14 749 -14 z "},"E":{"ha":1065,"x_min":56,"x_max":1035,"o":"m 56 467 q 100 614 56 556 q 220 701 144 672 q 390 731 296 731 q 516 716 460 731 q 621 682 572 701 q 715 648 669 663 q 810 633 761 633 q 852 644 833 633 q 871 678 871 654 q 832 733 871 708 q 733 776 793 757 q 607 810 674 794 q 485 839 540 825 q 341 876 411 857 q 214 924 271 894 q 123 1003 157 954 q 89 1129 89 1053 q 101 1190 89 1154 q 142 1262 113 1225 q 226 1331 172 1299 q 363 1383 279 1363 q 567 1403 447 1403 q 688 1398 621 1403 q 822 1382 754 1393 q 947 1353 890 1371 q 1035 1310 1003 1336 l 978 1101 q 867 1154 938 1131 q 710 1192 797 1178 q 535 1207 624 1207 q 315 1171 383 1207 q 246 1061 246 1135 q 285 967 246 1004 q 390 906 325 931 q 532 862 454 881 q 687 824 610 843 q 828 780 764 806 q 933 715 893 754 q 972 617 972 676 q 947 527 972 565 q 878 467 921 489 q 788 444 836 446 q 644 460 711 442 q 515 505 576 479 q 390 551 453 531 q 260 571 328 571 q 124 540 167 571 q 81 456 81 510 q 132 327 81 379 q 270 244 183 275 q 467 201 357 214 q 693 188 576 188 q 865 202 781 188 q 1021 276 950 217 l 938 35 q 826 -3 882 8 q 699 -14 769 -14 q 458 12 574 -14 q 251 94 342 38 q 108 242 161 150 q 56 467 56 333 z "},"N":{"ha":1174,"x_min":97,"x_max":1076,"o":"m 97 0 l 97 1389 q 127 1399 108 1396 q 160 1403 146 1403 q 267 1376 222 1403 q 351 1293 313 1349 q 431 1153 389 1238 q 528 953 474 1068 q 661 694 583 839 q 836 394 765 501 q 951 238 907 286 q 1010 188 989 197 q 1042 182 1032 178 q 1051 186 1051 186 q 1022 659 1051 446 q 935 1051 993 872 q 788 1389 876 1231 l 1076 1389 l 1076 0 q 1047 -10 1065 -6 q 1014 -14 1029 -14 q 884 35 950 -14 q 751 168 818 83 q 617 362 683 253 q 488 593 551 471 q 326 908 388 783 q 235 1090 265 1032 q 184 1173 206 1146 q 149 1208 163 1200 q 129 1215 136 1217 q 122 1214 122 1214 q 151 733 122 949 q 240 338 181 518 q 386 0 299 158 l 97 0 z "},"U":{"ha":1161,"x_min":97,"x_max":1078,"o":"m 97 306 l 97 1389 l 386 1389 q 295 1173 336 1289 q 222 938 254 1057 q 168 710 190 819 q 134 515 146 601 q 122 381 122 429 q 165 251 122 297 q 293 185 208 204 q 503 167 378 167 q 639 169 572 167 q 760 185 706 172 q 846 226 814 197 q 878 307 878 254 l 876 1389 l 1078 1389 l 1078 839 q 1061 660 1078 756 q 1010 469 1044 565 q 922 287 975 374 q 798 133 869 200 q 636 26 726 65 q 435 -14 546 -14 q 249 31 325 -14 q 135 148 174 75 q 97 306 97 221 z "},"M":{"ha":1410,"x_min":28,"x_max":1382,"o":"m 461 0 l 28 0 l 244 1156 q 257 1220 250 1188 q 264 1283 264 1253 q 250 1336 264 1313 q 200 1372 236 1360 q 167 1378 185 1375 q 128 1382 149 1381 l 128 1389 l 428 1389 q 509 1353 476 1389 q 551 1253 542 1318 q 582 1033 568 1132 q 608 844 596 935 q 634 661 621 754 q 664 460 647 568 q 687 346 672 406 q 723 234 701 286 q 771 149 744 182 q 829 117 797 117 q 886 147 871 117 q 900 228 901 176 q 888 349 899 281 q 864 493 876 417 q 842 610 856 542 q 815 756 829 678 q 789 915 800 835 q 775 1071 778 996 q 836 1315 769 1228 q 1022 1403 903 1403 q 1131 1371 1092 1403 q 1190 1286 1171 1339 q 1219 1169 1210 1233 q 1239 1040 1229 1106 q 1278 765 1261 890 q 1312 522 1296 640 q 1344 278 1328 404 q 1382 0 1361 153 l 1174 0 q 1135 279 1153 153 q 1101 524 1118 406 q 1068 766 1085 642 q 1031 1039 1051 890 q 1019 1133 1025 1085 q 1004 1222 1014 1181 q 975 1289 994 1264 q 919 1314 956 1314 q 857 1291 881 1314 q 821 1231 833 1268 q 804 1151 808 1193 q 800 1072 800 1110 q 813 919 800 1008 q 846 727 826 829 q 885 524 865 625 q 919 335 906 422 q 932 186 932 247 q 927 134 932 163 q 906 79 922 106 q 859 36 890 53 q 774 19 828 19 q 642 60 697 19 q 550 169 588 101 q 489 319 513 238 q 451 481 465 400 q 430 628 438 561 q 415 735 422 696 q 396 872 404 813 q 381 989 388 932 q 367 1114 375 1046 q 343 1250 356 1197 q 293 1333 331 1303 q 279 1237 285 1275 q 269 1169 274 1199 q 261 1111 265 1140 q 251 1042 257 1082 q 238 943 246 1003 q 221 796 229 881 q 211 615 213 711 q 220 424 210 519 q 258 244 231 328 q 335 97 286 160 q 461 7 385 35 l 461 0 z "},"T":{"ha":1068,"x_min":42,"x_max":1026,"o":"m 42 1161 l 42 1389 l 1026 1389 l 1026 1161 q 913 1253 981 1208 q 771 1331 844 1299 q 635 1367 697 1363 l 635 0 l 433 0 l 433 1367 q 297 1331 371 1363 q 156 1253 224 1299 q 42 1161 88 1208 z "},"Y":{"ha":1150,"x_min":28,"x_max":1122,"o":"m 28 1389 l 236 1389 q 338 1166 292 1267 q 427 971 383 1065 q 517 772 471 876 q 563 673 544 708 q 597 623 581 638 q 633 608 613 608 q 659 616 646 608 q 691 652 672 624 q 736 742 710 681 q 765 823 749 769 q 797 942 781 876 q 823 1074 813 1008 q 833 1190 833 1140 q 806 1317 833 1264 q 715 1382 779 1371 l 715 1389 l 1122 1389 l 1122 1382 q 1053 1334 1088 1374 q 986 1238 1018 1294 q 927 1119 954 1181 q 878 1004 900 1057 q 844 922 857 951 q 766 739 807 835 q 696 542 725 643 q 667 335 667 440 q 688 172 667 263 q 769 0 710 81 l 428 0 l 665 569 q 611 524 646 546 q 515 501 576 501 q 432 541 469 501 q 371 632 394 581 q 284 828 325 738 q 203 1005 243 918 q 120 1185 163 1092 q 28 1389 78 1278 z "},"X":{"ha":1179,"x_min":28,"x_max":1151,"o":"m 351 7 l 351 0 l 31 0 l 472 692 l 28 1389 l 267 1389 l 694 717 q 772 847 731 775 q 851 992 814 918 q 911 1134 888 1067 q 935 1250 935 1201 q 909 1342 935 1301 q 826 1382 883 1382 l 826 1389 l 1147 1389 l 706 699 l 1151 0 l 913 0 l 483 672 q 406 542 447 614 q 327 397 364 471 q 267 256 290 324 q 243 139 243 189 q 269 47 243 88 q 351 7 294 7 z "},"Z":{"ha":1071,"x_min":28,"x_max":1043,"o":"m 28 0 l 800 1368 l 632 1368 q 360 1337 472 1368 q 175 1258 249 1306 q 53 1161 101 1211 l 53 1389 l 1043 1389 l 271 21 l 439 21 q 703 52 586 21 q 906 131 821 83 q 1039 228 992 179 l 1039 0 l 28 0 z "},"Q":{"ha":1208,"x_min":56,"x_max":1153,"o":"m 438 13 q 235 147 321 53 q 102 381 149 242 q 56 694 56 521 q 124 1066 56 907 q 315 1314 192 1225 q 604 1403 439 1403 q 828 1352 728 1403 q 1002 1208 929 1301 q 1114 984 1075 1114 q 1153 694 1153 854 q 1114 405 1153 535 q 1002 181 1075 275 q 828 37 929 88 q 604 -14 728 -14 q 530 -9 565 -14 q 460 6 494 -4 q 413 -67 438 -31 q 361 -143 388 -104 q 412 -126 383 -131 q 463 -121 440 -121 q 485 -121 485 -121 q 739 -105 626 -121 q 933 -42 851 -89 q 1058 93 1014 4 l 1064 90 l 982 -179 q 915 -219 960 -206 q 831 -232 871 -232 q 716 -218 764 -232 q 628 -187 668 -204 q 548 -156 588 -169 q 460 -142 508 -142 q 363 -156 399 -142 q 313 -184 328 -169 q 299 -199 299 -199 l 288 -189 q 365 -98 326 -149 q 438 13 403 -47 m 272 696 q 324 299 272 465 q 465 58 376 132 q 607 372 544 200 q 706 730 669 544 q 742 1093 742 915 q 735 1169 742 1125 q 712 1259 728 1214 q 669 1339 696 1304 q 603 1383 642 1374 q 429 1297 504 1383 q 313 1057 354 1211 q 272 696 272 903 m 483 44 q 603 7 538 7 q 778 93 703 7 q 894 334 853 179 q 936 696 936 489 q 903 1022 936 879 q 809 1256 869 1165 q 667 1374 749 1347 q 726 1290 706 1342 q 753 1184 746 1239 q 761 1086 761 1129 q 746 837 761 953 q 699 603 731 721 q 622 346 668 486 q 558 184 593 257 q 483 44 524 111 z "},"L":{"ha":985,"x_min":97,"x_max":931,"o":"m 97 0 l 97 1389 l 299 1389 l 299 21 q 486 40 390 21 q 670 88 582 58 q 827 155 758 118 q 931 228 896 192 l 931 0 l 97 0 z "},"F":{"ha":1013,"x_min":97,"x_max":985,"o":"m 97 0 l 97 1389 l 985 1389 l 985 1161 q 863 1258 938 1211 q 677 1337 789 1306 q 406 1368 565 1368 l 299 1368 l 299 714 l 471 714 q 680 745 594 714 q 794 842 765 776 l 794 565 q 680 662 765 631 q 471 693 594 693 l 299 693 l 299 0 l 97 0 z "},"G":{"ha":1138,"x_min":56,"x_max":1040,"o":"m 650 -14 q 390 45 501 -14 q 203 207 278 104 q 92 441 129 310 q 56 717 56 572 q 98 992 56 867 q 222 1209 140 1117 q 419 1352 303 1301 q 683 1403 536 1403 q 824 1384 756 1403 q 947 1334 893 1365 q 1026 1263 1001 1303 l 890 1100 q 696 1257 808 1197 q 465 1317 583 1317 q 317 1265 371 1317 q 242 1118 264 1214 q 221 889 221 1022 q 253 644 221 768 q 339 406 285 519 q 462 204 393 293 q 604 64 531 115 q 749 13 678 13 q 806 24 775 13 q 836 56 836 35 l 836 746 l 1040 746 l 1040 104 q 949 39 997 65 q 830 -1 900 13 q 650 -14 760 -14 z "},"H":{"ha":1178,"x_min":97,"x_max":1081,"o":"m 97 0 l 97 1389 l 299 1389 l 299 694 l 879 694 l 879 1389 l 1081 1389 l 1081 0 l 879 0 l 879 672 l 299 672 l 299 0 l 97 0 z "},"J":{"ha":510,"x_min":28,"x_max":426,"o":"m 28 57 q 90 43 57 43 q 187 85 147 43 q 226 192 226 126 l 226 1389 l 426 1389 l 426 274 q 182 -15 426 -15 q 28 57 54 -15 z "},"K":{"ha":1142,"x_min":97,"x_max":1114,"o":"m 97 1389 l 299 1389 l 299 721 q 401 817 356 774 q 511 918 447 860 q 655 1065 589 990 q 760 1207 721 1140 q 800 1321 800 1274 q 781 1369 800 1358 q 743 1382 763 1381 l 743 1389 l 1088 1389 l 443 826 q 474 834 458 832 q 503 836 489 836 q 565 820 540 836 q 615 770 590 804 q 675 682 640 736 q 794 501 740 583 q 897 342 847 419 q 999 183 946 265 q 1114 0 1051 100 l 875 0 q 760 183 813 100 q 659 343 708 265 q 556 503 610 421 q 436 682 503 585 q 408 719 421 706 q 369 733 396 733 q 333 724 350 733 q 299 700 317 715 l 299 0 l 97 0 l 97 1389 z "},"V":{"ha":1167,"x_min":28,"x_max":1139,"o":"m 28 1389 l 331 1389 q 319 1289 324 1358 q 315 1123 315 1219 q 317 917 314 1026 q 330 694 321 807 q 353 479 339 582 q 387 296 367 376 q 434 168 407 215 q 496 121 461 121 q 533 132 519 121 q 557 172 547 143 q 638 431 601 311 q 709 663 675 551 q 776 888 743 775 q 847 1124 810 1001 q 926 1389 883 1247 l 1139 1389 q 1059 1124 1096 1247 q 988 889 1022 1001 q 919 664 953 776 q 848 431 885 551 q 769 172 811 311 q 731 82 756 125 q 671 13 707 39 q 583 -14 635 -14 q 497 13 533 -14 q 436 82 460 39 q 397 172 413 125 q 318 431 354 311 q 248 664 282 551 q 180 889 214 776 q 108 1124 146 1001 q 28 1389 71 1247 z "},"W":{"ha":1867,"x_min":28,"x_max":1839,"o":"m 28 1389 l 331 1389 q 319 1289 324 1358 q 315 1123 315 1219 q 317 917 314 1026 q 330 694 321 807 q 353 479 339 582 q 387 296 367 376 q 434 168 407 215 q 496 121 461 121 q 533 132 519 121 q 557 172 547 143 q 638 431 601 311 q 709 663 675 551 q 776 888 743 775 q 847 1124 810 1001 q 926 1389 883 1247 l 1139 1389 q 1074 1174 1104 1275 q 1015 979 1043 1074 q 1026 747 1018 867 q 1049 516 1035 628 q 1083 315 1063 404 q 1132 174 1104 226 q 1196 121 1160 121 q 1233 132 1219 121 q 1257 172 1247 143 q 1338 431 1301 311 q 1409 663 1375 551 q 1476 888 1443 775 q 1547 1124 1510 1001 q 1626 1389 1583 1247 l 1839 1389 q 1759 1124 1796 1247 q 1688 889 1722 1001 q 1619 664 1653 776 q 1548 431 1585 551 q 1469 172 1511 311 q 1431 82 1456 125 q 1371 13 1407 39 q 1283 -14 1335 -14 q 1197 13 1233 -14 q 1136 82 1160 39 q 1097 172 1113 125 q 1011 456 1050 325 q 933 710 972 586 q 856 456 896 586 q 769 172 817 325 q 731 82 756 125 q 671 13 707 39 q 583 -14 635 -14 q 497 13 533 -14 q 436 82 460 39 q 397 172 413 125 q 318 431 354 311 q 248 664 282 551 q 180 889 214 776 q 108 1124 146 1001 q 28 1389 71 1247 z "},"O":{"ha":1208,"x_min":56,"x_max":1153,"o":"m 604 -14 q 315 75 439 -14 q 124 323 192 164 q 56 694 56 482 q 124 1066 56 907 q 315 1314 192 1225 q 604 1403 439 1403 q 828 1352 728 1403 q 1002 1208 929 1301 q 1114 984 1075 1114 q 1153 694 1153 854 q 1114 405 1153 535 q 1002 181 1075 275 q 828 37 929 88 q 604 -14 728 -14 m 272 696 q 313 334 272 489 q 429 93 354 179 q 603 7 504 7 q 778 93 703 7 q 894 334 853 179 q 936 696 936 489 q 894 1057 936 903 q 778 1297 853 1211 q 603 1383 703 1383 q 429 1297 504 1383 q 313 1057 354 1211 q 272 696 272 903 z "},"m":{"ha":1542,"x_min":0,"x_max":1458,"o":"m 0 858 q 107 881 51 865 q 213 917 163 896 q 300 958 264 938 l 300 660 q 333 756 307 704 q 401 853 358 807 q 505 928 444 899 q 640 958 565 958 q 708 951 668 958 q 788 920 749 944 q 853 842 826 896 q 879 694 879 789 l 879 660 q 912 756 886 704 q 981 853 938 807 q 1084 928 1024 899 q 1219 958 1144 958 q 1288 951 1247 958 q 1367 920 1328 944 q 1432 842 1406 896 q 1458 694 1458 789 l 1458 0 l 1257 0 l 1257 764 q 1226 863 1257 831 q 1144 896 1194 896 q 1040 865 1089 896 q 956 783 992 835 q 899 664 919 731 q 879 525 879 597 l 879 0 l 678 0 l 678 764 q 647 863 678 831 q 565 896 615 896 q 461 865 510 896 q 376 783 413 835 q 320 664 340 731 q 300 525 300 597 l 300 0 l 99 0 l 99 761 q 75 835 99 818 q 0 851 51 851 l 0 858 z "},"u":{"ha":947,"x_min":83,"x_max":864,"o":"m 322 -14 q 254 -7 294 -14 q 175 24 214 0 q 110 103 136 49 q 83 250 83 157 l 83 944 l 285 944 l 285 181 q 316 81 285 114 q 397 49 347 49 q 501 79 453 49 q 586 162 550 110 q 642 281 622 214 q 663 419 663 347 l 663 944 l 864 944 l 864 0 l 663 0 l 663 285 q 630 190 656 242 q 561 92 604 138 q 458 16 518 46 q 322 -14 397 -14 z "},"s":{"ha":806,"x_min":28,"x_max":778,"o":"m 414 -14 q 194 24 289 -14 q 28 135 99 61 l 133 383 q 247 219 178 294 q 407 97 317 143 q 601 50 497 50 q 666 73 639 50 q 693 136 693 96 q 658 224 693 188 q 567 290 624 261 q 442 345 510 318 q 306 402 374 372 q 181 471 238 432 q 89 565 124 510 q 54 694 54 619 q 104 842 54 783 q 240 929 154 900 q 429 958 325 958 q 572 941 507 958 q 683 901 636 924 q 754 861 731 878 l 649 651 q 540 760 603 704 q 401 854 478 815 q 233 893 324 893 q 160 865 183 893 q 136 801 136 836 q 171 709 136 747 q 263 642 206 671 q 388 587 319 613 q 526 533 457 561 q 651 465 594 504 q 743 372 708 426 q 778 242 778 318 q 731 99 778 156 q 601 14 683 42 q 414 -14 518 -14 z "},"c":{"ha":928,"x_min":69,"x_max":900,"o":"m 540 -14 q 358 22 443 -14 q 208 120 274 57 q 106 268 143 183 q 69 451 69 353 q 99 635 69 547 q 183 793 128 724 q 317 903 238 863 q 497 944 396 944 q 738 883 638 944 q 900 686 839 822 l 729 596 q 656 744 699 674 q 554 860 614 815 q 410 904 494 904 q 292 865 339 904 q 222 763 246 825 q 199 635 199 701 q 248 401 199 507 q 388 231 297 294 q 606 168 479 168 q 755 199 683 168 q 867 282 826 231 l 874 282 l 794 36 q 673 -2 739 10 q 540 -14 607 -14 z "},"a":{"ha":939,"x_min":42,"x_max":911,"o":"m 42 186 q 72 310 42 251 q 155 422 103 369 q 272 520 207 475 q 406 603 338 565 q 269 650 338 632 q 142 678 200 668 q 49 689 85 688 q 129 836 69 776 q 268 927 189 896 q 426 958 347 958 q 591 928 531 958 q 685 844 651 897 q 736 723 718 790 q 772 581 754 656 q 817 393 797 482 q 860 210 838 304 q 911 0 883 117 l 707 0 l 707 294 q 681 194 707 247 q 606 93 656 140 q 481 16 556 46 q 311 -14 407 -14 q 184 9 246 -14 q 82 77 122 32 q 42 186 42 122 m 686 294 q 656 412 686 360 q 576 506 626 464 q 463 578 525 547 q 350 475 401 532 q 268 353 299 418 q 238 217 238 289 q 265 126 238 165 q 338 65 292 88 q 442 42 385 42 q 536 68 492 42 q 615 135 581 94 q 667 218 649 175 q 686 294 686 261 m 435 619 q 586 688 514 660 q 706 729 658 715 q 647 856 700 815 q 525 897 594 897 q 410 877 460 897 q 326 827 360 857 q 274 767 292 797 q 257 715 257 736 q 262 692 257 706 q 285 672 267 678 q 435 619 365 649 m 707 706 q 599 662 657 690 q 486 594 542 633 q 646 470 585 543 q 707 294 707 397 l 707 706 z "},"l":{"ha":383,"x_min":0,"x_max":300,"o":"m 0 1303 q 107 1325 51 1310 q 213 1361 163 1340 q 300 1403 264 1382 l 300 0 l 99 0 l 99 1211 q 75 1282 99 1268 q 0 1296 51 1296 l 0 1303 z "},"i":{"ha":388,"x_min":0,"x_max":304,"o":"m 0 858 q 107 881 51 865 q 213 917 163 896 q 300 958 264 938 l 300 0 l 99 0 l 99 761 q 75 835 99 818 q 0 851 51 851 l 0 858 m 74 1124 q 108 1204 74 1171 q 189 1238 142 1238 q 271 1204 238 1238 q 304 1124 304 1171 q 271 1042 304 1076 q 189 1008 238 1008 q 108 1042 142 1008 q 74 1124 74 1076 z "},"f":{"ha":640,"x_min":69,"x_max":640,"o":"m 69 867 q 94 1069 69 972 q 172 1240 119 1165 q 305 1359 224 1315 q 499 1403 386 1403 q 572 1392 528 1403 q 640 1353 617 1381 q 583 1236 610 1292 q 539 1146 556 1181 q 522 1111 522 1111 l 515 1111 q 501 1228 517 1169 q 454 1326 485 1286 q 378 1365 424 1365 q 315 1328 339 1365 q 281 1228 292 1290 q 271 1094 271 1167 l 271 944 l 475 944 l 475 924 l 271 924 l 271 0 l 69 0 l 69 867 z "},"o":{"ha":924,"x_min":69,"x_max":854,"o":"m 461 -14 q 264 39 353 -14 q 122 199 175 92 q 69 472 69 307 q 121 745 69 638 q 260 906 172 853 q 461 958 349 958 q 658 906 569 958 q 801 745 747 853 q 854 472 854 638 q 801 199 854 307 q 660 39 749 92 q 461 -14 571 -14 m 356 924 q 269 838 300 910 q 234 656 238 765 q 260 422 231 547 q 341 203 289 299 q 453 58 393 107 q 569 22 514 8 q 658 108 626 36 q 692 290 689 181 q 667 522 696 399 q 610 693 644 615 q 532 826 575 771 q 443 908 489 882 q 356 924 397 935 z "},"r":{"ha":771,"x_min":0,"x_max":743,"o":"m 0 858 q 107 881 51 865 q 213 917 163 896 q 300 958 264 938 l 300 660 q 334 760 311 708 q 394 858 357 813 q 482 931 431 903 q 601 958 533 958 q 743 924 686 958 l 669 742 q 594 773 633 760 q 508 786 556 786 q 407 758 454 786 q 330 676 360 729 q 300 547 300 622 l 300 0 l 99 0 l 99 761 q 75 835 99 818 q 0 851 51 851 l 0 858 z "},"n":{"ha":963,"x_min":0,"x_max":879,"o":"m 0 858 q 107 881 51 865 q 213 917 163 896 q 300 958 264 938 l 300 660 q 333 756 307 704 q 401 853 358 807 q 505 928 444 899 q 640 958 565 958 q 708 951 668 958 q 788 920 749 944 q 853 842 826 896 q 879 694 879 789 l 879 0 l 678 0 l 678 764 q 647 863 678 831 q 565 896 615 896 q 461 865 510 896 q 376 783 413 835 q 320 664 340 731 q 300 525 300 597 l 300 0 l 99 0 l 99 761 q 75 835 99 818 q 0 851 51 851 l 0 858 z "},"h":{"ha":963,"x_min":0,"x_max":879,"o":"m 99 1211 q 75 1282 99 1268 q 0 1296 51 1296 l 0 1303 q 107 1325 51 1310 q 213 1361 163 1340 q 300 1403 264 1382 l 300 660 q 333 756 307 704 q 401 853 358 807 q 505 928 444 899 q 640 958 565 958 q 708 951 668 958 q 788 920 749 944 q 853 842 826 896 q 879 694 879 789 l 879 0 l 678 0 l 678 764 q 647 863 678 831 q 565 896 615 896 q 461 865 510 896 q 376 783 413 835 q 320 664 340 731 q 300 525 300 597 l 300 0 l 99 0 l 99 1211 z "},"k":{"ha":897,"x_min":0,"x_max":869,"o":"m 0 1296 l 0 1303 q 107 1325 51 1310 q 213 1361 163 1340 q 300 1403 264 1382 l 300 485 q 398 592 346 533 q 495 707 450 650 q 569 810 540 764 q 597 883 597 857 q 583 923 597 908 q 535 938 568 938 l 535 944 l 864 944 l 864 938 q 810 913 849 938 q 718 849 771 889 q 608 762 665 810 q 499 665 551 714 q 406 574 446 615 q 532 610 469 610 q 645 571 594 610 q 729 429 696 532 q 778 283 756 350 q 822 149 800 217 q 869 0 844 82 l 668 0 q 635 108 649 61 q 608 195 621 154 q 581 281 596 236 q 547 386 567 326 q 486 492 521 464 q 406 521 451 521 q 350 504 374 521 q 313 465 326 488 q 300 425 300 443 l 300 0 l 99 0 l 99 1211 q 75 1282 99 1268 q 0 1296 51 1296 z "},"v":{"ha":890,"x_min":28,"x_max":821,"o":"m 193 247 q 145 422 165 340 q 108 584 125 504 q 72 751 90 664 q 28 944 53 839 l 229 944 q 278 733 257 828 q 318 551 299 639 q 361 370 338 463 q 419 165 385 278 q 459 72 439 101 q 500 43 479 43 q 564 85 533 43 q 619 194 594 128 q 661 338 643 261 q 689 484 679 414 q 699 600 699 554 q 652 830 699 749 q 526 944 606 911 l 694 1042 q 788 951 754 1011 q 821 810 821 892 q 808 686 821 764 q 772 515 796 608 q 715 329 749 422 q 638 158 681 236 q 543 33 594 81 q 433 -14 492 -14 q 331 7 371 -14 q 266 64 290 28 q 225 147 242 100 q 193 247 208 194 z "},"y":{"ha":890,"x_min":-56,"x_max":821,"o":"m 107 -444 q 21 -434 60 -444 q -56 -403 -18 -424 l -56 -207 q 24 -244 -11 -229 q 97 -266 60 -258 q 182 -274 133 -274 q 467 -204 354 -274 q 638 -6 579 -135 q 704 301 696 122 q 629 144 671 217 q 538 29 588 72 q 433 -14 489 -14 q 331 7 371 -14 q 266 64 290 28 q 225 147 242 100 q 193 247 208 194 q 145 422 165 340 q 108 584 125 504 q 72 751 90 664 q 28 944 53 839 l 229 944 q 278 733 257 828 q 318 551 299 639 q 361 370 338 463 q 419 165 385 278 q 459 72 439 101 q 500 43 479 43 q 557 87 524 43 q 623 203 590 131 q 677 367 656 276 q 699 553 699 458 q 683 702 699 629 q 631 838 668 775 q 526 944 593 900 l 694 1042 q 788 938 754 1011 q 821 768 821 864 q 801 488 821 631 q 742 209 782 344 q 643 -44 703 74 q 504 -253 583 -162 q 326 -394 425 -343 q 107 -444 226 -444 z "},"b":{"ha":947,"x_min":0,"x_max":878,"o":"m 99 1211 q 75 1282 99 1268 q 0 1296 51 1296 l 0 1303 q 107 1325 51 1310 q 213 1361 163 1340 q 300 1403 264 1382 l 300 679 q 326 769 307 721 q 381 860 346 817 q 466 931 415 903 q 585 958 517 958 q 712 924 657 958 q 803 832 767 890 q 859 700 840 774 q 878 546 878 626 q 853 349 878 446 q 776 174 828 253 q 647 47 725 94 q 464 0 569 0 l 99 0 l 99 1211 m 492 844 q 398 810 442 844 q 327 708 354 775 q 300 544 300 642 l 300 21 l 342 21 q 491 53 431 21 q 588 138 551 85 q 644 259 625 192 q 671 399 664 326 q 678 538 678 471 q 662 684 678 614 q 606 799 646 754 q 492 844 565 844 z "},"p":{"ha":947,"x_min":0,"x_max":878,"o":"m 99 767 q 75 838 99 824 q 0 851 51 851 l 0 858 q 107 881 51 865 q 213 917 163 896 q 300 958 264 938 l 300 679 q 326 769 307 721 q 381 860 346 817 q 466 931 415 903 q 585 958 517 958 q 712 924 657 958 q 803 832 767 890 q 859 700 840 774 q 878 546 878 626 q 853 349 878 446 q 776 174 828 253 q 647 47 725 94 q 464 0 569 0 l 300 0 l 300 -444 l 99 -444 l 99 767 m 300 544 l 300 21 l 342 21 q 491 53 431 21 q 588 138 551 85 q 644 259 625 192 q 671 399 664 326 q 678 538 678 471 q 662 684 678 614 q 606 799 646 754 q 492 844 565 844 q 398 810 442 844 q 327 708 354 775 q 300 544 300 642 z "},"t":{"ha":488,"x_min":0,"x_max":488,"o":"m 115 924 l 0 924 l 319 1244 q 319 1088 319 1161 q 318 944 318 1014 l 463 944 l 463 924 l 318 924 q 317 701 318 810 q 317 476 317 593 q 317 221 317 360 q 324 158 317 188 q 353 109 332 128 q 415 90 374 90 q 452 93 435 90 q 485 101 469 96 l 488 94 q 415 51 457 76 q 337 6 374 25 q 279 -14 300 -14 q 188 11 225 -14 q 133 75 151 36 q 115 156 115 114 l 115 924 z "},"e":{"ha":901,"x_min":69,"x_max":874,"o":"m 540 -14 q 358 22 443 -14 q 208 122 274 57 q 106 272 143 186 q 69 458 69 358 q 95 645 69 556 q 175 806 121 735 q 315 917 229 876 q 522 958 401 958 q 701 923 625 958 q 820 831 778 888 q 863 711 863 775 q 830 610 863 649 q 744 545 797 572 q 633 490 692 518 q 501 425 567 458 q 383 364 436 392 q 300 319 331 336 q 431 211 353 251 q 606 171 508 171 q 755 203 683 171 q 867 286 826 235 l 874 286 l 794 38 q 673 -2 739 10 q 540 -14 607 -14 m 419 918 q 294 878 343 918 q 222 775 244 838 q 199 644 199 713 q 289 335 199 464 q 359 377 314 349 q 456 444 404 406 q 554 526 507 482 q 631 618 601 571 q 661 711 661 665 q 651 774 661 739 q 614 842 640 810 q 540 897 588 875 q 419 918 493 918 z "},"g":{"ha":881,"x_min":28,"x_max":894,"o":"m 28 -217 q 56 -135 28 -169 q 126 -80 83 -101 q 217 -50 169 -58 q 301 -44 264 -42 q 259 10 275 -21 q 243 79 243 40 q 276 151 243 128 q 347 183 308 174 q 188 259 254 204 q 88 394 122 314 q 53 567 53 474 q 99 762 53 674 q 231 903 144 850 q 439 958 318 957 l 832 958 l 832 938 l 583 938 q 770 797 704 899 q 836 567 836 694 q 790 369 836 458 q 656 227 743 281 q 446 174 569 174 q 425 174 436 174 q 403 175 414 174 q 366 174 389 176 q 325 165 343 172 q 307 142 307 158 q 339 101 307 115 q 423 77 371 86 q 538 58 475 68 q 664 32 601 49 q 778 -12 726 15 q 863 -86 831 -40 q 894 -203 894 -132 q 842 -346 894 -293 q 699 -422 789 -399 q 496 -444 608 -444 q 339 -435 421 -444 q 186 -403 257 -426 q 72 -334 115 -379 q 28 -217 28 -289 m 311 918 q 226 835 251 897 q 208 685 200 772 q 251 501 215 599 q 328 350 283 417 q 426 245 374 283 q 532 207 478 207 q 578 215 556 207 q 662 298 638 236 q 678 448 686 360 q 635 633 671 536 q 558 784 603 718 q 463 888 514 850 q 357 926 411 926 q 311 918 335 926 m 368 -86 q 281 -65 322 -65 q 208 -86 238 -65 q 179 -146 179 -107 q 213 -220 179 -185 q 301 -285 246 -256 q 420 -336 356 -314 q 549 -370 485 -358 q 664 -382 613 -382 q 782 -362 738 -382 q 826 -296 826 -343 q 790 -229 826 -254 q 696 -187 754 -204 q 571 -156 638 -171 q 442 -118 504 -140 q 403 -103 422 -111 q 368 -86 385 -94 z "},"x":{"ha":867,"x_min":28,"x_max":839,"o":"m 310 497 l 28 944 l 242 944 l 543 468 q 595 594 575 533 q 615 728 615 656 q 598 856 615 801 q 540 944 581 910 l 835 944 l 556 449 l 839 0 l 625 0 l 322 479 q 269 352 289 414 q 249 217 249 290 q 266 90 249 144 q 324 0 283 35 l 29 0 l 310 497 z "},"q":{"ha":921,"x_min":69,"x_max":851,"o":"m 371 -14 q 233 21 290 -14 q 140 115 176 56 q 87 247 104 174 q 69 399 69 321 q 136 688 69 565 q 323 878 203 811 q 603 944 443 944 l 851 944 l 851 -444 l 650 -444 l 650 169 q 540 36 610 86 q 371 -14 469 -14 m 594 924 q 423 860 500 924 q 301 685 346 796 q 256 432 256 575 q 270 321 256 376 q 313 219 285 265 q 385 144 342 172 q 486 117 428 117 q 576 131 543 117 q 624 167 608 146 q 645 212 640 189 q 650 250 650 235 l 650 924 l 594 924 z "},"w":{"ha":1385,"x_min":28,"x_max":1315,"o":"m 28 944 l 229 944 l 419 165 q 459 72 439 101 q 500 43 479 43 q 558 79 528 43 q 612 171 588 115 q 647 288 636 226 q 646 397 658 349 q 644 406 644 401 q 642 415 643 411 q 603 581 621 500 q 566 751 585 663 q 522 944 547 839 l 724 944 q 772 733 751 828 q 813 551 793 639 q 856 370 832 463 q 914 165 879 278 q 953 72 933 101 q 994 43 974 43 q 1058 85 1028 43 q 1113 194 1089 128 q 1156 338 1138 261 q 1183 484 1174 414 q 1193 600 1193 554 q 1169 764 1193 699 q 1106 872 1144 829 q 1021 944 1067 914 l 1189 1042 q 1282 951 1249 1011 q 1315 810 1315 892 q 1303 686 1315 764 q 1267 515 1290 608 q 1209 329 1243 422 q 1132 158 1175 236 q 1038 33 1089 81 q 928 -14 986 -14 q 825 7 865 -14 q 760 64 785 28 q 719 147 736 100 q 688 247 703 194 q 686 251 686 250 q 685 254 686 253 q 614 119 653 181 q 530 22 575 58 q 433 -14 485 -14 q 331 7 371 -14 q 266 64 290 28 q 225 147 242 100 q 193 247 208 194 q 145 422 165 340 q 108 584 125 504 q 72 751 90 664 q 28 944 53 839 z "},"z":{"ha":846,"x_min":28,"x_max":818,"o":"m 800 0 l 28 0 l 588 925 q 383 883 481 918 q 200 797 285 847 q 50 693 115 747 l 50 944 l 818 944 l 258 19 q 465 61 367 26 q 649 147 564 96 q 800 251 735 197 l 800 0 z "},"j":{"ha":385,"x_min":-83,"x_max":301,"o":"m -83 -354 l -81 -347 q 1 -329 -40 -354 q 69 -252 42 -304 q 96 -125 96 -200 l 96 767 q 72 838 96 824 q -3 851 49 851 l -3 858 q 104 881 49 865 q 210 917 160 896 q 297 958 261 938 l 297 -18 q 283 -149 297 -85 q 237 -265 269 -214 q 149 -347 204 -317 q 10 -378 93 -378 q -40 -373 -18 -378 q -83 -354 -61 -368 m 186 1008 q 105 1042 139 1008 q 71 1124 71 1076 q 105 1204 71 1171 q 186 1238 139 1238 q 268 1204 235 1238 q 301 1124 301 1171 q 268 1042 301 1076 q 186 1008 235 1008 z "},"d":{"ha":919,"x_min":69,"x_max":851,"o":"m 69 399 q 136 688 69 565 q 323 878 203 811 q 603 944 443 944 l 650 944 l 650 1211 q 626 1282 650 1268 q 551 1296 603 1296 l 551 1303 q 658 1325 603 1310 q 765 1361 714 1340 q 851 1403 815 1382 l 851 0 l 650 0 l 650 168 q 539 36 608 86 q 371 -14 469 -14 q 233 21 290 -14 q 140 115 176 56 q 87 247 104 174 q 69 399 69 321 m 256 432 q 270 321 256 376 q 313 219 285 265 q 385 144 342 172 q 486 117 428 117 q 588 137 553 117 q 635 184 622 157 q 650 233 649 211 l 650 924 l 594 924 q 423 860 500 924 q 301 685 346 796 q 256 432 256 575 z "},".":{"ha":379,"x_min":69,"x_max":310,"o":"m 69 107 q 105 191 69 156 q 190 226 140 226 q 274 191 239 226 q 310 107 310 156 q 274 22 310 57 q 190 -14 239 -14 q 105 22 140 -14 q 69 107 69 57 z "},",":{"ha":378,"x_min":69,"x_max":308,"o":"m 190 -14 q 105 22 140 -14 q 69 107 69 57 q 105 191 69 156 q 190 226 140 226 q 280 183 251 226 q 308 85 308 140 q 289 -8 308 28 q 241 -63 269 -43 q 184 -92 213 -83 q 136 -102 156 -100 q 117 -104 117 -104 l 117 -93 q 182 -74 157 -93 q 207 -33 207 -54 q 190 -14 207 -14 z "},"&":{"ha":1476,"x_min":69,"x_max":1407,"o":"m 69 453 q 103 619 69 544 q 194 742 136 693 q 328 803 253 790 q 237 953 271 882 q 203 1083 203 1025 q 228 1197 203 1140 q 308 1301 253 1254 q 449 1375 363 1347 q 660 1403 536 1403 q 863 1381 781 1403 q 999 1323 946 1358 q 1081 1247 1051 1288 q 1122 1172 1110 1207 q 1138 1114 1135 1136 q 1140 1092 1140 1092 q 1081 918 1140 990 q 924 807 1022 846 q 708 768 825 768 q 649 772 674 768 q 603 782 624 776 q 754 615 672 700 q 923 446 836 529 q 1090 288 1010 363 q 1124 415 1124 350 q 1079 563 1124 501 q 958 657 1035 625 l 1153 747 q 1224 544 1224 688 q 1195 403 1224 475 q 1115 264 1167 331 q 1285 111 1208 179 q 1407 0 1361 43 l 1104 0 q 1041 62 1074 31 q 974 126 1008 93 q 785 24 889 63 q 567 -14 681 -14 q 351 26 444 -14 q 195 133 258 65 q 101 283 132 200 q 69 453 69 365 m 388 1156 q 443 999 388 1092 q 588 800 499 907 q 622 795 606 797 q 654 793 639 793 q 778 822 725 793 q 867 896 832 850 q 921 995 903 942 q 939 1099 939 1049 q 902 1252 939 1189 q 803 1349 865 1315 q 660 1382 740 1382 q 569 1371 617 1382 q 480 1333 521 1360 q 413 1264 439 1307 q 388 1156 388 1221 m 954 144 q 736 356 849 247 q 522 572 624 464 q 344 781 419 679 q 271 728 299 763 q 231 656 243 693 q 219 589 219 618 q 266 392 219 483 q 391 234 313 301 q 565 129 469 167 q 758 92 661 92 q 865 106 815 92 q 954 144 914 121 z "},"£":{"ha":1246,"x_min":69,"x_max":1176,"o":"m 1176 0 l 69 0 q 200 144 147 53 q 286 347 253 236 q 338 574 319 458 q 361 789 356 689 l 181 789 l 181 810 l 363 810 q 406 1039 369 932 q 512 1228 443 1146 q 681 1356 581 1310 q 913 1403 781 1403 q 1053 1383 990 1403 q 1165 1332 1117 1364 l 1165 1115 q 1065 1161 1111 1142 q 966 1192 1018 1181 q 844 1204 914 1204 q 676 1179 757 1204 q 529 1107 594 1154 q 426 994 464 1060 q 388 849 388 929 q 388 829 388 839 q 389 810 388 819 l 964 810 l 964 789 l 390 789 q 413 675 397 724 q 447 582 429 626 q 477 489 464 538 q 490 375 490 440 q 456 224 490 297 q 355 97 421 151 q 194 19 289 43 q 452 38 319 19 q 715 91 585 57 q 963 172 844 125 q 1176 272 1081 218 l 1176 0 z "},"?":{"ha":1171,"x_min":69,"x_max":1101,"o":"m 222 1011 l 69 1092 q 157 1261 85 1189 q 347 1373 229 1333 q 611 1413 464 1413 q 874 1365 764 1413 q 1042 1233 983 1318 q 1101 1032 1101 1147 q 1072 922 1101 965 q 996 851 1043 879 q 892 801 949 822 q 777 759 835 779 q 672 711 719 739 q 596 642 625 683 q 567 536 567 600 q 579 492 567 514 q 613 471 592 469 q 583 413 608 438 q 513 388 558 388 q 440 412 471 388 q 390 474 408 436 q 372 550 372 511 q 403 657 372 611 q 484 733 433 703 q 594 782 535 764 q 708 806 653 800 q 838 826 772 813 q 958 863 903 839 q 1046 928 1013 888 q 1079 1029 1079 969 q 1050 1108 1079 1075 q 974 1164 1021 1142 q 870 1199 926 1186 q 758 1217 814 1211 q 658 1222 703 1222 q 396 1172 510 1222 q 222 1011 282 1122 m 517 -14 q 414 25 453 -14 q 375 128 375 64 q 414 231 375 192 q 517 269 453 269 q 619 231 581 269 q 658 128 658 192 q 619 25 658 64 q 517 -14 581 -14 z "},"!":{"ha":422,"x_min":69,"x_max":353,"o":"m 200 403 q 169 702 189 576 q 129 921 150 828 q 94 1088 108 1014 q 81 1233 81 1163 q 97 1316 81 1278 q 143 1378 114 1354 q 208 1401 172 1401 q 276 1378 246 1401 q 323 1316 306 1354 q 340 1233 340 1278 q 326 1088 340 1163 q 292 921 313 1014 q 251 702 271 828 q 221 403 232 576 l 200 403 m 211 269 q 314 231 275 269 q 353 128 353 192 q 314 25 353 64 q 211 -14 275 -14 q 108 25 147 -14 q 69 128 69 64 q 108 231 69 192 q 211 269 147 269 z "},"@":{"ha":1556,"x_min":69,"x_max":1486,"o":"m 69 694 q 120 984 69 854 q 265 1208 171 1114 q 488 1352 358 1301 q 778 1403 618 1403 q 1067 1352 938 1403 q 1291 1208 1197 1301 q 1435 984 1385 1114 q 1486 694 1486 854 q 1436 406 1486 536 q 1293 183 1386 276 q 1069 38 1200 89 q 778 -14 939 -14 q 488 37 618 -14 q 265 181 358 88 q 120 405 171 275 q 69 694 69 535 m 101 693 q 150 416 101 540 q 288 202 199 292 q 502 64 378 113 q 779 15 626 15 q 1157 113 997 15 q 1393 382 1317 211 q 1315 314 1361 335 q 1228 293 1268 293 q 1147 316 1183 293 q 1082 375 1110 339 q 1034 451 1054 411 q 1003 525 1014 492 q 1005 438 1015 483 q 964 351 994 392 q 884 286 933 311 q 769 261 835 261 q 597 310 668 261 q 488 446 525 358 q 451 649 451 533 q 478 812 451 732 q 557 955 506 892 q 683 1056 608 1018 q 854 1093 758 1093 q 959 1067 908 1093 q 1043 1004 1010 1042 q 1076 931 1076 967 q 1058 867 1076 901 q 1020 790 1039 832 q 1001 694 1001 749 q 1049 492 1001 556 q 1182 429 1096 429 q 1265 445 1218 429 q 1355 495 1311 461 q 1427 583 1399 529 q 1456 711 1456 636 q 1406 981 1456 860 q 1267 1189 1357 1101 q 1053 1323 1178 1276 q 779 1369 929 1369 q 502 1321 626 1369 q 288 1183 378 1272 q 150 970 199 1094 q 101 693 101 846 m 801 907 q 640 881 714 907 q 521 803 565 854 q 476 678 476 753 q 513 566 476 614 q 608 492 550 518 q 733 465 667 465 q 885 496 832 465 q 958 578 938 526 q 979 693 979 629 q 968 802 979 754 q 919 878 957 850 q 801 907 882 907 z "},"}":{"ha":617,"x_min":69,"x_max":547,"o":"m 69 -81 l 74 -74 q 114 -85 96 -85 q 214 -12 174 -85 q 254 228 254 60 l 254 303 q 281 461 254 389 q 349 585 307 533 q 438 666 390 638 q 526 694 485 694 q 438 723 485 694 q 349 803 390 751 q 281 928 307 856 q 254 1086 254 1000 l 254 1161 q 214 1401 254 1329 q 114 1474 174 1474 q 74 1463 96 1474 l 69 1469 q 120 1489 89 1482 q 186 1496 151 1496 q 299 1458 250 1496 q 375 1356 347 1421 q 403 1207 403 1292 l 403 897 q 441 770 403 821 q 547 700 479 719 l 547 689 q 441 619 479 671 q 403 492 403 568 l 403 182 q 375 33 403 99 q 299 -69 347 -32 q 186 -107 250 -107 q 120 -100 151 -107 q 69 -81 89 -93 z "},")":{"ha":692,"x_min":69,"x_max":622,"o":"m 69 -74 l 78 -61 q 91 -72 78 -61 q 135 -83 104 -83 q 253 -46 203 -83 q 340 56 304 -8 q 398 201 375 121 q 433 369 421 282 q 451 541 446 457 q 456 694 456 625 q 451 848 456 764 q 433 1019 446 932 q 398 1188 421 1107 q 340 1333 375 1268 q 253 1435 304 1397 q 135 1472 203 1472 q 91 1461 104 1472 q 78 1450 78 1450 l 69 1463 q 101 1486 76 1478 q 143 1494 125 1494 q 362 1431 271 1494 q 510 1255 453 1367 q 595 999 568 1143 q 622 694 622 856 q 595 390 622 535 q 510 134 568 246 q 362 -42 453 22 q 143 -106 271 -106 q 101 -97 125 -106 q 69 -74 76 -87 z "},"Æ":{"ha":1839,"x_min":28,"x_max":1807,"o":"m 28 0 q 108 265 71 142 q 180 500 146 388 q 248 725 214 613 q 319 958 282 838 q 397 1217 356 1078 q 436 1308 413 1265 q 497 1376 460 1350 q 583 1403 533 1403 q 671 1376 635 1403 q 731 1308 707 1350 q 769 1217 756 1265 q 844 972 810 1086 q 913 750 878 857 q 925 712 919 732 q 936 672 931 692 q 1039 716 981 701 q 1164 731 1097 731 q 1290 716 1233 731 q 1394 682 1346 701 q 1489 648 1443 663 q 1583 633 1535 633 q 1626 644 1607 633 q 1644 678 1644 654 q 1606 733 1644 708 q 1507 776 1567 757 q 1381 810 1447 794 q 1258 839 1314 825 q 1115 876 1185 857 q 988 924 1044 894 q 897 1003 931 954 q 863 1129 863 1053 q 874 1190 863 1154 q 916 1262 886 1225 q 999 1331 946 1299 q 1137 1383 1053 1363 q 1340 1403 1221 1403 q 1461 1398 1394 1403 q 1595 1382 1528 1393 q 1719 1353 1663 1371 q 1807 1310 1775 1336 l 1750 1101 q 1640 1154 1710 1131 q 1483 1192 1569 1178 q 1307 1207 1396 1207 q 1088 1171 1156 1207 q 1019 1061 1019 1135 q 1059 967 1019 1004 q 1163 906 1099 931 q 1305 862 1228 881 q 1460 824 1382 843 q 1602 780 1538 806 q 1706 715 1667 754 q 1746 617 1746 676 q 1720 527 1746 565 q 1652 467 1694 489 q 1561 444 1610 446 q 1417 460 1485 442 q 1288 505 1350 479 q 1164 551 1226 531 q 1033 571 1101 571 q 897 540 940 571 q 854 456 854 510 q 906 327 854 379 q 1044 244 957 275 q 1240 201 1131 214 q 1467 188 1350 188 q 1639 202 1554 188 q 1794 276 1724 217 l 1711 35 q 1599 -3 1656 8 q 1472 -14 1543 -14 q 1265 4 1365 -14 q 1081 63 1165 22 q 937 167 997 103 q 849 324 876 232 l 781 504 l 318 504 q 314 286 314 389 q 319 108 314 183 q 331 0 324 32 l 28 0 m 496 1268 q 437 1225 463 1268 q 391 1108 411 1182 q 356 938 371 1033 q 333 737 342 843 q 319 525 324 631 l 774 525 q 672 855 724 689 q 557 1217 621 1021 q 533 1257 547 1246 q 496 1268 519 1268 z "},"ß":{"ha":1151,"x_min":69,"x_max":1082,"o":"m 271 0 l 69 0 l 69 1389 l 790 1389 q 891 1374 843 1389 q 969 1326 939 1360 q 999 1236 999 1293 q 963 1119 999 1167 q 870 1040 926 1072 q 750 988 814 1008 q 630 951 686 967 q 538 919 574 935 q 501 882 501 903 q 533 826 501 849 q 616 783 564 803 q 730 742 668 764 q 853 690 792 721 q 967 612 915 658 q 1051 497 1019 565 q 1082 331 1082 428 q 1051 192 1082 256 q 966 83 1019 129 q 844 12 913 38 q 700 -14 775 -14 q 485 38 571 -14 q 350 164 399 89 l 482 296 q 615 197 542 231 q 796 163 688 163 q 918 182 857 163 q 1020 242 979 201 q 1061 343 1061 282 q 1023 438 1061 401 q 922 497 985 475 q 785 535 860 519 q 634 569 710 551 q 496 611 558 586 q 395 676 433 636 q 357 779 357 715 q 388 853 357 824 q 469 906 419 883 q 574 953 519 929 q 679 1008 629 976 q 760 1089 729 1040 q 792 1210 792 1138 q 755 1309 792 1275 q 655 1356 718 1343 q 514 1368 592 1368 l 271 1368 l 271 0 z "},"˜":{"ha":742,"x_min":69,"x_max":672,"o":"m 69 1486 q 103 1534 79 1510 q 163 1576 128 1558 q 235 1594 197 1593 q 328 1585 285 1597 q 411 1554 372 1572 q 489 1523 450 1536 q 567 1510 528 1510 q 617 1524 594 1510 q 649 1560 639 1539 l 672 1518 q 635 1478 667 1499 q 567 1458 604 1458 q 489 1472 528 1458 q 411 1502 450 1485 q 328 1532 372 1519 q 235 1543 285 1544 q 147 1513 178 1542 q 101 1450 117 1485 l 69 1486 z "},"ˆ":{"ha":756,"x_min":69,"x_max":686,"o":"m 69 1504 l 378 1661 l 686 1504 l 665 1458 l 378 1604 l 90 1458 l 69 1504 z "},"˘":{"ha":747,"x_min":69,"x_max":678,"o":"m 374 1458 q 247 1476 308 1458 q 138 1528 185 1494 q 69 1607 92 1561 l 101 1636 q 211 1535 142 1568 q 374 1501 281 1501 q 537 1535 467 1501 q 646 1636 607 1568 l 678 1607 q 609 1528 656 1561 q 501 1476 563 1494 q 374 1458 440 1458 z "},"¯":{"ha":735,"x_min":69,"x_max":665,"o":"m 69 1458 l 69 1506 l 665 1506 l 665 1458 l 69 1458 z "},"´":{"ha":592,"x_min":69,"x_max":522,"o":"m 522 1599 q 431 1547 489 1574 q 306 1497 374 1519 q 175 1464 238 1475 q 69 1458 113 1453 l 69 1465 q 147 1475 100 1463 q 248 1510 194 1488 q 351 1558 301 1532 q 438 1609 401 1585 q 489 1650 475 1633 l 522 1599 z "},"˝":{"ha":596,"x_min":69,"x_max":526,"o":"m 293 1464 l 294 1471 q 397 1503 346 1463 q 476 1613 447 1543 l 526 1585 q 472 1515 508 1547 q 388 1467 435 1482 q 293 1464 340 1451 m 303 1585 q 248 1515 285 1547 q 164 1467 211 1482 q 69 1464 117 1451 l 71 1471 q 173 1503 122 1463 q 253 1613 224 1543 l 303 1585 z "},"˛":{"ha":321,"x_min":69,"x_max":251,"o":"m 171 -274 q 97 -240 125 -274 q 69 -142 69 -206 q 86 -64 69 -96 q 126 -12 103 -32 q 164 15 149 8 l 197 15 q 128 -40 157 -4 q 100 -140 100 -76 q 119 -217 100 -187 q 172 -246 138 -246 q 206 -232 192 -246 q 221 -199 221 -218 q 218 -176 221 -186 q 206 -154 215 -165 l 239 -150 q 249 -172 246 -160 q 251 -200 251 -185 q 228 -251 251 -228 q 171 -274 204 -274 z "},"¸":{"ha":333,"x_min":69,"x_max":264,"o":"m 69 -257 l 79 -231 q 119 -246 93 -246 q 199 -215 164 -246 q 233 -140 233 -183 q 219 -99 233 -117 q 168 -82 204 -82 q 129 -91 146 -82 q 104 -110 113 -100 l 85 -86 l 131 18 l 160 18 l 125 -68 q 174 -54 143 -54 q 213 -62 192 -54 q 249 -88 233 -69 q 264 -140 264 -107 q 242 -208 264 -178 q 186 -256 219 -239 q 119 -274 153 -274 q 69 -257 86 -274 z "},"§":{"ha":889,"x_min":69,"x_max":819,"o":"m 69 135 l 175 383 q 289 219 219 294 q 449 97 358 143 q 643 50 539 50 q 708 73 681 50 q 735 136 735 96 q 700 224 735 188 q 608 290 665 261 q 483 345 551 318 q 347 402 415 372 q 222 471 279 432 q 131 565 165 510 q 96 694 96 619 q 149 844 96 785 q 288 932 201 904 q 151 1037 207 975 q 96 1194 96 1099 q 146 1342 96 1283 q 281 1429 196 1400 q 471 1458 367 1458 q 613 1441 549 1458 q 725 1401 678 1424 q 796 1361 772 1378 l 690 1151 q 582 1260 644 1204 q 442 1354 519 1315 q 275 1393 365 1393 q 201 1365 225 1393 q 178 1301 178 1336 q 213 1209 178 1247 q 304 1142 247 1171 q 430 1087 361 1113 q 567 1033 499 1061 q 693 965 636 1004 q 785 872 750 926 q 819 742 819 818 q 765 592 819 650 q 621 507 711 533 q 762 403 704 465 q 819 242 819 342 q 772 99 819 156 q 642 14 725 42 q 456 -14 560 -14 q 235 24 331 -14 q 69 135 140 61 m 275 893 q 201 865 225 893 q 178 801 178 836 q 212 711 178 751 q 301 640 246 671 q 419 590 356 610 q 541 560 482 569 q 643 550 600 550 q 708 573 681 550 q 735 636 735 596 q 700 718 735 679 q 610 789 665 757 q 492 844 556 821 q 372 881 429 868 q 275 893 314 893 z "},"(":{"ha":692,"x_min":69,"x_max":622,"o":"m 549 -106 q 330 -42 421 -106 q 181 134 239 22 q 97 390 124 246 q 69 694 69 535 q 97 999 69 856 q 181 1255 124 1143 q 330 1431 239 1367 q 549 1494 421 1494 q 592 1486 568 1494 q 622 1463 615 1478 l 614 1450 q 601 1461 614 1450 q 557 1472 589 1472 q 438 1435 489 1472 q 352 1333 388 1397 q 294 1188 317 1268 q 258 1019 271 1107 q 241 848 246 932 q 236 694 236 764 q 241 541 236 625 q 258 369 246 457 q 294 201 271 282 q 352 56 317 121 q 438 -46 388 -8 q 557 -83 489 -83 q 601 -72 589 -83 q 614 -61 614 -61 l 622 -74 q 592 -97 615 -87 q 549 -106 568 -106 z "},"*":{"ha":372,"x_min":69,"x_max":303,"o":"m 178 1281 l 69 1310 l 76 1331 l 181 1292 l 175 1403 l 197 1403 l 192 1292 l 296 1331 l 303 1310 l 194 1281 l 265 1194 l 247 1181 l 186 1275 l 125 1181 l 107 1193 l 178 1281 z "},"`":{"ha":592,"x_min":69,"x_max":522,"o":"m 69 1599 l 103 1650 q 153 1609 117 1633 q 240 1558 190 1585 q 344 1510 290 1532 q 444 1475 397 1488 q 522 1465 492 1463 l 522 1458 q 417 1464 479 1453 q 286 1497 354 1475 q 160 1547 218 1519 q 69 1599 103 1574 z "},"¿":{"ha":1171,"x_min":69,"x_max":1101,"o":"m 560 -14 q 297 33 407 -14 q 128 167 188 81 q 69 367 69 253 q 99 476 69 433 q 175 548 128 519 q 280 598 222 576 q 394 640 338 619 q 499 688 451 660 q 575 757 546 715 q 604 863 604 799 q 592 908 604 885 q 558 928 579 931 q 588 986 563 961 q 658 1011 613 1011 q 732 987 700 1011 q 781 926 764 963 q 799 849 799 889 q 768 742 799 788 q 687 665 738 696 q 578 617 636 635 q 463 593 519 599 q 333 574 399 588 q 213 535 268 560 q 125 471 158 511 q 92 369 92 431 q 121 290 92 324 q 197 235 150 257 q 301 200 244 213 q 413 182 357 188 q 513 176 468 176 q 775 227 661 176 q 949 388 889 278 l 1101 307 q 1015 138 1088 210 q 824 26 942 65 q 560 -14 707 -14 m 513 1271 q 551 1374 513 1335 q 654 1413 590 1413 q 757 1374 718 1413 q 796 1271 796 1335 q 757 1168 796 1207 q 654 1129 718 1129 q 551 1168 590 1129 q 513 1271 513 1207 z "},"Œ":{"ha":2103,"x_min":56,"x_max":2072,"o":"m 604 -14 q 315 75 439 -14 q 124 323 192 164 q 56 694 56 482 q 124 1066 56 907 q 315 1314 192 1225 q 604 1403 439 1403 q 828 1352 728 1403 q 1002 1208 929 1301 q 1114 984 1075 1114 q 1153 694 1153 854 q 1153 670 1153 690 q 1153 633 1153 650 q 1269 706 1197 682 q 1428 731 1342 731 q 1553 716 1497 731 q 1658 682 1610 701 q 1753 648 1707 663 q 1847 633 1799 633 q 1890 644 1871 633 q 1908 678 1908 654 q 1869 733 1908 708 q 1771 776 1831 757 q 1644 810 1711 794 q 1522 839 1578 825 q 1378 876 1449 857 q 1251 924 1308 894 q 1160 1003 1194 954 q 1126 1129 1126 1053 q 1138 1190 1126 1156 q 1180 1263 1150 1225 q 1263 1332 1210 1300 q 1401 1383 1317 1364 q 1604 1403 1485 1403 q 1725 1398 1658 1403 q 1860 1382 1792 1393 q 1984 1353 1928 1371 q 2072 1310 2040 1336 l 2015 1101 q 1905 1154 1975 1131 q 1748 1192 1835 1178 q 1572 1207 1661 1207 q 1352 1171 1421 1207 q 1283 1061 1283 1135 q 1323 967 1283 1004 q 1427 906 1363 931 q 1569 862 1492 881 q 1724 824 1647 843 q 1866 780 1801 806 q 1970 715 1931 754 q 2010 617 2010 676 q 1984 527 2010 565 q 1916 467 1958 489 q 1825 444 1874 446 q 1681 462 1749 443 q 1552 506 1614 481 q 1428 551 1490 531 q 1297 571 1365 571 q 1161 540 1204 571 q 1118 456 1118 510 q 1169 327 1118 379 q 1308 244 1221 275 q 1504 201 1394 214 q 1731 188 1614 188 q 1903 202 1818 188 q 2058 276 1988 217 l 1975 35 q 1863 -3 1919 8 q 1736 -14 1807 -14 q 1518 7 1624 -14 q 1326 73 1413 28 q 1181 192 1239 118 q 1103 369 1122 265 q 911 89 1040 192 q 604 -14 782 -14 m 603 1383 q 429 1297 504 1383 q 313 1057 354 1211 q 272 696 272 903 q 313 334 272 489 q 429 93 354 179 q 603 7 504 7 q 778 93 703 7 q 894 334 853 179 q 936 696 936 489 q 894 1057 936 903 q 778 1297 853 1211 q 603 1383 703 1383 z "},"œ":{"ha":1518,"x_min":69,"x_max":1490,"o":"m 69 472 q 121 745 69 638 q 260 906 172 853 q 461 958 349 958 q 644 915 560 958 q 782 781 728 871 q 920 908 836 860 q 1114 957 1004 957 q 1246 942 1181 957 q 1364 897 1311 926 q 1448 824 1417 867 q 1479 729 1479 782 q 1442 658 1479 694 q 1351 588 1406 622 q 1240 519 1296 553 q 1110 442 1174 481 q 994 371 1046 403 q 914 319 943 339 q 1045 210 967 251 q 1222 169 1124 169 q 1372 201 1300 169 q 1483 285 1443 233 l 1490 285 l 1411 36 q 1290 -3 1356 8 q 1157 -15 1224 -15 q 946 33 1043 -15 q 783 167 849 82 q 646 31 731 75 q 461 -14 561 -14 q 264 39 353 -14 q 122 199 175 92 q 69 472 69 307 m 356 924 q 269 838 300 910 q 234 656 238 765 q 260 422 231 547 q 341 203 289 299 q 453 58 393 107 q 569 22 514 8 q 658 108 626 36 q 692 290 689 181 q 667 522 696 399 q 610 693 644 615 q 532 826 575 771 q 443 908 489 882 q 356 924 397 935 m 815 643 q 901 338 815 467 q 976 381 929 353 q 1075 447 1022 410 q 1176 528 1128 485 q 1254 615 1224 571 q 1285 703 1285 660 q 1274 772 1285 735 q 1235 842 1263 808 q 1158 896 1207 875 q 1036 917 1110 917 q 910 876 960 917 q 838 774 861 836 q 815 643 815 711 z "},"ˇ":{"ha":756,"x_min":69,"x_max":686,"o":"m 69 1615 l 90 1661 l 378 1515 l 665 1661 l 686 1615 l 378 1458 l 69 1615 z "},"˚":{"ha":444,"x_min":69,"x_max":375,"o":"m 222 1458 q 114 1503 158 1458 q 69 1611 69 1547 q 114 1719 69 1675 q 222 1764 158 1764 q 331 1719 286 1764 q 375 1611 375 1675 q 331 1503 375 1547 q 222 1458 286 1458 m 90 1611 q 128 1517 90 1556 q 222 1478 167 1478 q 317 1517 278 1478 q 356 1611 356 1556 q 317 1705 356 1667 q 222 1743 278 1743 q 128 1705 167 1743 q 90 1611 90 1667 z "},"$":{"ha":1049,"x_min":28,"x_max":1021,"o":"m 483 -14 q 300 9 389 -14 q 140 69 211 32 q 28 146 68 106 l 111 339 q 309 233 213 276 q 532 179 406 189 l 532 590 q 524 592 526 590 q 247 676 349 622 q 101 813 144 731 q 57 1010 57 896 q 81 1137 57 1071 q 160 1260 106 1203 q 306 1356 214 1318 q 532 1401 397 1394 l 532 1522 l 574 1522 l 574 1403 q 677 1399 619 1403 q 795 1385 735 1396 q 909 1357 856 1375 q 999 1310 963 1339 l 942 1111 q 790 1177 890 1149 q 574 1214 689 1206 l 574 829 q 808 760 708 811 q 965 626 908 710 q 1021 424 1021 543 q 960 212 1021 303 q 797 65 899 121 q 574 -8 694 8 l 574 -136 l 532 -136 l 532 -12 q 508 -14 519 -14 q 483 -14 496 -14 m 499 1217 q 348 1203 422 1217 q 213 1163 274 1190 q 117 1092 153 1135 q 81 993 81 1050 q 108 917 81 946 q 180 874 135 889 q 280 854 225 860 q 390 846 335 849 q 493 838 446 843 q 513 836 503 836 q 532 835 522 836 l 532 1217 q 515 1217 524 1217 q 499 1217 507 1217 m 574 178 q 668 182 614 178 q 779 197 722 186 q 885 231 836 208 q 964 292 933 254 q 994 385 994 329 q 956 476 994 442 q 856 530 918 510 q 720 561 794 550 q 574 583 646 572 l 574 178 z "},"{":{"ha":617,"x_min":69,"x_max":547,"o":"m 69 700 q 176 770 139 719 q 214 897 214 821 l 214 1207 q 242 1356 214 1292 q 319 1458 269 1421 q 431 1496 368 1496 q 497 1489 465 1496 q 547 1469 528 1482 l 543 1463 q 503 1474 521 1474 q 403 1401 443 1474 q 363 1161 363 1329 l 363 1086 q 336 928 363 1000 q 268 803 310 856 q 179 723 226 751 q 90 694 132 694 q 179 666 132 694 q 268 585 226 638 q 336 461 310 533 q 363 303 363 389 l 363 228 q 403 -12 363 60 q 503 -85 443 -85 q 543 -74 521 -85 l 547 -81 q 497 -100 528 -93 q 431 -107 465 -107 q 319 -69 368 -107 q 242 33 269 -32 q 214 182 214 99 l 214 492 q 176 619 214 568 q 69 689 139 671 l 69 700 z "},"¡":{"ha":422,"x_min":69,"x_max":353,"o":"m 81 154 q 94 299 81 225 q 129 467 108 374 q 169 685 150 560 q 200 985 189 811 l 221 985 q 251 685 232 811 q 292 467 271 560 q 326 299 313 374 q 340 154 340 225 q 323 72 340 110 q 276 10 306 33 q 208 -14 246 -14 q 143 10 172 -14 q 97 72 114 33 q 81 154 81 110 m 69 1260 q 108 1363 69 1324 q 211 1401 147 1401 q 314 1363 275 1401 q 353 1260 353 1324 q 314 1157 353 1196 q 211 1118 275 1118 q 108 1157 147 1118 q 69 1260 69 1196 z "},"/":{"ha":771,"x_min":69,"x_max":701,"o":"m 69 -14 l 667 1403 l 701 1403 l 104 -14 l 69 -14 z "},"%":{"ha":1714,"x_min":69,"x_max":1646,"o":"m 829 -14 q 697 31 754 -14 q 609 155 640 75 q 578 340 578 235 q 609 525 578 446 q 697 649 640 604 q 829 693 754 693 q 962 649 906 693 q 1049 525 1018 604 q 1081 340 1081 446 q 1049 155 1081 235 q 962 31 1018 75 q 829 -14 906 -14 m 321 694 q 189 739 246 694 q 101 863 132 783 q 69 1049 69 943 q 101 1233 69 1154 q 189 1357 132 1313 q 321 1401 246 1401 q 453 1357 397 1401 q 541 1233 510 1313 q 572 1049 572 1154 q 541 863 572 943 q 453 739 510 783 q 321 694 397 694 m 1143 340 q 1174 525 1143 446 q 1262 649 1206 604 q 1394 693 1318 693 q 1526 649 1469 693 q 1615 525 1583 604 q 1646 340 1646 446 q 1615 155 1646 235 q 1526 31 1583 75 q 1394 -14 1469 -14 q 1262 31 1318 -14 q 1174 155 1206 75 q 1143 340 1143 235 m 1244 340 q 1285 90 1244 185 q 1393 -4 1325 -4 q 1502 90 1463 -4 q 1542 340 1542 185 q 1502 589 1542 494 q 1393 683 1463 683 q 1285 589 1325 683 q 1244 340 1244 494 m 681 340 q 721 90 681 185 q 829 -4 761 -4 q 938 90 899 -4 q 978 340 978 185 q 938 589 978 494 q 829 683 899 683 q 721 589 761 683 q 681 340 681 494 m 321 1392 q 213 1297 253 1392 q 172 1049 172 1203 q 213 799 172 893 q 321 706 253 706 q 430 799 390 706 q 469 1049 469 893 q 430 1297 469 1203 q 321 1392 390 1392 m 258 -14 l 856 1403 l 890 1403 l 293 -14 l 258 -14 z "},"‰":{"ha":1714,"x_min":69,"x_max":1646,"o":"m 829 -14 q 697 31 754 -14 q 609 155 640 75 q 578 340 578 235 q 609 525 578 446 q 697 649 640 604 q 829 693 754 693 q 962 649 906 693 q 1049 525 1018 604 q 1081 340 1081 446 q 1049 155 1081 235 q 962 31 1018 75 q 829 -14 906 -14 m 321 694 q 189 739 246 694 q 101 863 132 783 q 69 1049 69 943 q 101 1233 69 1154 q 189 1357 132 1313 q 321 1401 246 1401 q 453 1357 397 1401 q 541 1233 510 1313 q 572 1049 572 1154 q 541 863 572 943 q 453 739 510 783 q 321 694 397 694 m 1143 340 q 1174 525 1143 446 q 1262 649 1206 604 q 1394 693 1318 693 q 1526 649 1469 693 q 1615 525 1583 604 q 1646 340 1646 446 q 1615 155 1646 235 q 1526 31 1583 75 q 1394 -14 1469 -14 q 1262 31 1318 -14 q 1174 155 1206 75 q 1143 340 1143 235 m 1244 340 q 1285 90 1244 185 q 1393 -4 1325 -4 q 1502 90 1463 -4 q 1542 340 1542 185 q 1502 589 1542 494 q 1393 683 1463 683 q 1285 589 1325 683 q 1244 340 1244 494 m 681 340 q 721 90 681 185 q 829 -4 761 -4 q 938 90 899 -4 q 978 340 978 185 q 938 589 978 494 q 829 683 899 683 q 721 589 761 683 q 681 340 681 494 m 321 1392 q 213 1297 253 1392 q 172 1049 172 1203 q 213 799 172 893 q 321 706 253 706 q 430 799 390 706 q 469 1049 469 893 q 430 1297 469 1203 q 321 1392 390 1392 m 258 -14 l 856 1403 l 890 1403 l 293 -14 l 258 -14 z "},"‹":{"ha":481,"x_min":69,"x_max":411,"o":"m 142 694 l 411 393 l 339 393 l 69 694 l 339 996 l 411 996 l 142 694 z "},"›":{"ha":481,"x_min":69,"x_max":411,"o":"m 339 694 l 69 996 l 142 996 l 411 694 l 142 393 l 69 393 l 339 694 z "},"«":{"ha":651,"x_min":69,"x_max":582,"o":"m 510 393 l 240 694 l 510 996 l 582 996 l 313 694 l 582 393 l 510 393 m 69 694 l 339 996 l 411 996 l 142 694 l 411 393 l 339 393 l 69 694 z "},"»":{"ha":651,"x_min":69,"x_max":582,"o":"m 313 393 l 240 393 l 510 694 l 240 996 l 313 996 l 582 694 l 313 393 m 69 393 l 339 694 l 69 996 l 142 996 l 411 694 l 142 393 l 69 393 z "},"+":{"ha":736,"x_min":69,"x_max":667,"o":"m 347 625 l 69 625 l 69 667 l 347 667 l 347 944 l 389 944 l 389 667 l 667 667 l 667 625 l 389 625 l 389 347 l 347 347 l 347 625 z "},"-":{"ha":736,"x_min":69,"x_max":667,"o":"m 69 667 l 667 667 l 667 625 l 69 625 l 69 667 z "},"–":{"ha":972,"x_min":69,"x_max":903,"o":"m 69 667 l 903 667 l 903 625 l 69 625 l 69 667 z "},"—":{"ha":1111,"x_min":69,"x_max":1042,"o":"m 69 667 l 1042 667 l 1042 625 l 69 625 l 69 667 z "},"÷":{"ha":736,"x_min":69,"x_max":667,"o":"m 667 625 l 69 625 l 69 667 l 667 667 l 667 625 m 303 483 q 324 533 303 513 q 374 554 344 554 q 424 533 403 554 q 444 483 444 513 q 424 433 444 453 q 374 413 403 413 q 324 433 344 413 q 303 483 303 453 m 374 742 q 324 763 344 742 q 303 813 303 783 q 324 863 303 842 q 374 883 344 883 q 424 863 403 883 q 444 813 444 842 q 424 763 444 783 q 374 742 403 742 z "},"−":{"ha":736,"x_min":69,"x_max":667,"o":"m 69 667 l 667 667 l 667 625 l 69 625 l 69 667 z "},"=":{"ha":736,"x_min":69,"x_max":667,"o":"m 69 667 l 667 667 l 667 625 l 69 625 l 69 667 m 667 461 l 69 461 l 69 503 l 667 503 l 667 461 z "},"~":{"ha":740,"x_min":69,"x_max":671,"o":"m 69 575 q 90 608 74 586 q 138 648 107 629 q 215 667 169 667 q 318 646 265 667 q 424 603 371 625 q 525 582 476 582 q 590 599 565 582 q 628 635 614 615 q 649 667 643 656 l 671 633 q 651 600 668 622 q 602 559 633 578 q 525 540 571 540 q 422 562 475 540 q 317 604 369 583 q 215 625 265 625 q 151 609 176 625 q 112 573 125 593 q 92 540 99 553 l 69 575 z "},"±":{"ha":736,"x_min":69,"x_max":667,"o":"m 69 438 l 69 478 l 347 478 l 347 757 l 389 757 l 389 478 l 667 478 l 667 438 l 389 438 l 389 160 l 347 160 l 347 438 l 69 438 m 69 0 l 69 42 l 667 42 l 667 0 l 69 0 z "},"¹":{"ha":306,"x_min":69,"x_max":236,"o":"m 69 1244 l 69 1249 q 166 1317 122 1271 q 236 1403 210 1363 l 236 701 l 135 701 l 135 1244 l 69 1244 z "},"²":{"ha":621,"x_min":69,"x_max":551,"o":"m 79 701 q 73 722 76 714 q 69 742 69 731 q 103 840 69 796 q 191 920 138 883 q 305 990 244 957 q 419 1053 365 1022 q 506 1117 472 1085 q 540 1188 540 1150 q 489 1276 540 1240 q 360 1313 438 1313 q 220 1283 278 1313 q 126 1206 163 1254 l 69 1279 q 117 1335 81 1307 q 203 1383 153 1364 q 306 1403 253 1403 q 485 1342 419 1403 q 551 1188 551 1282 q 523 1067 551 1119 q 449 974 494 1015 q 353 901 404 933 q 256 840 301 868 q 183 785 211 813 q 154 728 154 758 q 167 713 154 713 q 313 728 243 713 q 443 765 383 743 q 544 808 503 788 l 544 701 l 79 701 z "},"³":{"ha":631,"x_min":69,"x_max":561,"o":"m 294 694 q 154 721 214 694 q 69 774 94 747 l 111 861 q 216 812 160 831 q 342 793 272 793 q 399 797 364 793 q 468 812 433 801 q 526 840 503 822 q 550 882 550 857 q 526 928 550 910 q 463 959 501 946 q 381 983 424 972 q 299 1008 338 994 q 235 1043 260 1022 q 211 1094 211 1064 q 232 1151 211 1125 q 284 1200 253 1176 q 346 1247 315 1224 q 397 1297 376 1271 q 418 1351 418 1322 q 408 1376 418 1367 q 378 1386 399 1386 q 212 1355 288 1386 q 83 1290 136 1324 l 83 1396 l 503 1396 q 527 1394 518 1396 q 536 1381 536 1392 q 508 1344 536 1367 q 439 1294 481 1321 q 356 1239 397 1267 q 286 1187 314 1211 q 258 1147 258 1163 q 280 1117 258 1128 q 336 1099 301 1106 q 410 1081 371 1092 q 483 1049 449 1069 q 540 994 518 1029 q 561 900 561 958 q 522 791 561 838 q 421 719 482 744 q 294 694 360 694 z "},"¼":{"ha":892,"x_min":69,"x_max":822,"o":"m 638 146 l 318 146 q 370 231 340 181 q 431 339 400 282 q 490 452 463 396 q 535 559 518 508 q 551 644 551 610 q 538 675 551 661 q 507 692 525 689 l 507 694 l 628 694 q 644 678 636 689 q 651 640 651 667 q 621 501 651 583 q 541 328 590 418 q 436 157 492 238 q 535 158 483 157 q 638 160 588 158 l 638 443 l 739 443 l 739 168 q 785 176 764 171 q 822 186 807 181 l 822 146 l 739 146 l 739 0 l 638 0 l 638 146 m 89 1244 l 89 1249 q 185 1317 142 1271 q 256 1403 229 1363 l 256 701 l 154 701 l 154 1244 l 89 1244 m 69 -14 l 667 1403 l 701 1403 l 104 -14 l 69 -14 z "},"¢":{"ha":969,"x_min":69,"x_max":900,"o":"m 483 222 q 274 299 368 236 q 124 463 179 363 q 69 685 69 563 q 97 866 69 779 q 178 1022 125 953 q 309 1132 232 1090 q 483 1176 386 1174 l 483 1522 l 526 1522 l 526 1176 q 748 1110 654 1171 q 900 919 842 1049 l 729 829 q 647 992 694 915 q 526 1108 599 1069 l 526 408 q 565 403 546 404 q 606 401 585 401 q 755 433 683 401 q 867 515 826 464 l 874 515 l 794 269 q 663 229 732 239 q 525 219 594 219 l 526 -136 l 483 -136 l 483 222 m 410 1138 q 292 1098 339 1138 q 222 997 246 1058 q 199 868 199 935 q 233 670 199 763 q 331 513 267 578 q 483 418 394 447 l 483 1126 q 410 1138 447 1138 z "},"|":{"ha":181,"x_min":69,"x_max":111,"o":"m 69 -107 l 69 1496 l 111 1496 l 111 -107 l 69 -107 z "},"¦":{"ha":181,"x_min":69,"x_max":111,"o":"m 111 764 l 69 764 l 69 1496 l 111 1496 l 111 764 m 69 625 l 111 625 l 111 -107 l 69 -107 l 69 625 z "},"'":{"ha":378,"x_min":69,"x_max":308,"o":"m 190 1163 q 105 1198 140 1163 q 69 1283 69 1233 q 105 1367 69 1332 q 190 1403 140 1403 q 280 1360 251 1403 q 308 1261 308 1317 q 289 1169 308 1204 q 241 1113 269 1133 q 184 1085 213 1093 q 136 1074 156 1076 q 117 1072 117 1072 l 117 1083 q 182 1103 157 1083 q 207 1143 207 1122 q 190 1163 207 1163 z "},"×":{"ha":590,"x_min":69,"x_max":521,"o":"m 267 646 l 69 843 l 99 872 l 296 675 l 492 872 l 521 843 l 325 646 l 521 450 l 492 419 l 296 617 l 99 419 l 69 450 l 267 646 z "},"…":{"ha":1138,"x_min":69,"x_max":1068,"o":"m 69 107 q 105 191 69 156 q 190 226 140 226 q 274 191 239 226 q 310 107 310 156 q 274 22 310 57 q 190 -14 239 -14 q 105 22 140 -14 q 69 107 69 57 m 828 107 q 863 191 828 156 q 949 226 899 226 q 1033 191 997 226 q 1068 107 1068 156 q 1033 22 1068 57 q 949 -14 997 -14 q 863 22 899 -14 q 828 107 828 57 m 569 -14 q 484 22 519 -14 q 449 107 449 57 q 484 191 449 156 q 569 226 519 226 q 653 191 618 226 q 689 107 689 156 q 653 22 689 57 q 569 -14 618 -14 z "},"’":{"ha":378,"x_min":69,"x_max":308,"o":"m 190 1163 q 105 1198 140 1163 q 69 1283 69 1233 q 105 1367 69 1332 q 190 1403 140 1403 q 280 1360 251 1403 q 308 1261 308 1317 q 289 1169 308 1204 q 241 1113 269 1133 q 184 1085 213 1093 q 136 1074 156 1076 q 117 1072 117 1072 l 117 1083 q 182 1103 157 1083 q 207 1143 207 1122 q 190 1163 207 1163 z "},"‚":{"ha":378,"x_min":69,"x_max":308,"o":"m 190 -14 q 105 22 140 -14 q 69 107 69 57 q 105 191 69 156 q 190 226 140 226 q 280 183 251 226 q 308 85 308 140 q 289 -8 308 28 q 241 -63 269 -43 q 184 -92 213 -83 q 136 -102 156 -100 q 117 -104 117 -104 l 117 -93 q 182 -74 157 -93 q 207 -33 207 -54 q 190 -14 207 -14 z "},"‘":{"ha":378,"x_min":69,"x_max":308,"o":"m 69 1214 q 89 1306 69 1271 q 137 1362 108 1342 q 194 1390 165 1382 q 242 1401 222 1399 q 261 1403 261 1403 l 261 1392 q 196 1372 221 1392 q 171 1332 171 1353 q 188 1313 171 1313 q 273 1277 238 1313 q 308 1192 308 1242 q 273 1108 308 1143 q 188 1072 238 1072 q 98 1115 126 1072 q 69 1214 69 1158 z "},"”":{"ha":674,"x_min":69,"x_max":604,"o":"m 486 1163 q 401 1198 436 1163 q 365 1283 365 1233 q 401 1367 365 1332 q 486 1403 436 1403 q 576 1360 547 1403 q 604 1261 604 1317 q 585 1169 604 1204 q 537 1113 565 1133 q 480 1085 508 1093 q 432 1074 451 1076 q 413 1072 413 1072 l 413 1083 q 478 1103 453 1083 q 503 1143 503 1122 q 486 1163 503 1163 m 69 1283 q 105 1367 69 1332 q 190 1403 140 1403 q 280 1360 251 1403 q 308 1261 308 1317 q 289 1169 308 1204 q 241 1113 269 1133 q 184 1085 213 1093 q 136 1074 156 1076 q 117 1072 117 1072 l 117 1083 q 182 1103 157 1083 q 207 1143 207 1122 q 190 1163 207 1163 q 105 1198 140 1163 q 69 1283 69 1233 z "},"“":{"ha":674,"x_min":69,"x_max":604,"o":"m 365 1214 q 385 1306 365 1271 q 433 1362 404 1342 q 490 1390 461 1382 q 538 1401 518 1399 q 557 1403 557 1403 l 557 1392 q 492 1372 517 1392 q 467 1332 467 1353 q 483 1313 467 1313 q 569 1277 533 1313 q 604 1192 604 1242 q 569 1108 604 1143 q 483 1072 533 1072 q 394 1115 422 1072 q 365 1214 365 1158 m 69 1214 q 89 1306 69 1271 q 137 1362 108 1342 q 194 1390 165 1382 q 242 1401 222 1399 q 261 1403 261 1403 l 261 1392 q 196 1372 221 1392 q 171 1332 171 1353 q 188 1313 171 1313 q 273 1277 238 1313 q 308 1192 308 1242 q 273 1108 308 1143 q 188 1072 238 1072 q 98 1115 126 1072 q 69 1214 69 1158 z "},"„":{"ha":674,"x_min":69,"x_max":604,"o":"m 69 108 q 105 192 69 157 q 190 228 140 228 q 280 185 251 228 q 308 86 308 142 q 289 -6 308 29 q 241 -62 269 -42 q 184 -90 213 -82 q 136 -101 156 -99 q 117 -103 117 -103 l 117 -92 q 182 -72 157 -92 q 207 -32 207 -53 q 190 -12 207 -12 q 105 23 140 -12 q 69 108 69 58 m 486 -12 q 401 23 436 -12 q 365 108 365 58 q 401 192 365 157 q 486 228 436 228 q 576 185 547 228 q 604 86 604 142 q 585 -6 604 29 q 537 -62 565 -42 q 480 -90 508 -82 q 432 -101 451 -99 q 413 -103 413 -103 l 413 -92 q 478 -72 453 -92 q 503 -32 503 -53 q 486 -12 503 -12 z "},"⁄":{"ha":771,"x_min":69,"x_max":701,"o":"m 69 -14 l 667 1403 l 701 1403 l 104 -14 l 69 -14 z "},":":{"ha":379,"x_min":69,"x_max":310,"o":"m 69 107 q 105 191 69 156 q 190 226 140 226 q 274 191 239 226 q 310 107 310 156 q 274 22 310 57 q 190 -14 239 -14 q 105 22 140 -14 q 69 107 69 57 m 69 468 q 105 552 69 517 q 190 588 140 588 q 274 552 239 588 q 310 468 310 517 q 274 383 310 418 q 190 347 239 347 q 105 383 140 347 q 69 468 69 418 z "},";":{"ha":379,"x_min":69,"x_max":310,"o":"m 69 107 q 105 191 69 156 q 190 226 140 226 q 280 183 251 226 q 308 85 308 140 q 289 -8 308 28 q 241 -63 269 -43 q 184 -92 213 -83 q 136 -102 156 -100 q 117 -104 117 -104 l 117 -93 q 182 -74 157 -93 q 207 -33 207 -54 q 190 -14 207 -14 q 105 22 140 -14 q 69 107 69 57 m 69 468 q 105 552 69 517 q 190 588 140 588 q 274 552 239 588 q 310 468 310 517 q 274 383 310 418 q 190 347 239 347 q 105 383 140 347 q 69 468 69 418 z "},"\"":{"ha":674,"x_min":69,"x_max":604,"o":"m 486 1163 q 401 1198 436 1163 q 365 1283 365 1233 q 401 1367 365 1332 q 486 1403 436 1403 q 576 1360 547 1403 q 604 1261 604 1317 q 585 1169 604 1204 q 537 1113 565 1133 q 480 1085 508 1093 q 432 1074 451 1076 q 413 1072 413 1072 l 413 1083 q 478 1103 453 1083 q 503 1143 503 1122 q 486 1163 503 1163 m 69 1283 q 105 1367 69 1332 q 190 1403 140 1403 q 280 1360 251 1403 q 308 1261 308 1317 q 289 1169 308 1204 q 241 1113 269 1133 q 184 1085 213 1093 q 136 1074 156 1076 q 117 1072 117 1072 l 117 1083 q 182 1103 157 1083 q 207 1143 207 1122 q 190 1163 207 1163 q 105 1198 140 1163 q 69 1283 69 1233 z "},"€":{"ha":1143,"x_min":69,"x_max":1074,"o":"m 69 713 q 113 987 69 861 q 238 1206 156 1113 q 438 1351 321 1300 q 703 1403 556 1403 q 842 1382 775 1403 q 963 1328 910 1361 q 1040 1256 1015 1294 l 904 1093 q 710 1249 822 1190 q 479 1308 597 1308 q 318 1251 385 1308 q 216 1091 251 1193 q 179 857 181 989 l 831 857 l 831 815 l 181 815 q 206 625 183 714 l 831 625 l 831 583 l 217 583 q 311 382 250 471 q 462 242 372 293 q 667 192 551 192 q 813 213 754 192 q 906 262 872 235 q 955 310 940 289 q 969 332 969 332 l 1074 165 q 1051 138 1074 165 q 978 76 1028 111 q 848 13 928 40 q 654 -14 768 -14 q 400 45 510 -14 q 217 206 290 104 q 106 439 143 308 q 69 713 69 569 z "},"_":{"ha":736,"x_min":69,"x_max":667,"o":"m 69 42 l 667 42 l 667 0 l 69 0 l 69 42 z "},"°":{"ha":583,"x_min":69,"x_max":514,"o":"m 292 960 q 180 990 231 960 q 99 1070 129 1019 q 69 1182 69 1121 q 99 1294 69 1243 q 180 1374 129 1344 q 292 1404 231 1404 q 403 1374 353 1404 q 484 1294 454 1344 q 514 1182 514 1243 q 484 1070 514 1121 q 403 990 454 1019 q 292 960 353 960 m 107 1181 q 132 1088 107 1131 q 199 1021 157 1046 q 292 996 242 996 q 385 1021 343 996 q 453 1088 428 1046 q 478 1181 478 1131 q 453 1274 478 1232 q 385 1342 428 1317 q 292 1367 343 1367 q 199 1342 242 1367 q 132 1274 157 1317 q 107 1181 107 1232 z "},"·":{"ha":379,"x_min":69,"x_max":310,"o":"m 69 696 q 105 780 69 744 q 190 815 140 815 q 274 780 239 815 q 310 696 310 744 q 274 610 310 646 q 190 575 239 575 q 105 610 140 575 q 69 696 69 646 z "},"º":{"ha":711,"x_min":69,"x_max":642,"o":"m 354 694 q 211 733 276 694 q 108 850 146 771 q 69 1049 69 929 q 106 1248 69 1169 q 208 1365 143 1326 q 354 1403 272 1403 q 499 1365 433 1403 q 603 1248 564 1326 q 642 1049 642 1169 q 603 850 642 929 q 499 733 564 771 q 354 694 435 694 m 278 1378 q 215 1315 238 1368 q 190 1183 192 1263 q 208 1013 188 1104 q 268 853 231 922 q 349 747 306 783 q 433 721 393 711 q 498 783 475 731 q 524 915 521 836 q 504 1085 526 994 q 445 1245 483 1175 q 363 1352 407 1315 q 278 1378 319 1389 z "},"ª":{"ha":772,"x_min":69,"x_max":703,"o":"m 69 829 q 95 927 69 876 q 170 1022 121 978 q 290 1093 219 1065 q 447 1121 360 1121 l 554 1121 l 554 1233 q 522 1310 554 1293 q 442 1326 489 1326 q 348 1308 389 1326 q 276 1261 307 1289 q 226 1207 246 1233 q 193 1164 206 1181 l 89 1288 q 197 1376 132 1349 q 333 1403 261 1403 q 463 1381 415 1403 q 536 1319 511 1358 q 574 1231 561 1281 q 601 1128 588 1182 q 635 991 619 1056 q 666 858 650 926 q 703 704 682 789 l 554 704 l 554 1107 l 542 1107 q 529 1015 540 1068 q 494 907 518 963 q 431 803 469 851 q 339 724 393 754 q 211 694 285 694 q 108 730 146 694 q 69 829 69 765 m 206 876 q 212 842 206 864 q 238 801 218 819 q 299 783 257 783 q 398 813 358 783 q 463 886 438 842 q 502 977 489 931 q 520 1060 515 1024 q 526 1108 525 1097 q 366 1078 439 1110 q 249 994 293 1047 q 206 876 206 942 z "},"[":{"ha":417,"x_min":69,"x_max":349,"o":"m 69 -107 l 69 1496 l 349 1496 l 349 1461 l 111 1461 l 111 -72 l 349 -72 l 349 -107 l 69 -107 z "},"]":{"ha":417,"x_min":69,"x_max":349,"o":"m 69 1496 l 349 1496 l 349 -107 l 69 -107 l 69 -72 l 307 -72 l 307 1461 l 69 1461 l 69 1496 z "},"\\":{"ha":771,"x_min":69,"x_max":701,"o":"m 69 1403 l 104 1403 l 701 -14 l 667 -14 l 69 1403 z "},"<":{"ha":500,"x_min":69,"x_max":431,"o":"m 108 717 l 431 533 l 431 489 l 69 694 l 69 739 l 431 944 l 431 900 l 108 717 z "},">":{"ha":500,"x_min":69,"x_max":431,"o":"m 69 533 l 392 717 l 69 900 l 69 944 l 431 739 l 431 694 l 69 489 l 69 533 z "},"©":{"ha":1556,"x_min":69,"x_max":1486,"o":"m 778 -14 q 488 37 618 -14 q 265 181 358 88 q 120 405 171 275 q 69 694 69 535 q 120 984 69 854 q 265 1208 171 1114 q 488 1352 358 1301 q 778 1403 618 1403 q 1067 1352 938 1403 q 1291 1208 1197 1301 q 1435 984 1385 1114 q 1486 694 1486 854 q 1435 405 1486 535 q 1291 181 1385 275 q 1067 37 1197 88 q 778 -14 938 -14 m 101 693 q 150 416 101 540 q 288 202 199 292 q 502 64 378 113 q 779 15 626 15 q 1056 64 932 15 q 1270 202 1181 113 q 1408 416 1360 292 q 1457 693 1457 540 q 1408 970 1457 846 q 1270 1183 1360 1094 q 1056 1321 1181 1272 q 779 1369 932 1369 q 502 1321 626 1369 q 288 1183 378 1272 q 150 970 199 1094 q 101 693 101 846 m 828 218 q 646 253 731 218 q 496 352 561 289 q 394 500 431 415 q 357 683 357 585 q 386 867 357 779 q 470 1025 415 956 q 604 1135 525 1094 q 785 1176 683 1176 q 1026 1115 925 1176 q 1188 918 1126 1054 l 1017 828 q 944 976 986 906 q 842 1092 901 1047 q 697 1136 782 1136 q 581 1097 628 1136 q 510 995 533 1057 q 486 867 486 933 q 535 633 486 739 q 676 463 585 526 q 893 400 767 400 q 1042 431 971 400 q 1154 514 1114 463 l 1161 514 l 1082 268 q 960 230 1026 242 q 828 218 894 218 z "},"#":{"ha":758,"x_min":69,"x_max":689,"o":"m 488 238 l 613 238 l 613 194 l 475 194 l 411 -14 l 363 -14 l 426 194 l 258 194 l 194 -14 l 146 -14 l 211 194 l 69 194 l 69 238 l 224 238 l 288 444 l 146 444 l 146 486 l 300 486 l 364 694 l 413 694 l 349 486 l 515 486 l 581 694 l 628 694 l 564 486 l 689 486 l 689 444 l 551 444 l 488 238 m 272 238 l 439 238 l 503 444 l 336 444 l 272 238 z "},"®":{"ha":1556,"x_min":69,"x_max":1486,"o":"m 69 694 q 120 984 69 854 q 265 1208 171 1114 q 488 1352 358 1301 q 778 1403 618 1403 q 1067 1352 938 1403 q 1291 1208 1197 1301 q 1435 984 1385 1114 q 1486 694 1486 854 q 1435 405 1486 535 q 1291 181 1385 275 q 1067 37 1197 88 q 778 -14 938 -14 q 488 37 618 -14 q 265 181 358 88 q 120 405 171 275 q 69 694 69 535 m 779 1369 q 502 1321 626 1369 q 288 1183 378 1272 q 150 970 199 1094 q 101 693 101 846 q 150 416 101 540 q 288 202 199 292 q 502 64 378 113 q 779 15 626 15 q 1056 64 932 15 q 1270 202 1181 113 q 1408 416 1360 292 q 1457 693 1457 540 q 1408 970 1457 846 q 1270 1183 1360 1094 q 1056 1321 1181 1272 q 779 1369 932 1369 m 599 194 l 451 194 l 451 1217 l 969 1217 q 1062 1190 1025 1217 q 1117 1124 1099 1164 q 1135 1042 1135 1083 q 1110 937 1135 981 q 1047 863 1086 893 q 965 813 1008 833 q 883 778 922 793 q 820 751 844 764 q 796 722 796 738 q 819 660 796 704 q 878 556 842 615 q 960 435 915 497 q 1047 320 1004 374 q 1126 234 1090 267 q 1179 201 1161 201 l 1179 194 l 1011 194 q 966 199 982 194 q 935 221 950 204 q 894 272 921 238 q 825 369 863 314 q 754 481 788 425 q 699 582 721 536 q 678 653 678 628 q 700 697 678 678 q 758 735 722 717 q 832 778 793 754 q 906 836 871 803 q 964 917 942 869 q 986 1032 986 965 q 947 1153 986 1104 q 818 1201 908 1201 l 599 1201 l 599 194 z "},"æ":{"ha":1539,"x_min":42,"x_max":1511,"o":"m 42 186 q 72 310 42 251 q 155 422 103 369 q 272 520 207 475 q 406 603 338 565 q 269 650 338 632 q 142 678 200 668 q 49 689 85 688 q 129 836 69 776 q 268 927 189 896 q 426 958 347 958 q 568 937 513 958 q 658 877 624 915 q 713 789 693 839 q 749 681 733 739 q 835 824 781 761 q 965 922 889 886 q 1135 958 1040 958 q 1267 943 1201 958 q 1385 898 1332 928 q 1469 826 1438 868 q 1500 731 1500 783 q 1463 660 1500 696 q 1372 589 1426 624 q 1261 521 1317 554 q 1131 443 1194 482 q 1016 372 1067 404 q 936 321 965 340 q 1067 212 989 253 q 1243 171 1144 171 q 1392 203 1321 171 q 1504 286 1464 235 l 1511 286 l 1432 38 q 1310 -2 1376 10 q 1178 -14 1244 -14 q 996 22 1081 -14 q 846 122 911 57 q 744 272 781 186 q 707 458 707 358 l 707 706 q 599 662 657 690 q 486 594 542 633 q 646 470 585 543 q 707 294 707 397 q 681 194 707 247 q 606 93 656 140 q 481 16 556 46 q 311 -14 407 -14 q 184 9 246 -14 q 82 77 122 32 q 42 186 42 122 m 836 644 q 922 339 836 468 q 997 383 950 354 q 1097 449 1043 411 q 1197 529 1150 486 q 1275 617 1244 572 q 1306 704 1306 661 q 1294 773 1306 736 q 1256 843 1283 810 q 1179 897 1228 876 q 1057 918 1131 918 q 931 878 981 918 q 859 775 882 838 q 836 644 836 713 m 686 294 q 656 412 686 360 q 576 506 626 464 q 463 578 525 547 q 350 475 401 532 q 268 353 299 418 q 238 217 238 289 q 265 126 238 165 q 338 65 292 88 q 442 42 385 42 q 536 68 492 42 q 615 135 581 94 q 667 218 649 175 q 686 294 686 261 m 435 619 q 586 688 514 660 q 706 729 658 715 q 647 856 700 815 q 525 897 594 897 q 410 877 460 897 q 326 827 360 857 q 274 767 292 797 q 257 715 257 736 q 262 692 257 706 q 285 672 267 678 q 435 619 365 649 z "},"≤":{"ha":500,"x_min":69,"x_max":431,"o":"m 108 717 l 431 533 l 431 489 l 69 694 l 69 739 l 431 944 l 431 900 l 108 717 m 69 382 l 431 382 l 431 347 l 69 347 l 69 382 z "},"≥":{"ha":500,"x_min":69,"x_max":431,"o":"m 431 694 l 71 489 l 71 533 l 393 717 l 71 900 l 71 944 l 431 739 l 431 694 m 431 347 l 69 347 l 69 382 l 431 382 l 431 347 z "},"¨":{"ha":514,"x_min":69,"x_max":444,"o":"m 69 1560 q 88 1605 69 1586 q 133 1624 107 1624 q 178 1605 160 1624 q 197 1560 197 1586 q 178 1515 197 1533 q 133 1496 160 1496 q 88 1515 107 1496 q 69 1560 69 1533 m 382 1496 q 336 1515 356 1496 q 317 1560 317 1533 q 336 1605 317 1586 q 382 1624 356 1624 q 426 1605 407 1624 q 444 1560 444 1586 q 426 1515 444 1533 q 382 1496 407 1496 z "},"¥":{"ha":1233,"x_min":69,"x_max":1164,"o":"m 413 632 q 324 828 365 738 q 244 1005 283 918 q 162 1185 204 1092 q 69 1389 119 1278 l 278 1389 q 379 1166 333 1267 q 469 971 425 1065 q 558 772 513 876 q 604 673 586 708 q 638 623 622 638 q 675 608 654 608 q 701 616 688 608 q 733 652 714 624 q 778 742 751 681 q 806 823 790 769 q 838 942 822 876 q 865 1074 854 1008 q 875 1190 875 1140 q 848 1317 875 1264 q 757 1382 821 1371 l 757 1389 l 1164 1389 l 1164 1382 q 1094 1334 1129 1374 q 1028 1238 1060 1294 q 969 1119 996 1181 q 920 1004 942 1057 q 886 922 899 951 q 794 706 843 819 q 722 472 746 593 l 953 474 l 953 432 l 715 432 q 710 371 711 401 q 710 308 710 340 l 953 308 l 953 267 l 713 267 q 742 133 719 203 q 811 0 764 64 l 469 0 l 581 267 l 356 267 l 356 308 l 597 308 l 649 432 l 356 432 l 356 474 l 667 474 l 707 569 q 653 524 688 546 q 557 501 618 501 q 474 541 511 501 q 413 632 436 581 z "},"ı":{"ha":439,"x_min":69,"x_max":369,"o":"m 69 858 q 176 881 121 865 q 283 917 232 896 q 369 958 333 938 l 369 0 l 168 0 l 168 761 q 144 835 168 818 q 69 851 121 851 l 69 858 z "},"ȷ":{"ha":519,"x_min":69,"x_max":450,"o":"m 69 -354 l 72 -347 q 153 -329 113 -354 q 222 -252 194 -304 q 249 -125 249 -200 l 249 767 q 225 838 249 824 q 150 851 201 851 l 150 858 q 257 881 201 865 q 363 917 313 896 q 450 958 414 938 l 450 -18 q 436 -149 450 -85 q 390 -265 422 -214 q 301 -347 357 -317 q 163 -378 246 -378 q 113 -373 135 -378 q 69 -354 92 -368 z "},"À":{"ha":1167,"x_min":28,"x_max":1139,"o":"m 28 0 q 108 265 71 142 q 180 500 146 388 q 248 725 214 613 q 319 958 282 838 q 397 1217 356 1078 q 436 1308 413 1265 q 497 1376 460 1350 q 583 1403 533 1403 q 671 1376 635 1403 q 731 1308 707 1350 q 769 1217 756 1265 q 848 958 811 1078 q 919 725 885 838 q 988 500 953 613 q 1059 265 1022 388 q 1139 0 1096 142 l 926 0 q 847 267 883 144 q 776 504 810 390 l 313 504 q 311 286 310 389 q 318 108 313 183 q 331 0 324 32 l 28 0 m 314 525 l 769 525 q 704 742 738 635 q 635 967 671 850 q 557 1217 600 1083 q 538 1254 550 1240 q 501 1268 525 1268 q 435 1225 464 1268 q 385 1108 406 1182 q 349 938 364 1033 q 326 737 335 843 q 314 525 318 631 m 796 1472 q 690 1478 753 1467 q 560 1511 628 1489 q 434 1560 492 1533 q 343 1613 376 1588 l 376 1664 q 427 1623 390 1647 q 514 1572 464 1599 q 617 1524 564 1546 q 718 1489 671 1501 q 796 1479 765 1476 l 796 1472 z "},"Á":{"ha":1167,"x_min":28,"x_max":1139,"o":"m 28 0 q 108 265 71 142 q 180 500 146 388 q 248 725 214 613 q 319 958 282 838 q 397 1217 356 1078 q 436 1308 413 1265 q 497 1376 460 1350 q 583 1403 533 1403 q 671 1376 635 1403 q 731 1308 707 1350 q 769 1217 756 1265 q 848 958 811 1078 q 919 725 885 838 q 988 500 953 613 q 1059 265 1022 388 q 1139 0 1096 142 l 926 0 q 847 267 883 144 q 776 504 810 390 l 313 504 q 311 286 310 389 q 318 108 313 183 q 331 0 324 32 l 28 0 m 314 525 l 769 525 q 704 742 738 635 q 635 967 671 850 q 557 1217 600 1083 q 538 1254 550 1240 q 501 1268 525 1268 q 435 1225 464 1268 q 385 1108 406 1182 q 349 938 364 1033 q 326 737 335 843 q 314 525 318 631 m 357 1472 l 357 1479 q 435 1489 388 1476 q 535 1524 482 1501 q 639 1572 589 1546 q 726 1623 689 1599 q 776 1664 763 1647 l 810 1613 q 719 1560 776 1588 q 593 1511 661 1533 q 463 1478 525 1489 q 357 1472 400 1467 z "},"Â":{"ha":1167,"x_min":28,"x_max":1139,"o":"m 331 0 l 28 0 q 108 265 71 142 q 180 500 146 388 q 248 725 214 613 q 319 958 282 838 q 397 1217 356 1078 q 436 1308 413 1265 q 497 1376 460 1350 q 583 1403 533 1403 q 671 1376 635 1403 q 731 1308 707 1350 q 769 1217 756 1265 q 848 958 811 1078 q 919 725 885 838 q 988 500 953 613 q 1059 265 1022 388 q 1139 0 1096 142 l 926 0 q 847 267 883 144 q 776 504 810 390 l 313 504 q 311 286 310 389 q 318 108 313 183 q 331 0 324 32 m 314 525 l 769 525 q 704 742 738 635 q 635 967 671 850 q 557 1217 600 1083 q 538 1254 550 1240 q 501 1268 525 1268 q 435 1225 464 1268 q 385 1108 406 1182 q 349 938 364 1033 q 326 737 335 843 q 314 525 318 631 m 275 1518 l 583 1675 l 892 1518 l 871 1472 l 583 1618 l 296 1472 l 275 1518 z "},"Ã":{"ha":1167,"x_min":28,"x_max":1139,"o":"m 331 0 l 28 0 q 108 265 71 142 q 180 500 146 388 q 248 725 214 613 q 319 958 282 838 q 397 1217 356 1078 q 436 1308 413 1265 q 497 1376 460 1350 q 583 1403 533 1403 q 671 1376 635 1403 q 731 1308 707 1350 q 769 1217 756 1265 q 848 958 811 1078 q 919 725 885 838 q 988 500 953 613 q 1059 265 1022 388 q 1139 0 1096 142 l 926 0 q 847 267 883 144 q 776 504 810 390 l 313 504 q 311 286 310 389 q 318 108 313 183 q 331 0 324 32 m 314 525 l 769 525 q 704 742 738 635 q 635 967 671 850 q 557 1217 600 1083 q 538 1254 550 1240 q 501 1268 525 1268 q 435 1225 464 1268 q 385 1108 406 1182 q 349 938 364 1033 q 326 737 335 843 q 314 525 318 631 m 282 1500 q 316 1548 292 1524 q 375 1590 340 1572 q 447 1608 410 1607 q 541 1599 497 1611 q 624 1568 585 1586 q 701 1537 663 1550 q 779 1524 740 1524 q 829 1538 807 1524 q 861 1574 851 1553 l 885 1532 q 848 1492 879 1513 q 779 1472 817 1472 q 701 1485 740 1472 q 624 1516 663 1499 q 541 1546 585 1533 q 447 1557 497 1558 q 360 1527 390 1556 q 314 1464 329 1499 l 282 1500 z "},"Ä":{"ha":1167,"x_min":28,"x_max":1139,"o":"m 28 0 q 108 265 71 142 q 180 500 146 388 q 248 725 214 613 q 319 958 282 838 q 397 1217 356 1078 q 436 1308 413 1265 q 497 1376 460 1350 q 583 1403 533 1403 q 671 1376 635 1403 q 731 1308 707 1350 q 769 1217 756 1265 q 848 958 811 1078 q 919 725 885 838 q 988 500 953 613 q 1059 265 1022 388 q 1139 0 1096 142 l 926 0 q 847 267 883 144 q 776 504 810 390 l 313 504 q 311 286 310 389 q 318 108 313 183 q 331 0 324 32 l 28 0 m 314 525 l 769 525 q 704 742 738 635 q 635 967 671 850 q 557 1217 600 1083 q 538 1254 550 1240 q 501 1268 525 1268 q 435 1225 464 1268 q 385 1108 406 1182 q 349 938 364 1033 q 326 737 335 843 q 314 525 318 631 m 396 1575 q 415 1620 396 1601 q 460 1639 433 1639 q 505 1620 486 1639 q 524 1575 524 1601 q 505 1530 524 1549 q 460 1511 486 1511 q 415 1530 433 1511 q 396 1575 396 1549 m 643 1575 q 662 1620 643 1601 q 707 1639 681 1639 q 752 1620 733 1639 q 771 1575 771 1601 q 752 1530 771 1549 q 707 1511 733 1511 q 662 1530 681 1511 q 643 1575 643 1549 z "},"Å":{"ha":1167,"x_min":28,"x_max":1139,"o":"m 28 0 q 108 265 71 142 q 180 500 146 388 q 248 725 214 613 q 319 958 282 838 q 397 1217 356 1078 q 436 1308 413 1265 q 497 1376 460 1350 q 583 1403 533 1403 q 671 1376 635 1403 q 731 1308 707 1350 q 769 1217 756 1265 q 848 958 811 1078 q 919 725 885 838 q 988 500 953 613 q 1059 265 1022 388 q 1139 0 1096 142 l 926 0 q 847 267 883 144 q 776 504 810 390 l 313 504 q 311 286 310 389 q 318 108 313 183 q 331 0 324 32 l 28 0 m 314 525 l 769 525 q 704 742 738 635 q 635 967 671 850 q 557 1217 600 1083 q 538 1254 550 1240 q 501 1268 525 1268 q 435 1225 464 1268 q 385 1108 406 1182 q 349 938 364 1033 q 326 737 335 843 q 314 525 318 631 m 431 1556 q 475 1664 431 1619 q 583 1708 519 1708 q 692 1664 647 1708 q 736 1556 736 1619 q 692 1447 736 1492 q 583 1403 647 1403 q 475 1447 519 1403 q 431 1556 431 1492 m 583 1688 q 490 1649 529 1688 q 451 1556 451 1611 q 490 1461 451 1500 q 583 1422 529 1422 q 678 1461 639 1422 q 717 1556 717 1500 q 678 1649 717 1611 q 583 1688 639 1688 z "},"Ç":{"ha":1088,"x_min":56,"x_max":1067,"o":"m 56 713 q 99 987 56 861 q 224 1206 142 1113 q 424 1351 307 1300 q 689 1403 542 1403 q 828 1382 761 1403 q 949 1328 896 1361 q 1026 1256 1001 1294 l 890 1093 q 696 1249 808 1190 q 465 1308 583 1308 q 303 1250 371 1308 q 201 1090 236 1192 q 165 854 165 988 q 197 603 165 722 q 290 391 228 483 q 444 245 353 299 q 653 192 535 192 q 799 213 740 192 q 892 262 858 235 q 941 310 926 289 q 956 332 956 332 l 1067 154 q 1042 130 1067 154 q 966 72 1017 106 q 838 14 915 39 q 654 -14 760 -11 l 626 -82 q 675 -68 644 -68 q 714 -76 693 -68 q 750 -102 735 -83 q 765 -154 765 -121 q 743 -222 765 -192 q 688 -270 721 -253 q 621 -287 654 -287 q 571 -271 588 -287 l 581 -244 q 621 -260 594 -260 q 700 -228 665 -260 q 735 -154 735 -197 q 720 -113 735 -131 q 669 -96 706 -96 q 631 -105 647 -96 q 606 -124 614 -114 l 586 -100 l 625 -14 q 377 50 483 -10 q 199 212 271 110 q 92 442 128 314 q 56 713 56 571 z "},"È":{"ha":1065,"x_min":56,"x_max":1035,"o":"m 699 -14 q 458 12 574 -14 q 251 94 342 38 q 108 242 161 150 q 56 467 56 333 q 100 614 56 556 q 220 701 144 672 q 390 731 296 731 q 516 716 460 731 q 621 682 572 701 q 715 648 669 663 q 810 633 761 633 q 852 644 833 633 q 871 678 871 654 q 832 733 871 708 q 733 776 793 757 q 607 810 674 794 q 485 839 540 825 q 341 876 411 857 q 214 924 271 894 q 123 1003 157 954 q 89 1129 89 1053 q 101 1190 89 1154 q 142 1262 113 1225 q 226 1331 172 1299 q 363 1383 279 1363 q 567 1403 447 1403 q 688 1398 621 1403 q 822 1382 754 1393 q 947 1353 890 1371 q 1035 1310 1003 1336 l 978 1101 q 867 1154 938 1131 q 710 1192 797 1178 q 535 1207 624 1207 q 315 1171 383 1207 q 246 1061 246 1135 q 285 967 246 1004 q 390 906 325 931 q 532 862 454 881 q 687 824 610 843 q 828 780 764 806 q 933 715 893 754 q 972 617 972 676 q 947 527 972 565 q 878 467 921 489 q 788 444 836 446 q 644 460 711 442 q 515 505 576 479 q 390 551 453 531 q 260 571 328 571 q 124 540 167 571 q 81 456 81 510 q 132 327 81 379 q 270 244 183 275 q 467 201 357 214 q 693 188 576 188 q 865 202 781 188 q 1021 276 950 217 l 938 35 q 826 -3 882 8 q 699 -14 769 -14 m 779 1458 q 674 1464 736 1453 q 543 1497 611 1475 q 417 1547 475 1519 q 326 1599 360 1574 l 360 1650 q 410 1609 374 1633 q 497 1558 447 1585 q 601 1510 547 1532 q 701 1475 654 1488 q 779 1465 749 1463 l 779 1458 z "},"É":{"ha":1065,"x_min":56,"x_max":1035,"o":"m 699 -14 q 458 12 574 -14 q 251 94 342 38 q 108 242 161 150 q 56 467 56 333 q 100 614 56 556 q 220 701 144 672 q 390 731 296 731 q 516 716 460 731 q 621 682 572 701 q 715 648 669 663 q 810 633 761 633 q 852 644 833 633 q 871 678 871 654 q 832 733 871 708 q 733 776 793 757 q 607 810 674 794 q 485 839 540 825 q 341 876 411 857 q 214 924 271 894 q 123 1003 157 954 q 89 1129 89 1053 q 101 1190 89 1154 q 142 1262 113 1225 q 226 1331 172 1299 q 363 1383 279 1363 q 567 1403 447 1403 q 688 1398 621 1403 q 822 1382 754 1393 q 947 1353 890 1371 q 1035 1310 1003 1336 l 978 1101 q 867 1154 938 1131 q 710 1192 797 1178 q 535 1207 624 1207 q 315 1171 383 1207 q 246 1061 246 1135 q 285 967 246 1004 q 390 906 325 931 q 532 862 454 881 q 687 824 610 843 q 828 780 764 806 q 933 715 893 754 q 972 617 972 676 q 947 527 972 565 q 878 467 921 489 q 788 444 836 446 q 644 460 711 442 q 515 505 576 479 q 390 551 453 531 q 260 571 328 571 q 124 540 167 571 q 81 456 81 510 q 132 327 81 379 q 270 244 183 275 q 467 201 357 214 q 693 188 576 188 q 865 202 781 188 q 1021 276 950 217 l 938 35 q 826 -3 882 8 q 699 -14 769 -14 m 340 1465 q 418 1475 371 1463 q 519 1510 465 1488 q 622 1558 572 1532 q 709 1609 672 1585 q 760 1650 746 1633 l 793 1599 q 702 1547 760 1574 q 576 1497 644 1519 q 446 1464 508 1475 q 340 1458 383 1453 l 340 1465 z "},"Ê":{"ha":1065,"x_min":56,"x_max":1035,"o":"m 56 467 q 100 614 56 556 q 220 701 144 672 q 390 731 296 731 q 516 716 460 731 q 621 682 572 701 q 715 648 669 663 q 810 633 761 633 q 852 644 833 633 q 871 678 871 654 q 832 733 871 708 q 733 776 793 757 q 607 810 674 794 q 485 839 540 825 q 341 876 411 857 q 214 924 271 894 q 123 1003 157 954 q 89 1129 89 1053 q 101 1190 89 1154 q 142 1262 113 1225 q 226 1331 172 1299 q 363 1383 279 1363 q 567 1403 447 1403 q 688 1398 621 1403 q 822 1382 754 1393 q 947 1353 890 1371 q 1035 1310 1003 1336 l 978 1101 q 867 1154 938 1131 q 710 1192 797 1178 q 535 1207 624 1207 q 315 1171 383 1207 q 246 1061 246 1135 q 285 967 246 1004 q 390 906 325 931 q 532 862 454 881 q 687 824 610 843 q 828 780 764 806 q 933 715 893 754 q 972 617 972 676 q 947 527 972 565 q 878 467 921 489 q 788 444 836 446 q 644 460 711 442 q 515 505 576 479 q 390 551 453 531 q 260 571 328 571 q 124 540 167 571 q 81 456 81 510 q 132 327 81 379 q 270 244 183 275 q 467 201 357 214 q 693 188 576 188 q 865 202 781 188 q 1021 276 950 217 l 938 35 q 826 -3 882 8 q 699 -14 769 -14 q 458 12 574 -14 q 251 94 342 38 q 108 242 161 150 q 56 467 56 333 m 258 1504 l 567 1661 l 875 1504 l 854 1458 l 567 1604 l 279 1458 l 258 1504 z "},"Ë":{"ha":1065,"x_min":56,"x_max":1035,"o":"m 56 467 q 100 614 56 556 q 220 701 144 672 q 390 731 296 731 q 516 716 460 731 q 621 682 572 701 q 715 648 669 663 q 810 633 761 633 q 852 644 833 633 q 871 678 871 654 q 832 733 871 708 q 733 776 793 757 q 607 810 674 794 q 485 839 540 825 q 341 876 411 857 q 214 924 271 894 q 123 1003 157 954 q 89 1129 89 1053 q 101 1190 89 1154 q 142 1262 113 1225 q 226 1331 172 1299 q 363 1383 279 1363 q 567 1403 447 1403 q 688 1398 621 1403 q 822 1382 754 1393 q 947 1353 890 1371 q 1035 1310 1003 1336 l 978 1101 q 867 1154 938 1131 q 710 1192 797 1178 q 535 1207 624 1207 q 315 1171 383 1207 q 246 1061 246 1135 q 285 967 246 1004 q 390 906 325 931 q 532 862 454 881 q 687 824 610 843 q 828 780 764 806 q 933 715 893 754 q 972 617 972 676 q 947 527 972 565 q 878 467 921 489 q 788 444 836 446 q 644 460 711 442 q 515 505 576 479 q 390 551 453 531 q 260 571 328 571 q 124 540 167 571 q 81 456 81 510 q 132 327 81 379 q 270 244 183 275 q 467 201 357 214 q 693 188 576 188 q 865 202 781 188 q 1021 276 950 217 l 938 35 q 826 -3 882 8 q 699 -14 769 -14 q 458 12 574 -14 q 251 94 342 38 q 108 242 161 150 q 56 467 56 333 m 379 1561 q 398 1606 379 1588 q 443 1625 417 1625 q 488 1606 469 1625 q 507 1561 507 1588 q 488 1516 507 1535 q 443 1497 469 1497 q 398 1516 417 1497 q 379 1561 379 1535 m 626 1561 q 646 1606 626 1588 q 692 1625 665 1625 q 735 1606 717 1625 q 754 1561 754 1588 q 735 1516 754 1535 q 692 1497 717 1497 q 646 1516 665 1497 q 626 1561 626 1535 z "},"Ì":{"ha":396,"x_min":-43,"x_max":410,"o":"m 97 1389 l 299 1389 l 299 0 l 97 0 l 97 1389 m -43 1599 l -10 1650 q 41 1609 4 1633 q 128 1558 78 1585 q 231 1510 178 1532 q 332 1475 285 1488 q 410 1465 379 1463 l 410 1458 q 304 1464 367 1453 q 174 1497 242 1475 q 48 1547 106 1519 q -43 1599 -10 1574 z "},"Í":{"ha":396,"x_min":-29,"x_max":425,"o":"m 97 0 l 97 1389 l 299 1389 l 299 0 l 97 0 m 425 1599 q 334 1547 392 1574 q 208 1497 276 1519 q 77 1464 140 1475 q -29 1458 14 1453 l -29 1465 q 49 1475 1 1463 q 149 1510 96 1488 q 253 1558 203 1532 q 341 1609 304 1585 q 392 1650 378 1633 l 425 1599 z "},"Î":{"ha":396,"x_min":-111,"x_max":507,"o":"m 97 0 l 97 1389 l 299 1389 l 299 0 l 97 0 m -111 1504 l 199 1661 l 507 1504 l 486 1458 l 197 1604 l -90 1458 l -111 1504 z "},"Ï":{"ha":396,"x_min":10,"x_max":386,"o":"m 97 1389 l 299 1389 l 299 0 l 97 0 l 97 1389 m 258 1561 q 277 1606 258 1588 q 322 1625 296 1625 q 367 1606 349 1625 q 386 1561 386 1588 q 367 1516 386 1535 q 322 1497 349 1497 q 277 1516 296 1497 q 258 1561 258 1535 m 10 1561 q 29 1606 10 1588 q 75 1625 49 1625 q 119 1606 101 1625 q 138 1561 138 1588 q 119 1516 138 1535 q 75 1497 101 1497 q 29 1516 49 1497 q 10 1561 10 1535 z "},"Ð":{"ha":1144,"x_min":28,"x_max":1089,"o":"m 97 694 l 28 694 l 28 736 l 97 736 l 97 1389 l 436 1389 q 699 1349 589 1389 q 885 1241 810 1310 q 1005 1083 960 1172 q 1069 895 1050 994 q 1089 694 1089 796 q 1069 494 1089 593 q 1005 306 1050 394 q 885 148 960 217 q 699 40 810 79 q 436 0 589 0 l 97 0 l 97 694 m 625 694 l 299 694 l 299 21 l 393 21 q 607 64 519 21 q 750 178 694 107 q 835 339 806 250 q 876 520 865 428 q 888 694 888 613 q 876 869 888 776 q 835 1050 865 961 q 750 1210 806 1139 q 607 1325 694 1282 q 393 1368 519 1368 l 299 1368 l 299 736 l 625 736 l 625 694 z "},"Ñ":{"ha":1174,"x_min":97,"x_max":1076,"o":"m 386 0 l 97 0 l 97 1389 q 127 1399 108 1396 q 160 1403 146 1403 q 267 1376 222 1403 q 351 1293 313 1349 q 431 1153 389 1238 q 528 953 474 1068 q 661 694 583 839 q 836 394 765 501 q 951 238 907 286 q 1010 188 989 197 q 1042 182 1032 178 q 1051 186 1051 186 q 1022 659 1051 446 q 935 1051 993 872 q 788 1389 876 1231 l 1076 1389 l 1076 0 q 1047 -10 1065 -6 q 1014 -14 1029 -14 q 884 35 950 -14 q 751 168 818 83 q 617 362 683 253 q 488 593 551 471 q 326 908 388 783 q 235 1090 265 1032 q 184 1173 206 1146 q 149 1208 163 1200 q 129 1215 136 1217 q 122 1214 122 1214 q 151 733 122 949 q 240 338 181 518 q 386 0 299 158 m 268 1486 q 302 1534 278 1510 q 361 1576 326 1558 q 433 1594 396 1593 q 527 1585 483 1597 q 610 1554 571 1572 q 688 1523 649 1536 q 765 1510 726 1510 q 815 1524 793 1510 q 847 1560 838 1539 l 871 1518 q 834 1478 865 1499 q 765 1458 803 1458 q 688 1472 726 1458 q 610 1502 649 1485 q 527 1532 571 1519 q 433 1543 483 1544 q 346 1513 376 1542 q 300 1450 315 1485 l 268 1486 z "},"Ò":{"ha":1208,"x_min":56,"x_max":1153,"o":"m 604 -14 q 315 75 439 -14 q 124 323 192 164 q 56 694 56 482 q 124 1066 56 907 q 315 1314 192 1225 q 604 1403 439 1403 q 828 1352 728 1403 q 1002 1208 929 1301 q 1114 984 1075 1114 q 1153 694 1153 854 q 1114 405 1153 535 q 1002 181 1075 275 q 828 37 929 88 q 604 -14 728 -14 m 272 696 q 313 334 272 489 q 429 93 354 179 q 603 7 504 7 q 778 93 703 7 q 894 334 853 179 q 936 696 936 489 q 894 1057 936 903 q 778 1297 853 1211 q 603 1383 703 1383 q 429 1297 504 1383 q 313 1057 354 1211 q 272 696 272 903 m 817 1472 q 711 1478 774 1467 q 581 1511 649 1489 q 455 1560 513 1533 q 364 1613 397 1588 l 397 1664 q 448 1623 411 1647 q 535 1572 485 1599 q 638 1524 585 1546 q 739 1489 692 1501 q 817 1479 786 1476 l 817 1472 z "},"Ó":{"ha":1208,"x_min":56,"x_max":1153,"o":"m 56 694 q 124 1066 56 907 q 315 1314 192 1225 q 604 1403 439 1403 q 828 1352 728 1403 q 1002 1208 929 1301 q 1114 984 1075 1114 q 1153 694 1153 854 q 1114 405 1153 535 q 1002 181 1075 275 q 828 37 929 88 q 604 -14 728 -14 q 315 75 439 -14 q 124 323 192 164 q 56 694 56 482 m 272 696 q 313 334 272 489 q 429 93 354 179 q 603 7 504 7 q 778 93 703 7 q 894 334 853 179 q 936 696 936 489 q 894 1057 936 903 q 778 1297 853 1211 q 603 1383 703 1383 q 429 1297 504 1383 q 313 1057 354 1211 q 272 696 272 903 m 378 1472 l 378 1479 q 456 1489 408 1476 q 556 1524 503 1501 q 660 1572 610 1546 q 747 1623 710 1599 q 797 1664 783 1647 l 831 1613 q 740 1560 797 1588 q 614 1511 682 1533 q 483 1478 546 1489 q 378 1472 421 1467 z "},"Ô":{"ha":1208,"x_min":56,"x_max":1153,"o":"m 604 -14 q 315 75 439 -14 q 124 323 192 164 q 56 694 56 482 q 124 1066 56 907 q 315 1314 192 1225 q 604 1403 439 1403 q 828 1352 728 1403 q 1002 1208 929 1301 q 1114 984 1075 1114 q 1153 694 1153 854 q 1114 405 1153 535 q 1002 181 1075 275 q 828 37 929 88 q 604 -14 728 -14 m 272 696 q 313 334 272 489 q 429 93 354 179 q 603 7 504 7 q 778 93 703 7 q 894 334 853 179 q 936 696 936 489 q 894 1057 936 903 q 778 1297 853 1211 q 603 1383 703 1383 q 429 1297 504 1383 q 313 1057 354 1211 q 272 696 272 903 m 317 1472 l 296 1518 l 604 1675 l 913 1518 l 892 1472 l 604 1618 l 317 1472 z "},"Õ":{"ha":1208,"x_min":56,"x_max":1153,"o":"m 604 -14 q 315 75 439 -14 q 124 323 192 164 q 56 694 56 482 q 124 1066 56 907 q 315 1314 192 1225 q 604 1403 439 1403 q 828 1352 728 1403 q 1002 1208 929 1301 q 1114 984 1075 1114 q 1153 694 1153 854 q 1114 405 1153 535 q 1002 181 1075 275 q 828 37 929 88 q 604 -14 728 -14 m 272 696 q 313 334 272 489 q 429 93 354 179 q 603 7 504 7 q 778 93 703 7 q 894 334 853 179 q 936 696 936 489 q 894 1057 936 903 q 778 1297 853 1211 q 603 1383 703 1383 q 429 1297 504 1383 q 313 1057 354 1211 q 272 696 272 903 m 335 1464 l 303 1500 q 337 1548 313 1524 q 396 1590 361 1572 q 468 1608 431 1607 q 562 1599 518 1611 q 644 1568 606 1586 q 722 1537 683 1550 q 800 1524 761 1524 q 850 1538 828 1524 q 882 1574 872 1553 l 906 1532 q 869 1492 900 1513 q 800 1472 838 1472 q 722 1485 761 1472 q 644 1516 683 1499 q 562 1546 606 1533 q 468 1557 518 1558 q 381 1527 411 1556 q 335 1464 350 1499 z "},"Ö":{"ha":1208,"x_min":56,"x_max":1153,"o":"m 604 -14 q 315 75 439 -14 q 124 323 192 164 q 56 694 56 482 q 124 1066 56 907 q 315 1314 192 1225 q 604 1403 439 1403 q 828 1352 728 1403 q 1002 1208 929 1301 q 1114 984 1075 1114 q 1153 694 1153 854 q 1114 405 1153 535 q 1002 181 1075 275 q 828 37 929 88 q 604 -14 728 -14 m 272 696 q 313 334 272 489 q 429 93 354 179 q 603 7 504 7 q 778 93 703 7 q 894 334 853 179 q 936 696 936 489 q 894 1057 936 903 q 778 1297 853 1211 q 603 1383 703 1383 q 429 1297 504 1383 q 313 1057 354 1211 q 272 696 272 903 m 417 1575 q 435 1620 417 1601 q 481 1639 454 1639 q 526 1620 507 1639 q 544 1575 544 1601 q 526 1530 544 1549 q 481 1511 507 1511 q 435 1530 454 1511 q 417 1575 417 1549 m 728 1511 q 683 1530 701 1511 q 664 1575 664 1549 q 683 1620 664 1601 q 728 1639 701 1639 q 773 1620 754 1639 q 792 1575 792 1601 q 773 1530 792 1549 q 728 1511 754 1511 z "},"Ø":{"ha":1208,"x_min":56,"x_max":1153,"o":"m 324 69 q 126 317 197 156 q 56 694 56 479 q 124 1066 56 907 q 315 1314 192 1225 q 604 1403 439 1403 q 738 1385 675 1403 q 857 1336 801 1368 l 886 1403 l 921 1403 l 885 1319 q 1082 1072 1011 1235 q 1153 694 1153 910 q 1114 405 1153 535 q 1002 181 1075 275 q 828 37 929 88 q 604 -14 728 -14 q 470 3 533 -14 q 350 53 407 21 l 322 -14 l 289 -14 l 324 69 m 272 696 q 298 403 272 535 q 371 181 324 272 l 818 1243 q 722 1347 776 1311 q 603 1383 668 1383 q 429 1297 504 1383 q 313 1057 354 1211 q 272 696 272 903 m 390 146 q 485 43 432 79 q 603 7 539 7 q 778 93 703 7 q 894 334 853 179 q 936 696 936 489 q 910 987 936 857 q 838 1207 885 1117 l 390 146 z "},"Ù":{"ha":1161,"x_min":97,"x_max":1078,"o":"m 435 -14 q 249 31 325 -14 q 135 148 174 75 q 97 306 97 221 l 97 1389 l 386 1389 q 295 1173 336 1289 q 222 938 254 1057 q 168 710 190 819 q 134 515 146 601 q 122 381 122 429 q 165 251 122 297 q 293 185 208 204 q 503 167 378 167 q 639 169 572 167 q 760 185 706 172 q 846 226 814 197 q 878 307 878 254 l 876 1389 l 1078 1389 l 1078 839 q 1061 660 1078 756 q 1010 469 1044 565 q 922 287 975 374 q 798 133 869 200 q 636 26 726 65 q 435 -14 546 -14 m 349 1599 l 382 1650 q 433 1609 396 1633 q 519 1558 469 1585 q 623 1510 569 1532 q 724 1475 676 1488 q 801 1465 771 1463 l 801 1458 q 696 1464 758 1453 q 565 1497 633 1475 q 440 1547 497 1519 q 349 1599 382 1574 z "},"Ú":{"ha":1161,"x_min":97,"x_max":1078,"o":"m 97 1389 l 386 1389 q 295 1173 336 1289 q 222 938 254 1057 q 168 710 190 819 q 134 515 146 601 q 122 381 122 429 q 165 251 122 297 q 293 185 208 204 q 503 167 378 167 q 639 169 572 167 q 760 185 706 172 q 846 226 814 197 q 878 307 878 254 l 876 1389 l 1078 1389 l 1078 839 q 1061 660 1078 756 q 1010 469 1044 565 q 922 287 975 374 q 798 133 869 200 q 636 26 726 65 q 435 -14 546 -14 q 249 31 325 -14 q 135 148 174 75 q 97 306 97 221 l 97 1389 m 363 1458 l 363 1465 q 440 1475 393 1463 q 541 1510 488 1488 q 644 1558 594 1532 q 731 1609 694 1585 q 782 1650 768 1633 l 815 1599 q 724 1547 782 1574 q 599 1497 667 1519 q 468 1464 531 1475 q 363 1458 406 1453 z "},"Û":{"ha":1161,"x_min":97,"x_max":1078,"o":"m 97 306 l 97 1389 l 386 1389 q 295 1173 336 1289 q 222 938 254 1057 q 168 710 190 819 q 134 515 146 601 q 122 381 122 429 q 165 251 122 297 q 293 185 208 204 q 503 167 378 167 q 639 169 572 167 q 760 185 706 172 q 846 226 814 197 q 878 307 878 254 l 876 1389 l 1078 1389 l 1078 839 q 1061 660 1078 756 q 1010 469 1044 565 q 922 287 975 374 q 798 133 869 200 q 636 26 726 65 q 435 -14 546 -14 q 249 31 325 -14 q 135 148 174 75 q 97 306 97 221 m 301 1458 l 281 1504 l 589 1661 l 897 1504 l 876 1458 l 589 1604 l 301 1458 z "},"Ü":{"ha":1161,"x_min":97,"x_max":1078,"o":"m 97 1389 l 386 1389 q 295 1173 336 1289 q 222 938 254 1057 q 168 710 190 819 q 134 515 146 601 q 122 381 122 429 q 165 251 122 297 q 293 185 208 204 q 503 167 378 167 q 639 169 572 167 q 760 185 706 172 q 846 226 814 197 q 878 307 878 254 l 876 1389 l 1078 1389 l 1078 839 q 1061 660 1078 756 q 1010 469 1044 565 q 922 287 975 374 q 798 133 869 200 q 636 26 726 65 q 435 -14 546 -14 q 249 31 325 -14 q 135 148 174 75 q 97 306 97 221 l 97 1389 m 649 1561 q 668 1606 649 1588 q 714 1625 688 1625 q 758 1606 740 1625 q 776 1561 776 1588 q 758 1516 776 1535 q 714 1497 740 1497 q 668 1516 688 1497 q 649 1561 649 1535 m 401 1561 q 420 1606 401 1588 q 465 1625 439 1625 q 510 1606 492 1625 q 529 1561 529 1588 q 510 1516 529 1535 q 465 1497 492 1497 q 420 1516 439 1497 q 401 1561 401 1535 z "},"Ý":{"ha":1150,"x_min":28,"x_max":1122,"o":"m 371 632 q 283 828 324 738 q 202 1005 242 918 q 120 1185 163 1092 q 28 1389 78 1278 l 236 1389 q 338 1166 292 1267 q 427 971 383 1065 q 517 772 471 876 q 563 673 544 708 q 597 623 581 638 q 633 608 613 608 q 659 616 646 608 q 691 652 672 624 q 736 742 710 681 q 765 823 749 769 q 797 942 781 876 q 823 1074 813 1008 q 833 1190 833 1140 q 806 1317 833 1264 q 715 1382 779 1371 l 715 1389 l 1122 1389 l 1122 1382 q 1053 1334 1088 1374 q 986 1238 1018 1294 q 927 1119 954 1181 q 878 1004 900 1057 q 844 922 857 951 q 766 739 807 835 q 696 542 725 643 q 667 335 667 440 q 688 172 667 263 q 769 0 710 81 l 428 0 l 665 569 q 611 524 646 546 q 515 501 576 501 q 432 541 469 501 q 371 632 394 581 m 747 1599 q 656 1547 714 1574 q 531 1497 599 1519 q 400 1464 463 1475 q 294 1458 338 1453 l 294 1465 q 372 1475 325 1463 q 473 1510 419 1488 q 576 1558 526 1532 q 663 1609 626 1585 q 714 1650 700 1633 l 747 1599 z "},"à":{"ha":939,"x_min":42,"x_max":911,"o":"m 42 186 q 72 310 42 251 q 155 422 103 369 q 272 520 207 475 q 406 603 338 565 q 269 650 338 632 q 142 678 200 668 q 49 689 85 688 q 129 836 69 776 q 268 927 189 896 q 426 958 347 958 q 591 928 531 958 q 685 844 651 897 q 736 723 718 790 q 772 581 754 656 q 817 393 797 482 q 860 210 838 304 q 911 0 883 117 l 707 0 l 707 294 q 681 194 707 247 q 606 93 656 140 q 481 16 556 46 q 311 -14 407 -14 q 184 9 246 -14 q 82 77 122 32 q 42 186 42 122 m 686 294 q 656 412 686 360 q 576 506 626 464 q 463 578 525 547 q 350 475 401 532 q 268 353 299 418 q 238 217 238 289 q 265 126 238 165 q 338 65 292 88 q 442 42 385 42 q 536 68 492 42 q 615 135 581 94 q 667 218 649 175 q 686 294 686 261 m 435 619 q 586 688 514 660 q 706 729 658 715 q 647 856 700 815 q 525 897 594 897 q 410 877 460 897 q 326 827 360 857 q 274 767 292 797 q 257 715 257 736 q 262 692 257 706 q 285 672 267 678 q 435 619 365 649 m 707 706 q 599 662 657 690 q 486 594 542 633 q 646 470 585 543 q 707 294 707 397 l 707 706 m 639 1028 q 533 1033 596 1022 q 403 1067 471 1044 q 277 1116 335 1089 q 186 1168 219 1143 l 219 1219 q 270 1178 233 1203 q 357 1128 307 1154 q 460 1079 407 1101 q 561 1044 514 1057 q 639 1035 608 1032 l 639 1028 z "},"á":{"ha":939,"x_min":42,"x_max":911,"o":"m 42 186 q 72 310 42 251 q 155 422 103 369 q 272 520 207 475 q 406 603 338 565 q 269 650 338 632 q 142 678 200 668 q 49 689 85 688 q 129 836 69 776 q 268 927 189 896 q 426 958 347 958 q 591 928 531 958 q 685 844 651 897 q 736 723 718 790 q 772 581 754 656 q 817 393 797 482 q 860 210 838 304 q 911 0 883 117 l 707 0 l 707 294 q 681 194 707 247 q 606 93 656 140 q 481 16 556 46 q 311 -14 407 -14 q 184 9 246 -14 q 82 77 122 32 q 42 186 42 122 m 686 294 q 656 412 686 360 q 576 506 626 464 q 463 578 525 547 q 350 475 401 532 q 268 353 299 418 q 238 217 238 289 q 265 126 238 165 q 338 65 292 88 q 442 42 385 42 q 536 68 492 42 q 615 135 581 94 q 667 218 649 175 q 686 294 686 261 m 435 619 q 586 688 514 660 q 706 729 658 715 q 647 856 700 815 q 525 897 594 897 q 410 877 460 897 q 326 827 360 857 q 274 767 292 797 q 257 715 257 736 q 262 692 257 706 q 285 672 267 678 q 435 619 365 649 m 707 706 q 599 662 657 690 q 486 594 542 633 q 646 470 585 543 q 707 294 707 397 l 707 706 m 653 1168 q 562 1116 619 1143 q 436 1067 504 1089 q 306 1033 368 1044 q 200 1028 243 1022 l 200 1035 q 278 1044 231 1032 q 378 1079 325 1057 q 482 1128 432 1101 q 569 1178 532 1154 q 619 1219 606 1203 l 653 1168 z "},"â":{"ha":939,"x_min":42,"x_max":911,"o":"m 42 186 q 72 310 42 251 q 155 422 103 369 q 272 520 207 475 q 406 603 338 565 q 269 650 338 632 q 142 678 200 668 q 49 689 85 688 q 129 836 69 776 q 268 927 189 896 q 426 958 347 958 q 591 928 531 958 q 685 844 651 897 q 736 723 718 790 q 772 581 754 656 q 817 393 797 482 q 860 210 838 304 q 911 0 883 117 l 707 0 l 707 294 q 681 194 707 247 q 606 93 656 140 q 481 16 556 46 q 311 -14 407 -14 q 184 9 246 -14 q 82 77 122 32 q 42 186 42 122 m 686 294 q 656 412 686 360 q 576 506 626 464 q 463 578 525 547 q 350 475 401 532 q 268 353 299 418 q 238 217 238 289 q 265 126 238 165 q 338 65 292 88 q 442 42 385 42 q 536 68 492 42 q 615 135 581 94 q 667 218 649 175 q 686 294 686 261 m 435 619 q 586 688 514 660 q 706 729 658 715 q 647 856 700 815 q 525 897 594 897 q 410 877 460 897 q 326 827 360 857 q 274 767 292 797 q 257 715 257 736 q 262 692 257 706 q 285 672 267 678 q 435 619 365 649 m 139 1028 l 118 1074 l 426 1231 l 735 1074 l 714 1028 l 426 1174 l 139 1028 m 707 706 q 599 662 657 690 q 486 594 542 633 q 646 470 585 543 q 707 294 707 397 l 707 706 z "},"ã":{"ha":939,"x_min":42,"x_max":911,"o":"m 42 186 q 72 310 42 251 q 155 422 103 369 q 272 520 207 475 q 406 603 338 565 q 269 650 338 632 q 142 678 200 668 q 49 689 85 688 q 129 836 69 776 q 268 927 189 896 q 426 958 347 958 q 591 928 531 958 q 685 844 651 897 q 736 723 718 790 q 772 581 754 656 q 817 393 797 482 q 860 210 838 304 q 911 0 883 117 l 707 0 l 707 294 q 681 194 707 247 q 606 93 656 140 q 481 16 556 46 q 311 -14 407 -14 q 184 9 246 -14 q 82 77 122 32 q 42 186 42 122 m 686 294 q 656 412 686 360 q 576 506 626 464 q 463 578 525 547 q 350 475 401 532 q 268 353 299 418 q 238 217 238 289 q 265 126 238 165 q 338 65 292 88 q 442 42 385 42 q 536 68 492 42 q 615 135 581 94 q 667 218 649 175 q 686 294 686 261 m 435 619 q 586 688 514 660 q 706 729 658 715 q 647 856 700 815 q 525 897 594 897 q 410 877 460 897 q 326 827 360 857 q 274 767 292 797 q 257 715 257 736 q 262 692 257 706 q 285 672 267 678 q 435 619 365 649 m 157 1019 l 125 1056 q 159 1103 135 1079 q 218 1145 183 1128 q 290 1164 253 1163 q 384 1154 340 1167 q 467 1124 428 1142 q 544 1092 506 1106 q 622 1079 583 1079 q 672 1094 650 1079 q 704 1129 694 1108 l 728 1088 q 691 1048 722 1068 q 622 1028 660 1028 q 544 1041 583 1028 q 467 1072 506 1054 q 384 1101 428 1089 q 290 1113 340 1114 q 203 1083 233 1111 q 157 1019 172 1054 m 707 706 q 599 662 657 690 q 486 594 542 633 q 646 470 585 543 q 707 294 707 397 l 707 706 z "},"ä":{"ha":939,"x_min":42,"x_max":911,"o":"m 42 186 q 72 310 42 251 q 155 422 103 369 q 272 520 207 475 q 406 603 338 565 q 269 650 338 632 q 142 678 200 668 q 49 689 85 688 q 129 836 69 776 q 268 927 189 896 q 426 958 347 958 q 591 928 531 958 q 685 844 651 897 q 736 723 718 790 q 772 581 754 656 q 817 393 797 482 q 860 210 838 304 q 911 0 883 117 l 707 0 l 707 294 q 681 194 707 247 q 606 93 656 140 q 481 16 556 46 q 311 -14 407 -14 q 184 9 246 -14 q 82 77 122 32 q 42 186 42 122 m 686 294 q 656 412 686 360 q 576 506 626 464 q 463 578 525 547 q 350 475 401 532 q 268 353 299 418 q 238 217 238 289 q 265 126 238 165 q 338 65 292 88 q 442 42 385 42 q 536 68 492 42 q 615 135 581 94 q 667 218 649 175 q 686 294 686 261 m 435 619 q 586 688 514 660 q 706 729 658 715 q 647 856 700 815 q 525 897 594 897 q 410 877 460 897 q 326 827 360 857 q 274 767 292 797 q 257 715 257 736 q 262 692 257 706 q 285 672 267 678 q 435 619 365 649 m 707 706 q 599 662 657 690 q 486 594 542 633 q 646 470 585 543 q 707 294 707 397 l 707 706 m 303 1067 q 258 1085 276 1067 q 239 1131 239 1104 q 258 1176 239 1157 q 303 1194 276 1194 q 348 1176 329 1194 q 367 1131 367 1157 q 348 1085 367 1104 q 303 1067 329 1067 m 550 1067 q 505 1085 524 1067 q 486 1131 486 1104 q 505 1176 486 1157 q 550 1194 524 1194 q 595 1176 576 1194 q 614 1131 614 1157 q 595 1085 614 1104 q 550 1067 576 1067 z "},"å":{"ha":939,"x_min":42,"x_max":911,"o":"m 42 186 q 72 310 42 251 q 155 422 103 369 q 272 520 207 475 q 406 603 338 565 q 269 650 338 632 q 142 678 200 668 q 49 689 85 688 q 129 836 69 776 q 268 927 189 896 q 426 958 347 958 q 591 928 531 958 q 685 844 651 897 q 736 723 718 790 q 772 581 754 656 q 817 393 797 482 q 860 210 838 304 q 911 0 883 117 l 707 0 l 707 294 q 681 194 707 247 q 606 93 656 140 q 481 16 556 46 q 311 -14 407 -14 q 184 9 246 -14 q 82 77 122 32 q 42 186 42 122 m 686 294 q 656 412 686 360 q 576 506 626 464 q 463 578 525 547 q 350 475 401 532 q 268 353 299 418 q 238 217 238 289 q 265 126 238 165 q 338 65 292 88 q 442 42 385 42 q 536 68 492 42 q 615 135 581 94 q 667 218 649 175 q 686 294 686 261 m 435 619 q 586 688 514 660 q 706 729 658 715 q 647 856 700 815 q 525 897 594 897 q 410 877 460 897 q 326 827 360 857 q 274 767 292 797 q 257 715 257 736 q 262 692 257 706 q 285 672 267 678 q 435 619 365 649 m 274 1111 q 318 1219 274 1175 q 426 1264 363 1264 q 535 1219 490 1264 q 579 1111 579 1175 q 558 1035 579 1069 q 503 979 538 1000 q 426 958 469 958 q 350 979 385 958 q 294 1035 315 1000 q 274 1111 274 1069 m 426 1244 q 333 1206 372 1244 q 294 1111 294 1167 q 333 1017 294 1056 q 426 979 372 979 q 521 1017 482 979 q 560 1111 560 1056 q 521 1206 560 1167 q 426 1244 482 1244 m 707 706 q 599 662 657 690 q 486 594 542 633 q 646 470 585 543 q 707 294 707 397 l 707 706 z "},"ç":{"ha":928,"x_min":69,"x_max":900,"o":"m 525 -14 q 348 26 431 -11 q 203 125 265 63 q 105 271 140 188 q 69 451 69 354 q 99 635 69 547 q 183 793 128 724 q 317 903 238 863 q 497 944 396 944 q 738 883 638 944 q 900 686 839 822 l 729 596 q 656 744 699 674 q 554 860 614 815 q 410 904 494 904 q 292 865 339 904 q 222 763 246 825 q 199 635 199 701 q 248 401 199 507 q 388 231 297 294 q 606 168 479 168 q 755 199 683 168 q 867 282 826 231 l 874 282 l 794 36 q 681 -1 743 10 q 554 -14 618 -12 l 526 -82 q 575 -68 544 -68 q 614 -76 593 -68 q 650 -102 635 -83 q 665 -154 665 -121 q 643 -222 665 -192 q 588 -270 621 -253 q 521 -287 554 -287 q 471 -271 488 -287 l 481 -244 q 521 -260 494 -260 q 600 -228 565 -260 q 635 -154 635 -197 q 620 -113 635 -131 q 569 -96 606 -96 q 531 -105 547 -96 q 506 -124 514 -114 l 486 -100 l 525 -14 z "},"è":{"ha":901,"x_min":69,"x_max":874,"o":"m 540 -14 q 358 22 443 -14 q 208 122 274 57 q 106 272 143 186 q 69 458 69 358 q 95 645 69 556 q 175 806 121 735 q 315 917 229 876 q 522 958 401 958 q 701 923 625 958 q 820 831 778 888 q 863 711 863 775 q 830 610 863 649 q 744 545 797 572 q 633 490 692 518 q 501 425 567 458 q 383 364 436 392 q 300 319 331 336 q 431 211 353 251 q 606 171 508 171 q 755 203 683 171 q 867 286 826 235 l 874 286 l 794 38 q 673 -2 739 10 q 540 -14 607 -14 m 419 918 q 294 878 343 918 q 222 775 244 838 q 199 644 199 713 q 289 335 199 464 q 359 377 314 349 q 456 444 404 406 q 554 526 507 482 q 631 618 601 571 q 661 711 661 665 q 651 774 661 739 q 614 842 640 810 q 540 897 588 875 q 419 918 493 918 m 710 1028 q 604 1033 667 1022 q 474 1067 542 1044 q 348 1116 406 1089 q 257 1168 290 1143 l 290 1219 q 341 1178 304 1203 q 428 1128 378 1154 q 531 1079 478 1101 q 632 1044 585 1057 q 710 1035 679 1032 l 710 1028 z "},"é":{"ha":901,"x_min":69,"x_max":874,"o":"m 69 458 q 95 645 69 556 q 175 806 121 735 q 315 917 229 876 q 522 958 401 958 q 701 923 625 958 q 820 831 778 888 q 863 711 863 775 q 830 610 863 649 q 744 545 797 572 q 633 490 692 518 q 501 425 567 458 q 383 364 436 392 q 300 319 331 336 q 431 211 353 251 q 606 171 508 171 q 755 203 683 171 q 867 286 826 235 l 874 286 l 794 38 q 673 -2 739 10 q 540 -14 607 -14 q 358 22 443 -14 q 208 122 274 57 q 106 272 143 186 q 69 458 69 358 m 199 644 q 289 335 199 464 q 359 377 314 349 q 456 444 404 406 q 554 526 507 482 q 631 618 601 571 q 661 711 661 665 q 651 774 661 739 q 614 842 640 810 q 540 897 588 875 q 419 918 493 918 q 294 878 343 918 q 222 775 244 838 q 199 644 199 713 m 724 1168 q 633 1116 690 1143 q 507 1067 575 1089 q 376 1033 439 1044 q 271 1028 314 1022 l 271 1035 q 349 1044 301 1032 q 449 1079 396 1057 q 553 1128 503 1101 q 640 1178 603 1154 q 690 1219 676 1203 l 724 1168 z "},"ê":{"ha":901,"x_min":69,"x_max":874,"o":"m 540 -14 q 358 22 443 -14 q 208 122 274 57 q 106 272 143 186 q 69 458 69 358 q 95 645 69 556 q 175 806 121 735 q 315 917 229 876 q 522 958 401 958 q 701 923 625 958 q 820 831 778 888 q 863 711 863 775 q 830 610 863 649 q 744 545 797 572 q 633 490 692 518 q 501 425 567 458 q 383 364 436 392 q 300 319 331 336 q 431 211 353 251 q 606 171 508 171 q 755 203 683 171 q 867 286 826 235 l 874 286 l 794 38 q 673 -2 739 10 q 540 -14 607 -14 m 199 644 q 289 335 199 464 q 359 377 314 349 q 456 444 404 406 q 554 526 507 482 q 631 618 601 571 q 661 711 661 665 q 651 774 661 739 q 614 842 640 810 q 540 897 588 875 q 419 918 493 918 q 294 878 343 918 q 222 775 244 838 q 199 644 199 713 m 210 1028 l 189 1074 l 497 1231 l 806 1074 l 785 1028 l 497 1174 l 210 1028 z "},"ë":{"ha":901,"x_min":69,"x_max":874,"o":"m 69 458 q 95 645 69 556 q 175 806 121 735 q 315 917 229 876 q 522 958 401 958 q 701 923 625 958 q 820 831 778 888 q 863 711 863 775 q 830 610 863 649 q 744 545 797 572 q 633 490 692 518 q 501 425 567 458 q 383 364 436 392 q 300 319 331 336 q 431 211 353 251 q 606 171 508 171 q 755 203 683 171 q 867 286 826 235 l 874 286 l 794 38 q 673 -2 739 10 q 540 -14 607 -14 q 358 22 443 -14 q 208 122 274 57 q 106 272 143 186 q 69 458 69 358 m 199 644 q 289 335 199 464 q 359 377 314 349 q 456 444 404 406 q 554 526 507 482 q 631 618 601 571 q 661 711 661 665 q 651 774 661 739 q 614 842 640 810 q 540 897 588 875 q 419 918 493 918 q 294 878 343 918 q 222 775 244 838 q 199 644 199 713 m 310 1131 q 328 1176 310 1157 q 374 1194 347 1194 q 419 1176 400 1194 q 438 1131 438 1157 q 419 1085 438 1104 q 374 1067 400 1067 q 328 1085 347 1067 q 310 1131 310 1104 m 557 1131 q 576 1176 557 1157 q 621 1194 594 1194 q 666 1176 647 1194 q 685 1131 685 1157 q 666 1085 685 1104 q 621 1067 647 1067 q 576 1085 594 1067 q 557 1131 557 1104 z "},"ì":{"ha":383,"x_min":-40,"x_max":413,"o":"m 0 851 l 0 858 q 107 881 51 865 q 213 917 163 896 q 300 958 264 938 l 300 0 l 99 0 l 99 761 q 75 835 99 818 q 0 851 51 851 m 413 1028 q 307 1033 369 1022 q 176 1067 244 1044 q 51 1116 108 1089 q -40 1168 -7 1143 l -7 1219 q 44 1178 7 1203 q 131 1128 81 1154 q 234 1079 181 1101 q 335 1044 288 1057 q 413 1035 382 1032 l 413 1028 z "},"í":{"ha":383,"x_min":-26,"x_max":426,"o":"m 99 761 q 75 835 99 818 q 0 851 51 851 l 0 858 q 107 881 51 865 q 213 917 163 896 q 300 958 264 938 l 300 0 l 99 0 l 99 761 m 426 1168 q 335 1116 393 1143 q 210 1067 278 1089 q 79 1033 142 1044 q -26 1028 17 1022 l -26 1035 q 51 1044 4 1032 q 152 1079 99 1057 q 256 1128 206 1101 q 342 1178 306 1154 q 393 1219 379 1203 l 426 1168 z "},"î":{"ha":383,"x_min":-108,"x_max":508,"o":"m 0 851 l 0 858 q 107 881 51 865 q 213 917 163 896 q 300 958 264 938 l 300 0 l 99 0 l 99 761 q 75 835 99 818 q 0 851 51 851 m -108 1074 l 200 1231 l 508 1074 l 488 1028 l 200 1174 l -87 1028 l -108 1074 z "},"ï":{"ha":383,"x_min":0,"x_max":388,"o":"m 0 858 q 107 881 51 865 q 213 917 163 896 q 300 958 264 938 l 300 0 l 99 0 l 99 761 q 75 835 99 818 q 0 851 51 851 l 0 858 m 260 1131 q 278 1176 260 1157 q 324 1194 297 1194 q 369 1176 350 1194 q 388 1131 388 1157 q 369 1085 388 1104 q 324 1067 350 1067 q 278 1085 297 1067 q 260 1131 260 1104 m 13 1131 q 31 1176 13 1157 q 76 1194 50 1194 q 122 1176 103 1194 q 140 1131 140 1157 q 122 1085 140 1104 q 76 1067 103 1067 q 31 1085 50 1067 q 13 1131 13 1104 z "},"ñ":{"ha":963,"x_min":0,"x_max":879,"o":"m 0 858 q 107 881 51 865 q 213 917 163 896 q 300 958 264 938 l 300 660 q 333 756 307 704 q 401 853 358 807 q 505 928 444 899 q 640 958 565 958 q 708 951 668 958 q 788 920 749 944 q 853 842 826 896 q 879 694 879 789 l 879 0 l 678 0 l 678 764 q 647 863 678 831 q 565 896 615 896 q 461 865 510 896 q 376 783 413 835 q 320 664 340 731 q 300 525 300 597 l 300 0 l 99 0 l 99 761 q 75 835 99 818 q 0 851 51 851 l 0 858 m 183 1056 q 217 1103 193 1079 q 276 1145 242 1128 q 349 1164 311 1163 q 442 1154 399 1167 q 525 1124 486 1142 q 603 1092 564 1106 q 681 1079 642 1079 q 731 1094 708 1079 q 763 1129 753 1108 l 786 1088 q 749 1048 781 1068 q 681 1028 718 1028 q 603 1041 642 1028 q 525 1072 564 1054 q 442 1101 486 1089 q 349 1113 399 1114 q 261 1083 292 1111 q 215 1019 231 1054 l 183 1056 z "},"ò":{"ha":924,"x_min":69,"x_max":854,"o":"m 69 472 q 121 745 69 638 q 260 906 172 853 q 461 958 349 958 q 658 906 569 958 q 801 745 747 853 q 854 472 854 638 q 801 199 854 307 q 660 39 749 92 q 461 -14 571 -14 q 264 39 353 -14 q 122 199 175 92 q 69 472 69 307 m 356 924 q 269 838 300 910 q 234 656 238 765 q 260 422 231 547 q 341 203 289 299 q 453 58 393 107 q 569 22 514 8 q 658 108 626 36 q 692 290 689 181 q 667 522 696 399 q 610 693 644 615 q 532 826 575 771 q 443 908 489 882 q 356 924 397 935 m 674 1028 q 568 1033 631 1022 q 438 1067 506 1044 q 312 1116 369 1089 q 221 1168 254 1143 l 254 1219 q 305 1178 268 1203 q 392 1128 342 1154 q 495 1079 442 1101 q 596 1044 549 1057 q 674 1035 643 1032 l 674 1028 z "},"ó":{"ha":924,"x_min":69,"x_max":854,"o":"m 461 -14 q 264 39 353 -14 q 122 199 175 92 q 69 472 69 307 q 121 745 69 638 q 260 906 172 853 q 461 958 349 958 q 658 906 569 958 q 801 745 747 853 q 854 472 854 638 q 801 199 854 307 q 660 39 749 92 q 461 -14 571 -14 m 356 924 q 269 838 300 910 q 234 656 238 765 q 260 422 231 547 q 341 203 289 299 q 453 58 393 107 q 569 22 514 8 q 658 108 626 36 q 692 290 689 181 q 667 522 696 399 q 610 693 644 615 q 532 826 575 771 q 443 908 489 882 q 356 924 397 935 m 235 1035 q 313 1044 265 1032 q 413 1079 360 1057 q 517 1128 467 1101 q 603 1178 567 1154 q 654 1219 640 1203 l 688 1168 q 597 1116 654 1143 q 471 1067 539 1089 q 340 1033 403 1044 q 235 1028 278 1022 l 235 1035 z "},"ô":{"ha":924,"x_min":69,"x_max":854,"o":"m 69 472 q 121 745 69 638 q 260 906 172 853 q 461 958 349 958 q 658 906 569 958 q 801 745 747 853 q 854 472 854 638 q 801 199 854 307 q 660 39 749 92 q 461 -14 571 -14 q 264 39 353 -14 q 122 199 175 92 q 69 472 69 307 m 356 924 q 269 838 300 910 q 234 656 238 765 q 260 422 231 547 q 341 203 289 299 q 453 58 393 107 q 569 22 514 8 q 658 108 626 36 q 692 290 689 181 q 667 522 696 399 q 610 693 644 615 q 532 826 575 771 q 443 908 489 882 q 356 924 397 935 m 153 1074 l 461 1231 l 769 1074 l 749 1028 l 461 1174 l 174 1028 l 153 1074 z "},"õ":{"ha":924,"x_min":69,"x_max":854,"o":"m 461 -14 q 264 39 353 -14 q 122 199 175 92 q 69 472 69 307 q 121 745 69 638 q 260 906 172 853 q 461 958 349 958 q 658 906 569 958 q 801 745 747 853 q 854 472 854 638 q 801 199 854 307 q 660 39 749 92 q 461 -14 571 -14 m 356 924 q 269 838 300 910 q 234 656 238 765 q 260 422 231 547 q 341 203 289 299 q 453 58 393 107 q 569 22 514 8 q 658 108 626 36 q 692 290 689 181 q 667 522 696 399 q 610 693 644 615 q 532 826 575 771 q 443 908 489 882 q 356 924 397 935 m 160 1056 q 194 1103 169 1079 q 253 1145 218 1128 q 325 1164 288 1163 q 419 1154 375 1167 q 501 1124 463 1142 q 579 1092 540 1106 q 657 1079 618 1079 q 707 1094 685 1079 q 739 1129 729 1108 l 763 1088 q 726 1048 757 1068 q 657 1028 694 1028 q 579 1041 618 1028 q 501 1072 540 1054 q 419 1101 463 1089 q 325 1113 375 1114 q 238 1083 268 1111 q 192 1019 207 1054 l 160 1056 z "},"ö":{"ha":924,"x_min":69,"x_max":854,"o":"m 461 -14 q 264 39 353 -14 q 122 199 175 92 q 69 472 69 307 q 121 745 69 638 q 260 906 172 853 q 461 958 349 958 q 658 906 569 958 q 801 745 747 853 q 854 472 854 638 q 801 199 854 307 q 660 39 749 92 q 461 -14 571 -14 m 356 924 q 269 838 300 910 q 234 656 238 765 q 260 422 231 547 q 341 203 289 299 q 453 58 393 107 q 569 22 514 8 q 658 108 626 36 q 692 290 689 181 q 667 522 696 399 q 610 693 644 615 q 532 826 575 771 q 443 908 489 882 q 356 924 397 935 m 585 1067 q 540 1085 558 1067 q 521 1131 521 1104 q 540 1176 521 1157 q 585 1194 558 1194 q 630 1176 611 1194 q 649 1131 649 1157 q 630 1085 649 1104 q 585 1067 611 1067 m 274 1131 q 292 1176 274 1157 q 338 1194 311 1194 q 383 1176 364 1194 q 401 1131 401 1157 q 383 1085 401 1104 q 338 1067 364 1067 q 292 1085 311 1067 q 274 1131 274 1104 z "},"ø":{"ha":924,"x_min":83,"x_max":868,"o":"m 211 92 q 117 247 151 151 q 83 472 83 342 q 135 745 83 638 q 274 906 186 853 q 475 958 363 958 q 597 940 539 958 q 701 886 654 922 l 746 958 l 781 958 l 725 867 q 829 710 790 808 q 868 472 868 613 q 815 199 868 307 q 674 39 763 92 q 475 -14 585 -14 q 345 7 407 -14 q 233 71 283 28 l 181 -14 l 146 -14 l 211 92 m 621 699 l 336 239 q 456 69 389 129 q 583 22 524 8 q 672 108 640 36 q 708 290 704 181 q 681 522 711 399 q 654 615 669 571 q 621 699 639 660 m 322 272 l 606 731 q 491 884 554 829 q 369 924 428 939 q 283 838 314 910 q 248 656 251 765 q 274 422 244 547 q 296 344 283 382 q 322 272 308 307 z "},"ù":{"ha":947,"x_min":83,"x_max":864,"o":"m 83 250 l 83 944 l 285 944 l 285 181 q 316 81 285 114 q 397 49 347 49 q 501 79 453 49 q 586 162 550 110 q 642 281 622 214 q 663 419 663 347 l 663 944 l 864 944 l 864 0 l 663 0 l 663 285 q 630 190 656 242 q 561 92 604 138 q 458 16 518 46 q 322 -14 397 -14 q 254 -7 294 -14 q 175 24 214 0 q 110 103 136 49 q 83 250 83 157 m 231 1154 l 264 1206 q 315 1165 278 1189 q 401 1114 351 1140 q 505 1065 451 1088 q 606 1031 558 1043 q 683 1021 653 1018 l 683 1014 q 578 1019 640 1008 q 447 1053 515 1031 q 322 1102 379 1075 q 231 1154 264 1129 z "},"ú":{"ha":947,"x_min":83,"x_max":864,"o":"m 83 250 l 83 944 l 285 944 l 285 181 q 316 81 285 114 q 397 49 347 49 q 501 79 453 49 q 586 162 550 110 q 642 281 622 214 q 663 419 663 347 l 663 944 l 864 944 l 864 0 l 663 0 l 663 285 q 630 190 656 242 q 561 92 604 138 q 458 16 518 46 q 322 -14 397 -14 q 254 -7 294 -14 q 175 24 214 0 q 110 103 136 49 q 83 250 83 157 m 697 1154 q 606 1102 664 1129 q 481 1053 549 1075 q 350 1019 413 1031 q 244 1014 288 1008 l 244 1021 q 322 1031 275 1018 q 423 1065 369 1043 q 526 1114 476 1088 q 613 1165 576 1140 q 664 1206 650 1189 l 697 1154 z "},"û":{"ha":947,"x_min":83,"x_max":864,"o":"m 83 250 l 83 944 l 285 944 l 285 181 q 316 81 285 114 q 397 49 347 49 q 501 79 453 49 q 586 162 550 110 q 642 281 622 214 q 663 419 663 347 l 663 944 l 864 944 l 864 0 l 663 0 l 663 285 q 630 190 656 242 q 561 92 604 138 q 458 16 518 46 q 322 -14 397 -14 q 254 -7 294 -14 q 175 24 214 0 q 110 103 136 49 q 83 250 83 157 m 163 1060 l 471 1217 l 779 1060 l 758 1014 l 471 1160 l 183 1014 l 163 1060 z "},"ü":{"ha":947,"x_min":83,"x_max":864,"o":"m 83 944 l 285 944 l 285 181 q 316 81 285 114 q 397 49 347 49 q 501 79 453 49 q 586 162 550 110 q 642 281 622 214 q 663 419 663 347 l 663 944 l 864 944 l 864 0 l 663 0 l 663 285 q 630 190 656 242 q 561 92 604 138 q 458 16 518 46 q 322 -14 397 -14 q 254 -7 294 -14 q 175 24 214 0 q 110 103 136 49 q 83 250 83 157 l 83 944 m 594 1053 q 549 1072 568 1053 q 531 1117 531 1090 q 549 1162 531 1143 q 594 1181 568 1181 q 640 1162 621 1181 q 658 1117 658 1143 q 640 1072 658 1090 q 594 1053 621 1053 m 283 1117 q 302 1162 283 1143 q 347 1181 321 1181 q 392 1162 374 1181 q 411 1117 411 1143 q 392 1072 411 1090 q 347 1053 374 1053 q 302 1072 321 1053 q 283 1117 283 1090 z "},"ý":{"ha":890,"x_min":-56,"x_max":821,"o":"m 107 -444 q 21 -434 60 -444 q -56 -403 -18 -424 l -56 -207 q 24 -244 -11 -229 q 97 -266 60 -258 q 182 -274 133 -274 q 467 -204 354 -274 q 638 -6 579 -135 q 704 301 696 122 q 629 144 671 217 q 538 29 588 72 q 433 -14 489 -14 q 331 7 371 -14 q 266 64 290 28 q 225 147 242 100 q 193 247 208 194 q 145 422 165 340 q 108 584 125 504 q 72 751 90 664 q 28 944 53 839 l 229 944 q 278 733 257 828 q 318 551 299 639 q 361 370 338 463 q 419 165 385 278 q 459 72 439 101 q 500 43 479 43 q 557 87 524 43 q 623 203 590 131 q 677 367 656 276 q 699 553 699 458 q 683 702 699 629 q 631 838 668 775 q 526 944 593 900 l 694 1042 q 788 938 754 1011 q 821 768 821 864 q 801 488 821 631 q 742 209 782 344 q 643 -44 703 74 q 504 -253 583 -162 q 326 -394 425 -343 q 107 -444 226 -444 m 168 1101 q 246 1111 199 1099 q 347 1146 293 1124 q 450 1194 400 1168 q 537 1245 500 1221 q 588 1286 574 1269 l 621 1235 q 530 1183 588 1210 q 404 1133 472 1156 q 274 1100 336 1111 q 168 1094 211 1089 l 168 1101 z "},"ÿ":{"ha":890,"x_min":-56,"x_max":821,"o":"m 107 -444 q 21 -434 60 -444 q -56 -403 -18 -424 l -56 -207 q 24 -244 -11 -229 q 97 -266 60 -258 q 182 -274 133 -274 q 467 -204 354 -274 q 638 -6 579 -135 q 704 301 696 122 q 629 144 671 217 q 538 29 588 72 q 433 -14 489 -14 q 331 7 371 -14 q 266 64 290 28 q 225 147 242 100 q 193 247 208 194 q 145 422 165 340 q 108 584 125 504 q 72 751 90 664 q 28 944 53 839 l 229 944 q 278 733 257 828 q 318 551 299 639 q 361 370 338 463 q 419 165 385 278 q 459 72 439 101 q 500 43 479 43 q 557 87 524 43 q 623 203 590 131 q 677 367 656 276 q 699 553 699 458 q 683 702 699 629 q 631 838 668 775 q 526 944 593 900 l 694 1042 q 788 938 754 1011 q 821 768 821 864 q 801 488 821 631 q 742 209 782 344 q 643 -44 703 74 q 504 -253 583 -162 q 326 -394 425 -343 q 107 -444 226 -444 m 207 1197 q 226 1242 207 1224 q 271 1261 244 1261 q 316 1242 297 1261 q 335 1197 335 1224 q 316 1152 335 1171 q 271 1133 297 1133 q 226 1152 244 1133 q 207 1197 207 1171 m 519 1133 q 474 1152 493 1133 q 454 1197 454 1171 q 474 1242 454 1224 q 519 1261 493 1261 q 564 1242 546 1261 q 582 1197 582 1224 q 564 1152 582 1171 q 519 1133 546 1133 z "},"Ł":{"ha":982,"x_min":28,"x_max":929,"o":"m 94 625 l 28 625 l 28 667 l 94 667 l 94 1389 l 296 1389 l 296 667 l 632 667 l 632 625 l 296 625 l 296 21 q 483 40 388 21 q 667 88 579 58 q 824 155 756 118 q 929 228 893 192 l 929 0 l 94 0 l 94 625 z "},"ł":{"ha":383,"x_min":-40,"x_max":429,"o":"m 97 625 l -40 625 l -40 667 l 97 667 l 97 1211 q 74 1282 97 1268 q -1 1296 50 1296 l -1 1303 q 106 1325 50 1310 q 212 1361 161 1340 q 299 1403 263 1382 l 299 667 l 429 667 l 429 625 l 299 625 l 299 0 l 97 0 l 97 625 z "},"Š":{"ha":1049,"x_min":28,"x_max":1021,"o":"m 483 -14 q 300 9 389 -14 q 140 69 211 32 q 28 146 68 106 l 111 339 q 257 256 186 293 q 408 199 328 219 q 586 178 488 178 q 686 183 632 178 q 795 200 740 188 q 895 236 850 213 q 967 296 940 260 q 994 385 994 332 q 965 467 994 435 q 887 519 936 499 q 776 551 838 539 q 650 573 715 564 q 524 592 585 582 q 247 676 349 622 q 101 813 144 731 q 57 1010 57 896 q 83 1142 57 1074 q 170 1270 110 1211 q 332 1366 231 1329 q 583 1403 433 1403 q 735 1394 656 1403 q 885 1365 815 1385 q 999 1310 956 1344 l 942 1099 q 831 1151 901 1128 q 674 1190 761 1175 q 499 1204 588 1204 q 348 1192 422 1204 q 213 1156 274 1181 q 117 1090 153 1131 q 81 993 81 1050 q 108 917 81 946 q 180 872 135 888 q 280 851 225 857 q 390 842 335 844 q 493 838 446 840 q 769 778 650 826 q 954 642 888 731 q 1021 424 1021 554 q 976 241 1021 322 q 856 103 932 160 q 684 16 781 46 q 483 -14 588 -14 m 275 1629 l 296 1675 l 583 1529 l 871 1675 l 892 1629 l 583 1472 l 275 1629 z "},"š":{"ha":806,"x_min":28,"x_max":778,"o":"m 414 -14 q 194 24 289 -14 q 28 135 99 61 l 133 383 q 247 219 178 294 q 407 97 317 143 q 601 50 497 50 q 666 73 639 50 q 693 136 693 96 q 658 224 693 188 q 567 290 624 261 q 442 345 510 318 q 306 402 374 372 q 181 471 238 432 q 89 565 124 510 q 54 694 54 619 q 104 842 54 783 q 240 929 154 900 q 429 958 325 958 q 572 941 507 958 q 683 901 636 924 q 754 861 731 878 l 649 651 q 540 760 603 704 q 401 854 478 815 q 233 893 324 893 q 160 865 183 893 q 136 801 136 836 q 171 709 136 747 q 263 642 206 671 q 388 587 319 613 q 526 533 457 561 q 651 465 594 504 q 743 372 708 426 q 778 242 778 318 q 731 99 778 156 q 601 14 683 42 q 414 -14 518 -14 m 429 1028 l 121 1185 l 142 1231 l 429 1085 l 717 1231 l 738 1185 l 429 1028 z "},"Ÿ":{"ha":1150,"x_min":28,"x_max":1122,"o":"m 28 1389 l 236 1389 q 338 1166 292 1267 q 427 971 383 1065 q 517 772 471 876 q 563 673 544 708 q 597 623 581 638 q 633 608 613 608 q 659 616 646 608 q 691 652 672 624 q 736 742 710 681 q 765 823 749 769 q 797 942 781 876 q 823 1074 813 1008 q 833 1190 833 1140 q 806 1317 833 1264 q 715 1382 779 1371 l 715 1389 l 1122 1389 l 1122 1382 q 1053 1334 1088 1374 q 986 1238 1018 1294 q 927 1119 954 1181 q 878 1004 900 1057 q 844 922 857 951 q 766 739 807 835 q 696 542 725 643 q 667 335 667 440 q 688 172 667 263 q 769 0 710 81 l 428 0 l 665 569 q 611 524 646 546 q 515 501 576 501 q 432 541 469 501 q 371 632 394 581 q 284 828 325 738 q 203 1005 243 918 q 120 1185 163 1092 q 28 1389 78 1278 m 397 1497 q 352 1516 371 1497 q 333 1561 333 1535 q 352 1606 333 1588 q 397 1625 371 1625 q 442 1606 424 1625 q 461 1561 461 1588 q 442 1516 461 1535 q 397 1497 424 1497 m 644 1497 q 599 1516 618 1497 q 581 1561 581 1535 q 599 1606 581 1588 q 644 1625 618 1625 q 690 1606 671 1625 q 708 1561 708 1588 q 690 1516 708 1535 q 644 1497 671 1497 z "},"Ž":{"ha":1071,"x_min":28,"x_max":1043,"o":"m 28 0 l 800 1368 l 632 1368 q 360 1337 472 1368 q 175 1258 249 1306 q 53 1161 101 1211 l 53 1389 l 1043 1389 l 271 21 l 439 21 q 703 52 586 21 q 906 131 821 83 q 1039 228 992 179 l 1039 0 l 28 0 m 553 1458 l 244 1615 l 265 1661 l 553 1515 l 840 1661 l 861 1615 l 553 1458 z "},"ž":{"ha":846,"x_min":28,"x_max":818,"o":"m 28 0 l 588 925 q 383 883 481 918 q 200 797 285 847 q 50 693 115 747 l 50 944 l 818 944 l 258 19 q 465 61 367 26 q 649 147 564 96 q 800 251 735 197 l 800 0 l 28 0 m 131 1171 l 151 1217 l 439 1071 l 726 1217 l 747 1171 l 439 1014 l 131 1171 z "},"Ā":{"ha":1167,"x_min":28,"x_max":1139,"o":"m 331 0 l 28 0 q 108 265 71 142 q 180 500 146 388 q 248 725 214 613 q 319 958 282 838 q 397 1217 356 1078 q 436 1308 413 1265 q 497 1376 460 1350 q 583 1403 533 1403 q 671 1376 635 1403 q 731 1308 707 1350 q 769 1217 756 1265 q 848 958 811 1078 q 919 725 885 838 q 988 500 953 613 q 1059 265 1022 388 q 1139 0 1096 142 l 926 0 q 847 267 883 144 q 776 504 810 390 l 313 504 q 311 286 310 389 q 318 108 313 183 q 331 0 324 32 m 314 525 l 769 525 q 704 742 738 635 q 635 967 671 850 q 557 1217 600 1083 q 538 1254 550 1240 q 501 1268 525 1268 q 435 1225 464 1268 q 385 1108 406 1182 q 349 938 364 1033 q 326 737 335 843 q 314 525 318 631 m 286 1472 l 286 1519 l 882 1519 l 882 1472 l 286 1472 z "},"ā":{"ha":939,"x_min":42,"x_max":911,"o":"m 42 186 q 72 310 42 251 q 155 422 103 369 q 272 520 207 475 q 406 603 338 565 q 269 650 338 632 q 142 678 200 668 q 49 689 85 688 q 129 836 69 776 q 268 927 189 896 q 426 958 347 958 q 591 928 531 958 q 685 844 651 897 q 736 723 718 790 q 772 581 754 656 q 817 393 797 482 q 860 210 838 304 q 911 0 883 117 l 707 0 l 707 294 q 681 194 707 247 q 606 93 656 140 q 481 16 556 46 q 311 -14 407 -14 q 184 9 246 -14 q 82 77 122 32 q 42 186 42 122 m 686 294 q 656 412 686 360 q 576 506 626 464 q 463 578 525 547 q 350 475 401 532 q 268 353 299 418 q 238 217 238 289 q 265 126 238 165 q 338 65 292 88 q 442 42 385 42 q 536 68 492 42 q 615 135 581 94 q 667 218 649 175 q 686 294 686 261 m 435 619 q 586 688 514 660 q 706 729 658 715 q 647 856 700 815 q 525 897 594 897 q 410 877 460 897 q 326 827 360 857 q 274 767 292 797 q 257 715 257 736 q 262 692 257 706 q 285 672 267 678 q 435 619 365 649 m 707 706 q 599 662 657 690 q 486 594 542 633 q 646 470 585 543 q 707 294 707 397 l 707 706 m 129 1075 l 725 1075 l 725 1028 l 129 1028 l 129 1075 z "},"ă":{"ha":939,"x_min":42,"x_max":911,"o":"m 42 186 q 72 310 42 251 q 155 422 103 369 q 272 520 207 475 q 406 603 338 565 q 269 650 338 632 q 142 678 200 668 q 49 689 85 688 q 129 836 69 776 q 268 927 189 896 q 426 958 347 958 q 591 928 531 958 q 685 844 651 897 q 736 723 718 790 q 772 581 754 656 q 817 393 797 482 q 860 210 838 304 q 911 0 883 117 l 707 0 l 707 294 q 681 194 707 247 q 606 93 656 140 q 481 16 556 46 q 311 -14 407 -14 q 184 9 246 -14 q 82 77 122 32 q 42 186 42 122 m 686 294 q 656 412 686 360 q 576 506 626 464 q 463 578 525 547 q 350 475 401 532 q 268 353 299 418 q 238 217 238 289 q 265 126 238 165 q 338 65 292 88 q 442 42 385 42 q 536 68 492 42 q 615 135 581 94 q 667 218 649 175 q 686 294 686 261 m 435 619 q 586 688 514 660 q 706 729 658 715 q 647 856 700 815 q 525 897 594 897 q 410 877 460 897 q 326 827 360 857 q 274 767 292 797 q 257 715 257 736 q 262 692 257 706 q 285 672 267 678 q 435 619 365 649 m 426 1026 q 299 1044 361 1026 q 191 1096 238 1063 q 122 1175 144 1129 l 154 1204 q 264 1103 194 1136 q 426 1069 333 1069 q 590 1103 519 1069 q 699 1204 660 1136 l 731 1175 q 662 1096 708 1129 q 554 1044 615 1063 q 426 1026 493 1026 m 707 706 q 599 662 657 690 q 486 594 542 633 q 646 470 585 543 q 707 294 707 397 l 707 706 z "},"Ă":{"ha":1167,"x_min":28,"x_max":1139,"o":"m 28 0 q 108 265 71 142 q 180 500 146 388 q 248 725 214 613 q 319 958 282 838 q 397 1217 356 1078 q 436 1308 413 1265 q 497 1376 460 1350 q 583 1403 533 1403 q 671 1376 635 1403 q 731 1308 707 1350 q 769 1217 756 1265 q 848 958 811 1078 q 919 725 885 838 q 988 500 953 613 q 1059 265 1022 388 q 1139 0 1096 142 l 926 0 q 847 267 883 144 q 776 504 810 390 l 313 504 q 311 286 310 389 q 318 108 313 183 q 331 0 324 32 l 28 0 m 314 525 l 769 525 q 704 742 738 635 q 635 967 671 850 q 557 1217 600 1083 q 538 1254 550 1240 q 501 1268 525 1268 q 435 1225 464 1268 q 385 1108 406 1182 q 349 938 364 1033 q 326 737 335 843 q 314 525 318 631 m 583 1469 q 456 1488 518 1469 q 348 1539 394 1506 q 279 1618 301 1572 l 311 1647 q 421 1546 351 1579 q 583 1513 490 1513 q 747 1546 676 1513 q 856 1647 817 1579 l 888 1618 q 819 1539 865 1572 q 711 1488 772 1506 q 583 1469 650 1469 z "},"Ą":{"ha":1167,"x_min":28,"x_max":1139,"o":"m 28 0 q 108 265 71 142 q 180 500 146 388 q 248 725 214 613 q 319 958 282 838 q 397 1217 356 1078 q 436 1308 413 1265 q 497 1376 460 1350 q 583 1403 533 1403 q 671 1376 635 1403 q 731 1308 707 1350 q 769 1217 756 1265 q 848 958 811 1078 q 919 725 885 838 q 988 500 953 613 q 1059 265 1022 388 q 1139 0 1096 142 l 926 0 q 847 267 883 144 q 776 504 810 390 l 313 504 q 311 286 310 389 q 318 108 313 183 q 331 0 324 32 l 197 0 q 147 -54 167 -21 q 128 -140 128 -87 q 147 -217 128 -187 q 200 -246 165 -246 q 234 -232 219 -246 q 249 -199 249 -218 q 246 -176 249 -186 q 233 -154 243 -165 l 267 -150 q 276 -172 274 -160 q 279 -200 279 -185 q 256 -251 279 -228 q 199 -274 232 -274 q 125 -240 153 -274 q 97 -142 97 -206 q 119 -53 97 -89 q 165 0 142 -18 l 28 0 m 314 525 l 769 525 q 704 742 738 635 q 635 967 671 850 q 557 1217 600 1083 q 538 1254 550 1240 q 501 1268 525 1268 q 435 1225 464 1268 q 385 1108 406 1182 q 349 938 364 1033 q 326 737 335 843 q 314 525 318 631 z "},"ą":{"ha":939,"x_min":42,"x_max":911,"o":"m 42 186 q 72 310 42 251 q 155 422 103 369 q 272 520 207 475 q 406 603 338 565 q 269 650 338 632 q 142 678 200 668 q 49 689 85 688 q 129 836 69 776 q 268 927 189 896 q 426 958 347 958 q 591 928 531 958 q 685 844 651 897 q 736 723 718 790 q 772 581 754 656 q 817 393 797 482 q 860 210 838 304 q 911 0 883 117 l 829 0 q 779 -54 799 -21 q 760 -140 760 -87 q 778 -217 760 -187 q 832 -246 797 -246 q 866 -232 851 -246 q 881 -199 881 -218 q 878 -176 881 -186 q 865 -154 875 -165 l 899 -150 q 908 -172 906 -160 q 911 -200 911 -185 q 888 -251 911 -228 q 831 -274 864 -274 q 757 -240 785 -274 q 729 -142 729 -206 q 752 -53 729 -89 q 797 0 775 -18 l 707 0 l 707 294 q 681 194 707 247 q 606 93 656 140 q 481 16 556 46 q 311 -14 407 -14 q 184 9 246 -14 q 82 77 122 32 q 42 186 42 122 m 686 294 q 656 412 686 360 q 576 506 626 464 q 463 578 525 547 q 350 475 401 532 q 268 353 299 418 q 238 217 238 289 q 265 126 238 165 q 338 65 292 88 q 442 42 385 42 q 536 68 492 42 q 615 135 581 94 q 667 218 649 175 q 686 294 686 261 m 435 619 q 586 688 514 660 q 706 729 658 715 q 647 856 700 815 q 525 897 594 897 q 410 877 460 897 q 326 827 360 857 q 274 767 292 797 q 257 715 257 736 q 262 692 257 706 q 285 672 267 678 q 435 619 365 649 m 707 706 q 599 662 657 690 q 486 594 542 633 q 646 470 585 543 q 707 294 707 397 l 707 706 z "},"Ć":{"ha":1088,"x_min":56,"x_max":1067,"o":"m 56 713 q 99 987 56 861 q 224 1206 142 1113 q 424 1351 307 1300 q 689 1403 542 1403 q 828 1382 761 1403 q 949 1328 896 1361 q 1026 1256 1001 1294 l 890 1093 q 696 1249 808 1190 q 465 1308 583 1308 q 303 1250 371 1308 q 201 1090 236 1192 q 165 854 165 988 q 197 603 165 722 q 290 391 228 483 q 444 245 353 299 q 653 192 535 192 q 799 213 740 192 q 892 262 858 235 q 941 310 926 289 q 956 332 956 332 l 1067 154 q 1041 128 1067 154 q 963 70 1015 103 q 829 12 910 38 q 640 -14 749 -14 q 386 45 496 -14 q 203 206 276 104 q 92 439 129 308 q 56 713 56 569 m 882 1613 q 791 1560 849 1588 q 665 1511 733 1533 q 535 1478 597 1489 q 429 1472 472 1467 l 429 1479 q 507 1489 460 1476 q 608 1524 554 1501 q 711 1572 661 1546 q 798 1623 761 1599 q 849 1664 835 1647 l 882 1613 z "},"ć":{"ha":928,"x_min":69,"x_max":900,"o":"m 540 -14 q 358 22 443 -14 q 208 120 274 57 q 106 268 143 183 q 69 451 69 353 q 99 635 69 547 q 183 793 128 724 q 317 903 238 863 q 497 944 396 944 q 738 883 638 944 q 900 686 839 822 l 729 596 q 656 744 699 674 q 554 860 614 815 q 410 904 494 904 q 292 865 339 904 q 222 763 246 825 q 199 635 199 701 q 248 401 199 507 q 388 231 297 294 q 606 168 479 168 q 755 199 683 168 q 867 282 826 231 l 874 282 l 794 36 q 673 -2 739 10 q 540 -14 607 -14 m 724 1154 q 633 1102 690 1129 q 507 1053 575 1075 q 376 1019 439 1031 q 271 1014 314 1008 l 271 1021 q 349 1031 301 1018 q 449 1065 396 1043 q 553 1114 503 1088 q 640 1165 603 1140 q 690 1206 676 1189 l 724 1154 z "},"Ĉ":{"ha":1088,"x_min":56,"x_max":1067,"o":"m 56 713 q 99 987 56 861 q 224 1206 142 1113 q 424 1351 307 1300 q 689 1403 542 1403 q 828 1382 761 1403 q 949 1328 896 1361 q 1026 1256 1001 1294 l 890 1093 q 696 1249 808 1190 q 465 1308 583 1308 q 303 1250 371 1308 q 201 1090 236 1192 q 165 854 165 988 q 197 603 165 722 q 290 391 228 483 q 444 245 353 299 q 653 192 535 192 q 799 213 740 192 q 892 262 858 235 q 941 310 926 289 q 956 332 956 332 l 1067 154 q 1041 128 1067 154 q 963 70 1015 103 q 829 12 910 38 q 640 -14 749 -14 q 386 45 496 -14 q 203 206 276 104 q 92 439 129 308 q 56 713 56 569 m 347 1518 l 656 1675 l 964 1518 l 943 1472 l 656 1618 l 368 1472 l 347 1518 z "},"ĉ":{"ha":928,"x_min":69,"x_max":900,"o":"m 540 -14 q 358 22 443 -14 q 208 120 274 57 q 106 268 143 183 q 69 451 69 353 q 99 635 69 547 q 183 793 128 724 q 317 903 238 863 q 497 944 396 944 q 738 883 638 944 q 900 686 839 822 l 729 596 q 656 744 699 674 q 554 860 614 815 q 410 904 494 904 q 292 865 339 904 q 222 763 246 825 q 199 635 199 701 q 248 401 199 507 q 388 231 297 294 q 606 168 479 168 q 755 199 683 168 q 867 282 826 231 l 874 282 l 794 36 q 673 -2 739 10 q 540 -14 607 -14 m 210 1014 l 189 1060 l 497 1217 l 806 1060 l 785 1014 l 497 1160 l 210 1014 z "},"˙":{"ha":272,"x_min":69,"x_max":203,"o":"m 69 1526 q 90 1573 69 1554 q 138 1592 110 1592 q 184 1573 165 1592 q 203 1526 203 1554 q 184 1478 203 1499 q 138 1458 165 1458 q 90 1478 110 1458 q 69 1526 69 1499 z "},"̦":{"ha":272,"x_min":69,"x_max":203,"o":"m 138 -240 q 90 -221 110 -240 q 69 -174 69 -201 q 90 -126 69 -146 q 138 -107 110 -107 q 187 -131 171 -107 q 203 -186 203 -154 q 187 -247 203 -225 q 149 -278 171 -269 q 112 -290 128 -287 q 96 -292 96 -292 l 96 -285 q 133 -274 119 -285 q 146 -251 146 -262 q 138 -240 146 -240 z "},"Č":{"ha":1088,"x_min":56,"x_max":1067,"o":"m 640 -14 q 386 45 496 -14 q 203 206 276 104 q 92 439 129 308 q 56 713 56 569 q 99 987 56 861 q 224 1206 142 1113 q 424 1351 307 1300 q 689 1403 542 1403 q 828 1382 761 1403 q 949 1328 896 1361 q 1026 1256 1001 1294 l 890 1093 q 696 1249 808 1190 q 465 1308 583 1308 q 303 1250 371 1308 q 201 1090 236 1192 q 165 854 165 988 q 197 603 165 722 q 290 391 228 483 q 444 245 353 299 q 653 192 535 192 q 799 213 740 192 q 892 262 858 235 q 941 310 926 289 q 956 332 956 332 l 1067 154 q 1041 128 1067 154 q 963 70 1015 103 q 829 12 910 38 q 640 -14 749 -14 m 656 1472 l 347 1629 l 368 1675 l 656 1529 l 943 1675 l 964 1629 l 656 1472 z "},"č":{"ha":928,"x_min":69,"x_max":900,"o":"m 540 -14 q 358 22 443 -14 q 208 120 274 57 q 106 268 143 183 q 69 451 69 353 q 99 635 69 547 q 183 793 128 724 q 317 903 238 863 q 497 944 396 944 q 738 883 638 944 q 900 686 839 822 l 729 596 q 656 744 699 674 q 554 860 614 815 q 410 904 494 904 q 292 865 339 904 q 222 763 246 825 q 199 635 199 701 q 248 401 199 507 q 388 231 297 294 q 606 168 479 168 q 755 199 683 168 q 867 282 826 231 l 874 282 l 794 36 q 673 -2 739 10 q 540 -14 607 -14 m 497 1014 l 189 1171 l 210 1217 l 497 1071 l 785 1217 l 806 1171 l 497 1014 z "},"Ď":{"ha":1144,"x_min":97,"x_max":1089,"o":"m 97 1389 l 436 1389 q 699 1349 589 1389 q 885 1241 810 1310 q 1005 1083 960 1172 q 1069 895 1050 994 q 1089 694 1089 796 q 1069 494 1089 593 q 1005 306 1050 394 q 885 148 960 217 q 699 40 810 79 q 436 0 589 0 l 97 0 l 97 1389 m 299 21 l 393 21 q 607 64 519 21 q 750 178 694 107 q 835 339 806 250 q 876 520 865 428 q 888 694 888 613 q 876 869 888 776 q 835 1050 865 961 q 750 1210 806 1139 q 607 1325 694 1282 q 393 1368 519 1368 l 299 1368 l 299 21 m 103 1615 l 124 1661 l 411 1515 l 699 1661 l 719 1615 l 411 1458 l 103 1615 z "},"ď":{"ha":1297,"x_min":69,"x_max":1229,"o":"m 69 399 q 136 688 69 565 q 323 878 203 811 q 603 944 443 944 l 650 944 l 650 1211 q 626 1282 650 1268 q 551 1296 603 1296 l 551 1303 q 658 1325 603 1310 q 765 1361 714 1340 q 851 1403 815 1382 l 851 0 l 650 0 l 650 168 q 539 36 608 86 q 371 -14 469 -14 q 233 21 290 -14 q 140 115 176 56 q 87 247 104 174 q 69 399 69 321 m 594 924 q 423 860 500 924 q 301 685 346 796 q 256 432 256 575 q 270 321 256 376 q 313 219 285 265 q 385 144 342 172 q 486 117 428 117 q 588 137 553 117 q 635 184 622 157 q 650 233 649 211 l 650 924 l 594 924 m 1111 1163 q 1026 1198 1061 1163 q 990 1283 990 1233 q 1026 1367 990 1332 q 1111 1403 1061 1403 q 1201 1360 1172 1403 q 1229 1261 1229 1317 q 1210 1169 1229 1204 q 1162 1113 1190 1133 q 1105 1085 1133 1093 q 1057 1074 1076 1076 q 1038 1072 1038 1072 l 1038 1083 q 1103 1103 1078 1083 q 1128 1143 1128 1122 q 1111 1163 1128 1163 z "},"Ċ":{"ha":1088,"x_min":56,"x_max":1067,"o":"m 56 713 q 99 987 56 861 q 224 1206 142 1113 q 424 1351 307 1300 q 689 1403 542 1403 q 828 1382 761 1403 q 949 1328 896 1361 q 1026 1256 1001 1294 l 890 1093 q 696 1249 808 1190 q 465 1308 583 1308 q 303 1250 371 1308 q 201 1090 236 1192 q 165 854 165 988 q 197 603 165 722 q 290 391 228 483 q 444 245 353 299 q 653 192 535 192 q 799 213 740 192 q 892 262 858 235 q 941 310 926 289 q 956 332 956 332 l 1067 154 q 1041 128 1067 154 q 963 70 1015 103 q 829 12 910 38 q 640 -14 749 -14 q 386 45 496 -14 q 203 206 276 104 q 92 439 129 308 q 56 713 56 569 m 590 1540 q 610 1587 590 1568 q 658 1606 631 1606 q 706 1587 686 1606 q 725 1540 725 1568 q 706 1492 725 1513 q 658 1472 686 1472 q 610 1492 631 1472 q 590 1540 590 1513 z "},"ċ":{"ha":928,"x_min":69,"x_max":900,"o":"m 540 -14 q 358 22 443 -14 q 208 120 274 57 q 106 268 143 183 q 69 451 69 353 q 99 635 69 547 q 183 793 128 724 q 317 903 238 863 q 497 944 396 944 q 738 883 638 944 q 900 686 839 822 l 729 596 q 656 744 699 674 q 554 860 614 815 q 410 904 494 904 q 292 865 339 904 q 222 763 246 825 q 199 635 199 701 q 248 401 199 507 q 388 231 297 294 q 606 168 479 168 q 755 199 683 168 q 867 282 826 231 l 874 282 l 794 36 q 673 -2 739 10 q 540 -14 607 -14 m 432 1082 q 452 1128 432 1110 q 500 1147 472 1147 q 547 1128 528 1147 q 567 1082 567 1110 q 547 1034 567 1054 q 500 1014 528 1014 q 452 1034 472 1014 q 432 1082 432 1054 z "},"Đ":{"ha":1144,"x_min":28,"x_max":1089,"o":"m 97 694 l 28 694 l 28 736 l 97 736 l 97 1389 l 436 1389 q 699 1349 589 1389 q 885 1241 810 1310 q 1005 1083 960 1172 q 1069 895 1050 994 q 1089 694 1089 796 q 1069 494 1089 593 q 1005 306 1050 394 q 885 148 960 217 q 699 40 810 79 q 436 0 589 0 l 97 0 l 97 694 m 625 694 l 299 694 l 299 21 l 393 21 q 607 64 519 21 q 750 178 694 107 q 835 339 806 250 q 876 520 865 428 q 888 694 888 613 q 876 869 888 776 q 835 1050 865 961 q 750 1210 806 1139 q 607 1325 694 1282 q 393 1368 519 1368 l 299 1368 l 299 736 l 625 736 l 625 694 z "},"đ":{"ha":919,"x_min":69,"x_max":919,"o":"m 69 399 q 136 688 69 565 q 323 878 203 811 q 603 944 443 944 l 650 944 l 650 1069 l 444 1069 l 444 1117 l 650 1117 l 650 1211 q 626 1282 650 1268 q 551 1296 603 1296 l 551 1303 q 658 1325 603 1310 q 765 1361 714 1340 q 851 1403 815 1382 l 851 1117 l 919 1117 l 919 1069 l 851 1069 l 851 0 l 650 0 l 650 168 q 539 36 608 86 q 371 -14 469 -14 q 233 21 290 -14 q 140 115 176 56 q 87 247 104 174 q 69 399 69 321 m 594 924 q 423 860 500 924 q 301 685 346 796 q 256 432 256 575 q 270 321 256 376 q 313 219 285 265 q 385 144 342 172 q 486 117 428 117 q 588 137 553 117 q 635 184 622 157 q 650 233 649 211 l 650 924 l 594 924 z "},"Ē":{"ha":1065,"x_min":56,"x_max":1035,"o":"m 699 -14 q 458 12 574 -14 q 251 94 342 38 q 108 242 161 150 q 56 467 56 333 q 100 614 56 556 q 220 701 144 672 q 390 731 296 731 q 516 716 460 731 q 621 682 572 701 q 715 648 669 663 q 810 633 761 633 q 852 644 833 633 q 871 678 871 654 q 832 733 871 708 q 733 776 793 757 q 607 810 674 794 q 485 839 540 825 q 341 876 411 857 q 214 924 271 894 q 123 1003 157 954 q 89 1129 89 1053 q 101 1190 89 1154 q 142 1262 113 1225 q 226 1331 172 1299 q 363 1383 279 1363 q 567 1403 447 1403 q 688 1398 621 1403 q 822 1382 754 1393 q 947 1353 890 1371 q 1035 1310 1003 1336 l 978 1101 q 867 1154 938 1131 q 710 1192 797 1178 q 535 1207 624 1207 q 315 1171 383 1207 q 246 1061 246 1135 q 285 967 246 1004 q 390 906 325 931 q 532 862 454 881 q 687 824 610 843 q 828 780 764 806 q 933 715 893 754 q 972 617 972 676 q 947 527 972 565 q 878 467 921 489 q 788 444 836 446 q 644 460 711 442 q 515 505 576 479 q 390 551 453 531 q 260 571 328 571 q 124 540 167 571 q 81 456 81 510 q 132 327 81 379 q 270 244 183 275 q 467 201 357 214 q 693 188 576 188 q 865 202 781 188 q 1021 276 950 217 l 938 35 q 826 -3 882 8 q 699 -14 769 -14 m 865 1458 l 269 1458 l 269 1506 l 865 1506 l 865 1458 z "},"ē":{"ha":901,"x_min":69,"x_max":874,"o":"m 540 -14 q 358 22 443 -14 q 208 122 274 57 q 106 272 143 186 q 69 458 69 358 q 95 645 69 556 q 175 806 121 735 q 315 917 229 876 q 522 958 401 958 q 701 923 625 958 q 820 831 778 888 q 863 711 863 775 q 830 610 863 649 q 744 545 797 572 q 633 490 692 518 q 501 425 567 458 q 383 364 436 392 q 300 319 331 336 q 431 211 353 251 q 606 171 508 171 q 755 203 683 171 q 867 286 826 235 l 874 286 l 794 38 q 673 -2 739 10 q 540 -14 607 -14 m 199 644 q 289 335 199 464 q 359 377 314 349 q 456 444 404 406 q 554 526 507 482 q 631 618 601 571 q 661 711 661 665 q 651 774 661 739 q 614 842 640 810 q 540 897 588 875 q 419 918 493 918 q 294 878 343 918 q 222 775 244 838 q 199 644 199 713 m 200 1075 l 796 1075 l 796 1028 l 200 1028 l 200 1075 z "},"Ĕ":{"ha":1065,"x_min":56,"x_max":1035,"o":"m 56 467 q 100 614 56 556 q 220 701 144 672 q 390 731 296 731 q 516 716 460 731 q 621 682 572 701 q 715 648 669 663 q 810 633 761 633 q 852 644 833 633 q 871 678 871 654 q 832 733 871 708 q 733 776 793 757 q 607 810 674 794 q 485 839 540 825 q 341 876 411 857 q 214 924 271 894 q 123 1003 157 954 q 89 1129 89 1053 q 101 1190 89 1154 q 142 1262 113 1225 q 226 1331 172 1299 q 363 1383 279 1363 q 567 1403 447 1403 q 688 1398 621 1403 q 822 1382 754 1393 q 947 1353 890 1371 q 1035 1310 1003 1336 l 978 1101 q 867 1154 938 1131 q 710 1192 797 1178 q 535 1207 624 1207 q 315 1171 383 1207 q 246 1061 246 1135 q 285 967 246 1004 q 390 906 325 931 q 532 862 454 881 q 687 824 610 843 q 828 780 764 806 q 933 715 893 754 q 972 617 972 676 q 947 527 972 565 q 878 467 921 489 q 788 444 836 446 q 644 460 711 442 q 515 505 576 479 q 390 551 453 531 q 260 571 328 571 q 124 540 167 571 q 81 456 81 510 q 132 327 81 379 q 270 244 183 275 q 467 201 357 214 q 693 188 576 188 q 865 202 781 188 q 1021 276 950 217 l 938 35 q 826 -3 882 8 q 699 -14 769 -14 q 458 12 574 -14 q 251 94 342 38 q 108 242 161 150 q 56 467 56 333 m 263 1604 l 294 1633 q 404 1532 335 1565 q 567 1499 474 1499 q 730 1532 660 1499 q 839 1633 800 1565 l 871 1604 q 802 1525 849 1558 q 694 1474 756 1492 q 567 1456 633 1456 q 440 1474 501 1456 q 331 1525 378 1492 q 263 1604 285 1558 z "},"ĕ":{"ha":901,"x_min":69,"x_max":874,"o":"m 540 -14 q 358 22 443 -14 q 208 122 274 57 q 106 272 143 186 q 69 458 69 358 q 95 645 69 556 q 175 806 121 735 q 315 917 229 876 q 522 958 401 958 q 701 923 625 958 q 820 831 778 888 q 863 711 863 775 q 830 610 863 649 q 744 545 797 572 q 633 490 692 518 q 501 425 567 458 q 383 364 436 392 q 300 319 331 336 q 431 211 353 251 q 606 171 508 171 q 755 203 683 171 q 867 286 826 235 l 874 286 l 794 38 q 673 -2 739 10 q 540 -14 607 -14 m 199 644 q 289 335 199 464 q 359 377 314 349 q 456 444 404 406 q 554 526 507 482 q 631 618 601 571 q 661 711 661 665 q 651 774 661 739 q 614 842 640 810 q 540 897 588 875 q 419 918 493 918 q 294 878 343 918 q 222 775 244 838 q 199 644 199 713 m 193 1174 l 225 1203 q 335 1101 265 1135 q 497 1068 404 1068 q 660 1101 590 1068 q 769 1203 731 1135 l 801 1174 q 733 1094 779 1128 q 625 1043 686 1061 q 497 1025 564 1025 q 370 1043 432 1025 q 262 1094 308 1061 q 193 1174 215 1128 z "},"Ė":{"ha":1065,"x_min":56,"x_max":1035,"o":"m 699 -14 q 458 12 574 -14 q 251 94 342 38 q 108 242 161 150 q 56 467 56 333 q 100 614 56 556 q 220 701 144 672 q 390 731 296 731 q 516 716 460 731 q 621 682 572 701 q 715 648 669 663 q 810 633 761 633 q 852 644 833 633 q 871 678 871 654 q 832 733 871 708 q 733 776 793 757 q 607 810 674 794 q 485 839 540 825 q 341 876 411 857 q 214 924 271 894 q 123 1003 157 954 q 89 1129 89 1053 q 101 1190 89 1154 q 142 1262 113 1225 q 226 1331 172 1299 q 363 1383 279 1363 q 567 1403 447 1403 q 688 1398 621 1403 q 822 1382 754 1393 q 947 1353 890 1371 q 1035 1310 1003 1336 l 978 1101 q 867 1154 938 1131 q 710 1192 797 1178 q 535 1207 624 1207 q 315 1171 383 1207 q 246 1061 246 1135 q 285 967 246 1004 q 390 906 325 931 q 532 862 454 881 q 687 824 610 843 q 828 780 764 806 q 933 715 893 754 q 972 617 972 676 q 947 527 972 565 q 878 467 921 489 q 788 444 836 446 q 644 460 711 442 q 515 505 576 479 q 390 551 453 531 q 260 571 328 571 q 124 540 167 571 q 81 456 81 510 q 132 327 81 379 q 270 244 183 275 q 467 201 357 214 q 693 188 576 188 q 865 202 781 188 q 1021 276 950 217 l 938 35 q 826 -3 882 8 q 699 -14 769 -14 m 569 1458 q 522 1478 542 1458 q 501 1526 501 1499 q 522 1573 501 1554 q 569 1592 542 1592 q 617 1573 597 1592 q 636 1526 636 1554 q 617 1478 636 1499 q 569 1458 597 1458 z "},"ė":{"ha":901,"x_min":69,"x_max":874,"o":"m 69 458 q 95 645 69 556 q 175 806 121 735 q 315 917 229 876 q 522 958 401 958 q 701 923 625 958 q 820 831 778 888 q 863 711 863 775 q 830 610 863 649 q 744 545 797 572 q 633 490 692 518 q 501 425 567 458 q 383 364 436 392 q 300 319 331 336 q 431 211 353 251 q 606 171 508 171 q 755 203 683 171 q 867 286 826 235 l 874 286 l 794 38 q 673 -2 739 10 q 540 -14 607 -14 q 358 22 443 -14 q 208 122 274 57 q 106 272 143 186 q 69 458 69 358 m 199 644 q 289 335 199 464 q 359 377 314 349 q 456 444 404 406 q 554 526 507 482 q 631 618 601 571 q 661 711 661 665 q 651 774 661 739 q 614 842 640 810 q 540 897 588 875 q 419 918 493 918 q 294 878 343 918 q 222 775 244 838 q 199 644 199 713 m 500 1028 q 452 1048 472 1028 q 432 1096 432 1068 q 452 1142 432 1124 q 500 1161 472 1161 q 547 1142 528 1161 q 567 1096 567 1124 q 547 1048 567 1068 q 500 1028 528 1028 z "},"Ę":{"ha":1065,"x_min":56,"x_max":1035,"o":"m 56 467 q 100 614 56 556 q 220 701 144 672 q 390 731 296 731 q 516 716 460 731 q 621 682 572 701 q 715 648 669 663 q 810 633 761 633 q 852 644 833 633 q 871 678 871 654 q 832 733 871 708 q 733 776 793 757 q 607 810 674 794 q 485 839 540 825 q 341 876 411 857 q 214 924 271 894 q 123 1003 157 954 q 89 1129 89 1053 q 101 1190 89 1154 q 142 1262 113 1225 q 226 1331 172 1299 q 363 1383 279 1363 q 567 1403 447 1403 q 688 1398 621 1403 q 822 1382 754 1393 q 947 1353 890 1371 q 1035 1310 1003 1336 l 978 1101 q 867 1154 938 1131 q 710 1192 797 1178 q 535 1207 624 1207 q 315 1171 383 1207 q 246 1061 246 1135 q 285 967 246 1004 q 390 906 325 931 q 532 862 454 881 q 687 824 610 843 q 828 780 764 806 q 933 715 893 754 q 972 617 972 676 q 947 527 972 565 q 878 467 921 489 q 788 444 836 446 q 644 460 711 442 q 515 505 576 479 q 390 551 453 531 q 260 571 328 571 q 124 540 167 571 q 81 456 81 510 q 132 327 81 379 q 270 244 183 275 q 467 201 357 214 q 693 188 576 188 q 865 202 781 188 q 1021 276 950 217 l 938 35 q 826 -3 882 8 q 699 -14 769 -14 q 640 -12 669 -14 q 583 -8 611 -11 q 528 -63 550 -29 q 507 -153 507 -97 q 526 -229 507 -200 q 579 -258 544 -258 q 613 -244 599 -258 q 628 -211 628 -231 q 625 -188 628 -199 q 613 -167 622 -178 l 646 -162 q 656 -185 653 -172 q 658 -212 658 -197 q 635 -263 658 -240 q 578 -286 611 -286 q 504 -252 532 -286 q 476 -154 476 -218 q 503 -58 476 -96 q 556 -6 531 -21 q 362 40 453 7 q 202 129 271 72 q 94 269 133 186 q 56 467 56 353 z "},"ę":{"ha":901,"x_min":69,"x_max":874,"o":"m 69 458 q 95 645 69 556 q 175 806 121 735 q 315 917 229 876 q 522 958 401 958 q 701 923 625 958 q 820 831 778 888 q 863 711 863 775 q 830 610 863 649 q 744 545 797 572 q 633 490 692 518 q 501 425 567 458 q 383 364 436 392 q 300 319 331 336 q 431 211 353 251 q 606 171 508 171 q 755 203 683 171 q 867 286 826 235 l 874 286 l 794 38 q 683 0 743 11 q 561 -14 622 -11 q 511 -68 531 -35 q 492 -154 492 -101 q 510 -231 492 -201 q 564 -260 529 -260 q 598 -246 583 -260 q 613 -212 613 -232 q 610 -190 613 -200 q 597 -168 607 -179 l 631 -164 q 640 -186 638 -174 q 643 -214 643 -199 q 619 -265 643 -242 q 563 -287 596 -287 q 489 -253 517 -287 q 461 -156 461 -219 q 483 -67 461 -103 q 529 -14 506 -32 q 351 25 435 -11 q 205 125 268 61 q 106 274 142 189 q 69 458 69 360 m 419 918 q 294 878 343 918 q 222 775 244 838 q 199 644 199 713 q 289 335 199 464 q 359 377 314 349 q 456 444 404 406 q 554 526 507 482 q 631 618 601 571 q 661 711 661 665 q 651 774 661 739 q 614 842 640 810 q 540 897 588 875 q 419 918 493 918 z "},"Ě":{"ha":1065,"x_min":56,"x_max":1035,"o":"m 56 467 q 100 614 56 556 q 220 701 144 672 q 390 731 296 731 q 516 716 460 731 q 621 682 572 701 q 715 648 669 663 q 810 633 761 633 q 852 644 833 633 q 871 678 871 654 q 832 733 871 708 q 733 776 793 757 q 607 810 674 794 q 485 839 540 825 q 341 876 411 857 q 214 924 271 894 q 123 1003 157 954 q 89 1129 89 1053 q 101 1190 89 1154 q 142 1262 113 1225 q 226 1331 172 1299 q 363 1383 279 1363 q 567 1403 447 1403 q 688 1398 621 1403 q 822 1382 754 1393 q 947 1353 890 1371 q 1035 1310 1003 1336 l 978 1101 q 867 1154 938 1131 q 710 1192 797 1178 q 535 1207 624 1207 q 315 1171 383 1207 q 246 1061 246 1135 q 285 967 246 1004 q 390 906 325 931 q 532 862 454 881 q 687 824 610 843 q 828 780 764 806 q 933 715 893 754 q 972 617 972 676 q 947 527 972 565 q 878 467 921 489 q 788 444 836 446 q 644 460 711 442 q 515 505 576 479 q 390 551 453 531 q 260 571 328 571 q 124 540 167 571 q 81 456 81 510 q 132 327 81 379 q 270 244 183 275 q 467 201 357 214 q 693 188 576 188 q 865 202 781 188 q 1021 276 950 217 l 938 35 q 826 -3 882 8 q 699 -14 769 -14 q 458 12 574 -14 q 251 94 342 38 q 108 242 161 150 q 56 467 56 333 m 258 1615 l 279 1661 l 567 1515 l 854 1661 l 875 1615 l 567 1458 l 258 1615 z "},"ě":{"ha":901,"x_min":69,"x_max":874,"o":"m 540 -14 q 358 22 443 -14 q 208 122 274 57 q 106 272 143 186 q 69 458 69 358 q 95 645 69 556 q 175 806 121 735 q 315 917 229 876 q 522 958 401 958 q 701 923 625 958 q 820 831 778 888 q 863 711 863 775 q 830 610 863 649 q 744 545 797 572 q 633 490 692 518 q 501 425 567 458 q 383 364 436 392 q 300 319 331 336 q 431 211 353 251 q 606 171 508 171 q 755 203 683 171 q 867 286 826 235 l 874 286 l 794 38 q 673 -2 739 10 q 540 -14 607 -14 m 419 918 q 294 878 343 918 q 222 775 244 838 q 199 644 199 713 q 289 335 199 464 q 359 377 314 349 q 456 444 404 406 q 554 526 507 482 q 631 618 601 571 q 661 711 661 665 q 651 774 661 739 q 614 842 640 810 q 540 897 588 875 q 419 918 493 918 m 189 1185 l 210 1231 l 497 1085 l 785 1231 l 806 1185 l 497 1028 l 189 1185 z "},"Ĝ":{"ha":1138,"x_min":56,"x_max":1040,"o":"m 650 -14 q 390 45 501 -14 q 203 207 278 104 q 92 441 129 310 q 56 717 56 572 q 98 992 56 867 q 222 1209 140 1117 q 419 1352 303 1301 q 683 1403 536 1403 q 824 1384 756 1403 q 947 1334 893 1365 q 1026 1263 1001 1303 l 890 1100 q 696 1257 808 1197 q 465 1317 583 1317 q 317 1265 371 1317 q 242 1118 264 1214 q 221 889 221 1022 q 253 644 221 768 q 339 406 285 519 q 462 204 393 293 q 604 64 531 115 q 749 13 678 13 q 806 24 775 13 q 836 56 836 35 l 836 746 l 1040 746 l 1040 104 q 949 39 997 65 q 830 -1 900 13 q 650 -14 760 -14 m 371 1472 l 350 1518 l 658 1675 l 967 1518 l 946 1472 l 658 1618 l 371 1472 z "},"ĝ":{"ha":881,"x_min":28,"x_max":894,"o":"m 496 -444 q 339 -435 421 -444 q 186 -403 257 -426 q 72 -334 115 -379 q 28 -217 28 -289 q 56 -135 28 -169 q 126 -80 83 -101 q 217 -50 169 -58 q 301 -44 264 -42 q 259 10 275 -21 q 243 79 243 40 q 276 151 243 128 q 347 183 308 174 q 188 259 254 204 q 88 394 122 314 q 53 567 53 474 q 99 762 53 674 q 231 903 144 850 q 439 958 318 957 l 832 958 l 832 938 l 583 938 q 770 797 704 899 q 836 567 836 694 q 790 369 836 458 q 656 227 743 281 q 446 174 569 174 q 425 174 436 174 q 403 175 414 174 q 366 174 389 176 q 325 165 343 172 q 307 142 307 158 q 339 101 307 115 q 423 77 371 86 q 538 58 475 68 q 664 32 601 49 q 778 -12 726 15 q 863 -86 831 -40 q 894 -203 894 -132 q 842 -346 894 -293 q 699 -422 789 -399 q 496 -444 608 -444 m 311 918 q 226 835 251 897 q 208 685 200 772 q 251 501 215 599 q 328 350 283 417 q 426 245 374 283 q 532 207 478 207 q 578 215 556 207 q 662 298 638 236 q 678 448 686 360 q 635 633 671 536 q 558 784 603 718 q 463 888 514 850 q 357 926 411 926 q 311 918 335 926 m 179 -146 q 213 -220 179 -185 q 301 -285 246 -256 q 420 -336 356 -314 q 549 -370 485 -358 q 664 -382 613 -382 q 782 -362 738 -382 q 826 -296 826 -343 q 790 -229 826 -254 q 696 -187 754 -204 q 571 -156 638 -171 q 442 -118 504 -140 q 403 -103 422 -111 q 368 -86 385 -94 q 281 -64 325 -64 q 208 -85 238 -64 q 179 -146 179 -107 m 151 1028 l 131 1074 l 439 1231 l 747 1074 l 726 1028 l 439 1174 l 151 1028 z "},"Ğ":{"ha":1138,"x_min":56,"x_max":1040,"o":"m 650 -14 q 390 45 501 -14 q 203 207 278 104 q 92 441 129 310 q 56 717 56 572 q 98 992 56 867 q 222 1209 140 1117 q 419 1352 303 1301 q 683 1403 536 1403 q 824 1384 756 1403 q 947 1334 893 1365 q 1026 1263 1001 1303 l 890 1100 q 696 1257 808 1197 q 465 1317 583 1317 q 317 1265 371 1317 q 242 1118 264 1214 q 221 889 221 1022 q 253 644 221 768 q 339 406 285 519 q 462 204 393 293 q 604 64 531 115 q 749 13 678 13 q 806 24 775 13 q 836 56 836 35 l 836 746 l 1040 746 l 1040 104 q 949 39 997 65 q 830 -1 900 13 q 650 -14 760 -14 m 658 1469 q 531 1488 593 1469 q 423 1539 469 1506 q 354 1618 376 1572 l 386 1647 q 496 1546 426 1579 q 658 1513 565 1513 q 822 1546 751 1513 q 931 1647 892 1579 l 963 1618 q 894 1539 940 1572 q 786 1488 847 1506 q 658 1469 725 1469 z "},"ğ":{"ha":881,"x_min":28,"x_max":894,"o":"m 496 -444 q 339 -435 421 -444 q 186 -403 257 -426 q 72 -334 115 -379 q 28 -217 28 -289 q 56 -135 28 -169 q 126 -80 83 -101 q 217 -50 169 -58 q 301 -44 264 -42 q 259 10 275 -21 q 243 79 243 40 q 276 151 243 128 q 347 183 308 174 q 188 259 254 204 q 88 394 122 314 q 53 567 53 474 q 99 762 53 674 q 231 903 144 850 q 439 958 318 957 l 832 958 l 832 938 l 583 938 q 770 797 704 899 q 836 567 836 694 q 790 369 836 458 q 656 227 743 281 q 446 174 569 174 q 425 174 436 174 q 403 175 414 174 q 366 174 389 176 q 325 165 343 172 q 307 142 307 158 q 339 101 307 115 q 423 77 371 86 q 538 58 475 68 q 664 32 601 49 q 778 -12 726 15 q 863 -86 831 -40 q 894 -203 894 -132 q 842 -346 894 -293 q 699 -422 789 -399 q 496 -444 608 -444 m 311 918 q 226 835 251 897 q 208 685 200 772 q 251 501 215 599 q 328 350 283 417 q 426 245 374 283 q 532 207 478 207 q 578 215 556 207 q 662 298 638 236 q 678 448 686 360 q 635 633 671 536 q 558 784 603 718 q 463 888 514 850 q 357 926 411 926 q 311 918 335 926 m 179 -146 q 213 -220 179 -185 q 301 -285 246 -256 q 420 -336 356 -314 q 549 -370 485 -358 q 664 -382 613 -382 q 782 -362 738 -382 q 826 -296 826 -343 q 790 -229 826 -254 q 696 -187 754 -204 q 571 -156 638 -171 q 442 -118 504 -140 q 403 -103 422 -111 q 368 -86 385 -94 q 281 -64 325 -64 q 208 -85 238 -64 q 179 -146 179 -107 m 439 1025 q 312 1043 374 1025 q 203 1094 250 1061 q 135 1174 157 1128 l 167 1203 q 276 1101 207 1135 q 439 1068 346 1068 q 602 1101 532 1068 q 711 1203 672 1135 l 743 1174 q 674 1094 721 1128 q 567 1043 628 1061 q 439 1025 506 1025 z "},"Ġ":{"ha":1138,"x_min":56,"x_max":1040,"o":"m 650 -14 q 390 45 501 -14 q 203 207 278 104 q 92 441 129 310 q 56 717 56 572 q 98 992 56 867 q 222 1209 140 1117 q 419 1352 303 1301 q 683 1403 536 1403 q 824 1384 756 1403 q 947 1334 893 1365 q 1026 1263 1001 1303 l 890 1100 q 696 1257 808 1197 q 465 1317 583 1317 q 317 1265 371 1317 q 242 1118 264 1214 q 221 889 221 1022 q 253 644 221 768 q 339 406 285 519 q 462 204 393 293 q 604 64 531 115 q 749 13 678 13 q 806 24 775 13 q 836 56 836 35 l 836 746 l 1040 746 l 1040 104 q 949 39 997 65 q 830 -1 900 13 q 650 -14 760 -14 m 661 1472 q 614 1492 633 1472 q 594 1540 594 1513 q 614 1587 594 1568 q 661 1606 633 1606 q 708 1587 689 1606 q 728 1540 728 1568 q 708 1492 728 1513 q 661 1472 689 1472 z "},"ġ":{"ha":881,"x_min":28,"x_max":894,"o":"m 28 -217 q 56 -135 28 -169 q 126 -80 83 -101 q 217 -50 169 -58 q 301 -44 264 -42 q 259 10 275 -21 q 243 79 243 40 q 276 151 243 128 q 347 183 308 174 q 188 259 254 204 q 88 394 122 314 q 53 567 53 474 q 99 762 53 674 q 231 903 144 850 q 439 958 318 957 l 832 958 l 832 938 l 583 938 q 770 797 704 899 q 836 567 836 694 q 790 369 836 458 q 656 227 743 281 q 446 174 569 174 q 425 174 436 174 q 403 175 414 174 q 366 174 389 176 q 325 165 343 172 q 307 142 307 158 q 339 101 307 115 q 423 77 371 86 q 538 58 475 68 q 664 32 601 49 q 778 -12 726 15 q 863 -86 831 -40 q 894 -203 894 -132 q 842 -346 894 -293 q 699 -422 789 -399 q 496 -444 608 -444 q 339 -435 421 -444 q 186 -403 257 -426 q 72 -334 115 -379 q 28 -217 28 -289 m 311 918 q 226 835 251 897 q 208 685 200 772 q 251 501 215 599 q 328 350 283 417 q 426 245 374 283 q 532 207 478 207 q 578 215 556 207 q 662 298 638 236 q 678 448 686 360 q 635 633 671 536 q 558 784 603 718 q 463 888 514 850 q 357 926 411 926 q 311 918 335 926 m 179 -146 q 213 -220 179 -185 q 301 -285 246 -256 q 420 -336 356 -314 q 549 -370 485 -358 q 664 -382 613 -382 q 782 -362 738 -382 q 826 -296 826 -343 q 790 -229 826 -254 q 696 -187 754 -204 q 571 -156 638 -171 q 442 -118 504 -140 q 403 -103 422 -111 q 368 -86 385 -94 q 281 -64 325 -64 q 208 -85 238 -64 q 179 -146 179 -107 m 374 1096 q 394 1142 374 1124 q 442 1161 414 1161 q 489 1142 469 1161 q 508 1096 508 1124 q 489 1048 508 1068 q 442 1028 469 1028 q 394 1048 414 1028 q 374 1096 374 1068 z "},"Ģ":{"ha":1138,"x_min":56,"x_max":1040,"o":"m 650 -14 q 390 45 501 -14 q 203 207 278 104 q 92 441 129 310 q 56 717 56 572 q 98 992 56 867 q 222 1209 140 1117 q 419 1352 303 1301 q 683 1403 536 1403 q 824 1384 756 1403 q 947 1334 893 1365 q 1026 1263 1001 1303 l 890 1100 q 696 1257 808 1197 q 465 1317 583 1317 q 317 1265 371 1317 q 242 1118 264 1214 q 221 889 221 1022 q 253 644 221 768 q 339 406 285 519 q 462 204 393 293 q 604 64 531 115 q 749 13 678 13 q 806 24 775 13 q 836 56 836 35 l 836 746 l 1040 746 l 1040 104 q 949 39 997 65 q 830 -1 900 13 q 650 -14 760 -14 m 586 -174 q 606 -126 586 -146 q 654 -107 626 -107 q 704 -131 689 -107 q 719 -186 719 -154 q 703 -247 719 -225 q 666 -278 688 -269 q 628 -290 644 -287 q 613 -292 613 -292 l 613 -285 q 650 -274 636 -285 q 664 -251 664 -262 q 654 -240 664 -240 q 606 -221 626 -240 q 586 -174 586 -201 z "},"ģ":{"ha":881,"x_min":28,"x_max":894,"o":"m 28 -217 q 56 -135 28 -169 q 126 -80 83 -101 q 217 -50 169 -58 q 301 -44 264 -42 q 259 10 275 -21 q 243 79 243 40 q 276 151 243 128 q 347 183 308 174 q 188 259 254 204 q 88 394 122 314 q 53 567 53 474 q 99 762 53 674 q 231 903 144 850 q 439 958 318 957 l 832 958 l 832 938 l 583 938 q 770 797 704 899 q 836 567 836 694 q 790 369 836 458 q 656 227 743 281 q 446 174 569 174 q 425 174 436 174 q 403 175 414 174 q 366 174 389 176 q 325 165 343 172 q 307 142 307 158 q 339 101 307 115 q 423 77 371 86 q 538 58 475 68 q 664 32 601 49 q 778 -12 726 15 q 863 -86 831 -40 q 894 -203 894 -132 q 842 -346 894 -293 q 699 -422 789 -399 q 496 -444 608 -444 q 339 -435 421 -444 q 186 -403 257 -426 q 72 -334 115 -379 q 28 -217 28 -289 m 311 918 q 226 835 251 897 q 208 685 200 772 q 251 501 215 599 q 328 350 283 417 q 426 245 374 283 q 532 207 478 207 q 578 215 556 207 q 662 298 638 236 q 678 448 686 360 q 635 633 671 536 q 558 784 603 718 q 463 888 514 850 q 357 926 411 926 q 311 918 335 926 m 179 -146 q 213 -220 179 -185 q 301 -285 246 -256 q 420 -336 356 -314 q 549 -370 485 -358 q 664 -382 613 -382 q 782 -362 738 -382 q 826 -296 826 -343 q 790 -229 826 -254 q 696 -187 754 -204 q 571 -156 638 -171 q 442 -118 504 -140 q 403 -103 422 -111 q 368 -86 385 -94 q 281 -64 325 -64 q 208 -85 238 -64 q 179 -146 179 -107 m 440 1031 q 390 1055 406 1031 q 374 1110 374 1079 q 390 1172 374 1150 q 427 1202 406 1193 q 465 1213 449 1211 q 481 1215 481 1215 l 481 1208 q 444 1197 458 1208 q 431 1175 431 1186 q 440 1165 431 1165 q 488 1145 468 1165 q 507 1097 507 1125 q 488 1051 507 1071 q 440 1031 468 1031 z "},"Ĥ":{"ha":1178,"x_min":97,"x_max":1081,"o":"m 97 1389 l 299 1389 l 299 694 l 879 694 l 879 1389 l 1081 1389 l 1081 0 l 879 0 l 879 672 l 299 672 l 299 0 l 97 0 l 97 1389 m 281 1504 l 589 1661 l 897 1504 l 876 1458 l 589 1604 l 301 1458 l 281 1504 z "},"ĥ":{"ha":963,"x_min":-115,"x_max":879,"o":"m 0 1303 q 107 1325 51 1310 q 213 1361 163 1340 q 300 1403 264 1382 l 300 660 q 333 756 307 704 q 401 853 358 807 q 505 928 444 899 q 640 958 565 958 q 708 951 668 958 q 788 920 749 944 q 853 842 826 896 q 879 694 879 789 l 879 0 l 678 0 l 678 764 q 647 863 678 831 q 565 896 615 896 q 461 865 510 896 q 376 783 413 835 q 320 664 340 731 q 300 525 300 597 l 300 0 l 99 0 l 99 1211 q 75 1282 99 1268 q 0 1296 51 1296 l 0 1303 m -94 1472 l -115 1518 l 193 1675 l 501 1518 l 481 1472 l 193 1618 l -94 1472 z "},"Ħ":{"ha":1178,"x_min":97,"x_max":1081,"o":"m 97 0 l 97 1389 l 299 1389 l 299 694 l 879 694 l 879 1389 l 1081 1389 l 1081 0 l 879 0 l 879 672 l 299 672 l 299 0 l 97 0 m 888 1457 l 292 1457 l 292 1504 l 888 1504 l 888 1457 z "},"ħ":{"ha":963,"x_min":-106,"x_max":879,"o":"m 0 1296 l 0 1303 q 107 1325 51 1310 q 213 1361 163 1340 q 300 1403 264 1382 l 300 660 q 333 756 307 704 q 401 853 358 807 q 505 928 444 899 q 640 958 565 958 q 708 951 668 958 q 788 920 749 944 q 853 842 826 896 q 879 694 879 789 l 879 0 l 678 0 l 678 764 q 647 863 678 831 q 565 896 615 896 q 461 865 510 896 q 376 783 413 835 q 320 664 340 731 q 300 525 300 597 l 300 0 l 99 0 l 99 1211 q 75 1282 99 1268 q 0 1296 51 1296 m -106 1519 l 490 1519 l 490 1472 l -106 1472 l -106 1519 z "},"Ĩ":{"ha":396,"x_min":-104,"x_max":500,"o":"m 97 0 l 97 1389 l 299 1389 l 299 0 l 97 0 m -72 1450 l -104 1486 q -69 1534 -94 1510 q -10 1576 -44 1558 q 63 1594 25 1593 q 156 1585 113 1597 q 238 1554 199 1572 q 317 1523 278 1536 q 394 1510 356 1510 q 444 1524 422 1510 q 476 1560 467 1539 l 500 1518 q 463 1478 494 1499 q 394 1458 432 1458 q 317 1472 356 1458 q 239 1502 278 1485 q 156 1532 200 1519 q 63 1543 113 1544 q -26 1513 4 1542 q -72 1450 -57 1485 z "},"ĩ":{"ha":383,"x_min":-101,"x_max":501,"o":"m 0 851 l 0 858 q 107 881 51 865 q 213 917 163 896 q 300 958 264 938 l 300 0 l 99 0 l 99 761 q 75 835 99 818 q 0 851 51 851 m -69 1019 l -101 1056 q -67 1103 -92 1079 q -8 1145 -43 1128 q 64 1164 26 1163 q 158 1154 114 1167 q 240 1124 201 1142 q 318 1092 279 1106 q 396 1079 357 1079 q 446 1094 424 1079 q 478 1129 468 1108 l 501 1088 q 465 1048 496 1068 q 396 1028 433 1028 q 318 1041 357 1028 q 240 1072 279 1054 q 158 1101 201 1089 q 64 1113 114 1114 q -24 1083 7 1111 q -69 1019 -54 1054 z "},"Ī":{"ha":396,"x_min":-100,"x_max":496,"o":"m 97 0 l 97 1389 l 299 1389 l 299 0 l 97 0 m -100 1458 l -100 1506 l 496 1506 l 496 1458 l -100 1458 z "},"ī":{"ha":383,"x_min":-99,"x_max":497,"o":"m 99 761 q 75 835 99 818 q 0 851 51 851 l 0 858 q 107 881 51 865 q 213 917 163 896 q 300 958 264 938 l 300 0 l 99 0 l 99 761 m -99 1075 l 497 1075 l 497 1028 l -99 1028 l -99 1075 z "},"Ĭ":{"ha":396,"x_min":-107,"x_max":503,"o":"m 299 0 l 97 0 l 97 1389 l 299 1389 l 299 0 m 199 1456 q 72 1474 133 1456 q -37 1525 10 1492 q -107 1604 -85 1558 l -75 1633 q 35 1532 -35 1565 q 199 1499 106 1499 q 362 1532 292 1499 q 471 1633 432 1565 l 503 1604 q 434 1525 481 1558 q 326 1474 388 1492 q 199 1456 265 1456 z "},"ĭ":{"ha":383,"x_min":-104,"x_max":504,"o":"m 0 851 l 0 858 q 107 881 51 865 q 213 917 163 896 q 300 958 264 938 l 300 0 l 99 0 l 99 761 q 75 835 99 818 q 0 851 51 851 m 200 1025 q 73 1043 135 1025 q -35 1094 11 1061 q -104 1174 -82 1128 l -72 1203 q 38 1101 -32 1135 q 200 1068 107 1068 q 363 1101 293 1068 q 472 1203 433 1135 l 504 1174 q 435 1094 482 1128 q 328 1043 389 1061 q 200 1025 267 1025 z "},"Į":{"ha":396,"x_min":97,"x_max":303,"o":"m 189 0 l 97 0 l 97 1389 l 299 1389 l 299 0 l 221 0 q 171 -54 190 -21 q 151 -140 151 -87 q 170 -217 151 -187 q 224 -246 189 -246 q 258 -232 243 -246 q 272 -199 272 -218 q 269 -176 272 -186 q 257 -154 267 -165 l 290 -150 q 300 -172 297 -160 q 303 -200 303 -185 q 279 -251 303 -228 q 222 -274 256 -274 q 149 -240 176 -274 q 121 -142 121 -206 q 143 -53 121 -89 q 189 0 165 -18 z "},"į":{"ha":388,"x_min":0,"x_max":304,"o":"m 0 858 q 107 881 51 865 q 213 917 163 896 q 300 958 264 938 l 300 0 l 221 0 q 171 -54 190 -21 q 151 -140 151 -87 q 170 -217 151 -187 q 224 -246 189 -246 q 258 -232 243 -246 q 272 -199 272 -218 q 269 -176 272 -186 q 257 -154 267 -165 l 290 -150 q 300 -172 297 -160 q 303 -200 303 -185 q 279 -251 303 -228 q 222 -274 256 -274 q 149 -240 176 -274 q 121 -142 121 -206 q 143 -53 121 -89 q 189 0 165 -18 l 99 0 l 99 761 q 75 835 99 818 q 0 851 51 851 l 0 858 m 189 1008 q 108 1042 142 1008 q 74 1124 74 1076 q 108 1204 74 1171 q 189 1238 142 1238 q 271 1204 238 1238 q 304 1124 304 1171 q 271 1042 304 1076 q 189 1008 238 1008 z "},"İ":{"ha":396,"x_min":97,"x_max":299,"o":"m 97 1389 l 299 1389 l 299 0 l 97 0 l 97 1389 m 133 1526 q 153 1573 133 1554 q 200 1592 174 1592 q 247 1573 228 1592 q 267 1526 267 1554 q 247 1478 267 1499 q 200 1458 228 1458 q 153 1478 174 1458 q 133 1526 133 1499 z "},"Ĵ":{"ha":510,"x_min":15,"x_max":632,"o":"m 28 57 q 90 43 57 43 q 187 85 147 43 q 226 192 226 126 l 226 1389 l 426 1389 l 426 274 q 182 -15 426 -15 q 28 57 54 -15 m 36 1458 l 15 1504 l 324 1661 l 632 1504 l 611 1458 l 324 1604 l 36 1458 z "},"ĵ":{"ha":381,"x_min":-117,"x_max":500,"o":"m -83 -354 l -81 -347 q 1 -329 -40 -354 q 69 -252 42 -304 q 96 -125 96 -200 l 96 767 q 72 838 96 824 q -3 851 49 851 l -3 858 q 104 881 49 865 q 210 917 160 896 q 297 958 261 938 l 297 -18 q 283 -149 297 -85 q 237 -265 269 -214 q 149 -347 204 -317 q 10 -378 93 -378 q -40 -373 -18 -378 q -83 -354 -61 -368 m -117 1074 l 192 1231 l 500 1074 l 479 1028 l 192 1174 l -96 1028 l -117 1074 z "},"Ķ":{"ha":1142,"x_min":97,"x_max":1114,"o":"m 299 0 l 97 0 l 97 1389 l 299 1389 l 299 721 q 401 817 356 774 q 511 918 447 860 q 655 1065 589 990 q 760 1207 721 1140 q 800 1321 800 1274 q 781 1369 800 1358 q 743 1382 763 1381 l 743 1389 l 1088 1389 l 443 826 q 474 834 458 832 q 503 836 489 836 q 565 820 540 836 q 615 770 590 804 q 675 682 640 736 q 794 501 740 583 q 897 342 847 419 q 999 183 946 265 q 1114 0 1051 100 l 875 0 q 760 183 813 100 q 659 343 708 265 q 556 503 610 421 q 436 682 503 585 q 408 719 421 706 q 369 733 396 733 q 333 724 350 733 q 299 700 317 715 l 299 0 m 571 -333 q 523 -314 543 -333 q 503 -267 503 -294 q 523 -219 503 -239 q 571 -200 543 -200 q 621 -224 606 -200 q 636 -279 636 -247 q 620 -340 636 -318 q 583 -372 604 -362 q 545 -383 561 -381 q 529 -385 529 -385 l 529 -378 q 566 -367 553 -378 q 579 -344 579 -356 q 571 -333 579 -333 z "},"ķ":{"ha":897,"x_min":0,"x_max":869,"o":"m 0 1303 q 107 1325 51 1310 q 213 1361 163 1340 q 300 1403 264 1382 l 300 485 q 398 592 346 533 q 495 707 450 650 q 569 810 540 764 q 597 883 597 857 q 583 923 597 908 q 535 938 568 938 l 535 944 l 864 944 l 864 938 q 810 913 849 938 q 718 849 771 889 q 608 762 665 810 q 499 665 551 714 q 406 574 446 615 q 532 610 469 610 q 645 571 594 610 q 729 429 696 532 q 778 283 756 350 q 822 149 800 217 q 869 0 844 82 l 668 0 q 635 108 649 61 q 608 195 621 154 q 581 281 596 236 q 547 386 567 326 q 486 492 521 464 q 406 521 451 521 q 350 504 374 521 q 313 465 326 488 q 300 425 300 443 l 300 0 l 99 0 l 99 1211 q 75 1282 99 1268 q 0 1296 51 1296 l 0 1303 m 443 -333 q 396 -314 415 -333 q 376 -267 376 -294 q 396 -219 376 -239 q 443 -200 415 -200 q 493 -224 478 -200 q 508 -279 508 -247 q 492 -340 508 -318 q 456 -372 476 -362 q 419 -383 435 -381 q 403 -385 403 -385 l 403 -378 q 439 -367 425 -378 q 453 -344 453 -356 q 443 -333 453 -333 z "},"ĸ":{"ha":897,"x_min":0,"x_max":869,"o":"m 0 1296 l 0 1303 q 107 1325 51 1310 q 213 1361 163 1340 q 300 1403 264 1382 l 300 485 q 398 592 346 533 q 495 707 450 650 q 569 810 540 764 q 597 883 597 857 q 583 923 597 908 q 535 938 568 938 l 535 944 l 864 944 l 864 938 q 810 913 849 938 q 718 849 771 889 q 608 762 665 810 q 499 665 551 714 q 406 574 446 615 q 532 610 469 610 q 645 571 594 610 q 729 429 696 532 q 778 283 756 350 q 822 149 800 217 q 869 0 844 82 l 668 0 q 635 108 649 61 q 608 195 621 154 q 581 281 596 236 q 547 386 567 326 q 486 492 521 464 q 406 521 451 521 q 350 504 374 521 q 313 465 326 488 q 300 425 300 443 l 300 0 l 99 0 l 99 1211 q 75 1282 99 1268 q 0 1296 51 1296 z "},"Ĺ":{"ha":985,"x_min":-25,"x_max":931,"o":"m 97 0 l 97 1389 l 299 1389 l 299 21 q 486 40 390 21 q 670 88 582 58 q 827 155 758 118 q 931 228 896 192 l 931 0 l 97 0 m -25 1458 l -25 1465 q 53 1475 6 1463 q 153 1510 100 1488 q 257 1558 207 1532 q 344 1609 307 1585 q 394 1650 381 1633 l 428 1599 q 337 1547 394 1574 q 211 1497 279 1519 q 81 1464 143 1475 q -25 1458 18 1453 z "},"ĺ":{"ha":383,"x_min":-50,"x_max":403,"o":"m 99 1211 q 75 1282 99 1268 q 0 1296 51 1296 l 0 1303 q 107 1325 51 1310 q 213 1361 163 1340 q 300 1403 264 1382 l 300 0 l 99 0 l 99 1211 m 403 1599 q 312 1547 369 1574 q 186 1497 254 1519 q 56 1464 118 1475 q -50 1458 -7 1453 l -50 1465 q 28 1475 -19 1463 q 128 1510 75 1488 q 232 1558 182 1532 q 319 1609 282 1585 q 369 1650 356 1633 l 403 1599 z "},"Ļ":{"ha":985,"x_min":97,"x_max":931,"o":"m 97 0 l 97 1389 l 299 1389 l 299 21 q 486 40 390 21 q 670 88 582 58 q 827 155 758 118 q 931 228 896 192 l 931 0 l 97 0 m 199 -226 q 152 -207 172 -226 q 132 -160 132 -187 q 152 -112 132 -132 q 199 -93 172 -93 q 249 -117 233 -93 q 265 -172 265 -140 q 249 -233 265 -211 q 212 -265 233 -256 q 174 -276 190 -274 q 158 -278 158 -278 l 158 -271 q 195 -260 182 -271 q 208 -237 208 -249 q 199 -226 208 -226 z "},"ļ":{"ha":383,"x_min":0,"x_max":300,"o":"m 99 1211 q 75 1282 99 1268 q 0 1296 51 1296 l 0 1303 q 107 1325 51 1310 q 213 1361 163 1340 q 300 1403 264 1382 l 300 0 l 99 0 l 99 1211 m 201 -226 q 153 -207 174 -226 q 133 -160 133 -187 q 153 -112 133 -132 q 201 -93 174 -93 q 251 -117 236 -93 q 267 -172 267 -140 q 251 -233 267 -211 q 213 -265 235 -256 q 176 -276 192 -274 q 160 -278 160 -278 l 160 -271 q 197 -260 183 -271 q 211 -237 211 -249 q 201 -226 211 -226 z "},"Ľ":{"ha":985,"x_min":97,"x_max":931,"o":"m 97 1389 l 299 1389 l 299 21 q 486 40 390 21 q 670 88 582 58 q 827 155 758 118 q 931 228 896 192 l 931 0 l 97 0 l 97 1389 m 504 1285 q 540 1369 504 1333 q 625 1404 575 1404 q 715 1361 686 1404 q 743 1263 743 1318 q 724 1170 743 1206 q 676 1115 704 1135 q 619 1086 647 1094 q 571 1076 590 1078 q 551 1074 551 1074 l 551 1085 q 617 1104 592 1085 q 642 1144 642 1124 q 625 1164 642 1164 q 540 1199 575 1164 q 504 1285 504 1235 z "},"ľ":{"ha":747,"x_min":0,"x_max":678,"o":"m 0 1303 q 107 1325 51 1310 q 213 1361 163 1340 q 300 1403 264 1382 l 300 0 l 99 0 l 99 1211 q 75 1282 99 1268 q 0 1296 51 1296 l 0 1303 m 560 1163 q 474 1198 510 1163 q 439 1283 439 1233 q 474 1367 439 1332 q 560 1403 510 1403 q 649 1360 621 1403 q 678 1261 678 1317 q 658 1169 678 1204 q 610 1113 639 1133 q 553 1085 582 1093 q 506 1074 525 1076 q 486 1072 486 1072 l 486 1083 q 551 1103 526 1083 q 576 1143 576 1122 q 560 1163 576 1163 z "},"Ŀ":{"ha":985,"x_min":97,"x_max":931,"o":"m 97 0 l 97 1389 l 299 1389 l 299 21 q 486 40 390 21 q 670 88 582 58 q 827 155 758 118 q 931 228 896 192 l 931 0 l 97 0 m 640 958 q 555 994 590 958 q 519 1079 519 1029 q 555 1163 519 1128 q 640 1199 590 1199 q 724 1163 689 1199 q 760 1079 760 1128 q 724 994 760 1029 q 640 958 689 958 z "},"ŀ":{"ha":693,"x_min":0,"x_max":693,"o":"m 0 1303 q 107 1325 51 1310 q 213 1361 163 1340 q 300 1403 264 1382 l 300 0 l 99 0 l 99 1211 q 75 1282 99 1268 q 0 1296 51 1296 l 0 1303 m 574 575 q 488 610 524 575 q 453 696 453 646 q 488 780 453 744 q 574 815 524 815 q 658 780 622 815 q 693 696 693 744 q 658 610 693 646 q 574 575 622 575 z "},"Ń":{"ha":1174,"x_min":97,"x_max":1076,"o":"m 97 1389 q 127 1399 108 1396 q 160 1403 146 1403 q 267 1376 222 1403 q 351 1293 313 1349 q 431 1153 389 1238 q 528 953 474 1068 q 661 694 583 839 q 836 394 765 501 q 951 238 907 286 q 1010 188 989 197 q 1042 182 1032 178 q 1051 186 1051 186 q 1022 659 1051 446 q 935 1051 993 872 q 788 1389 876 1231 l 1076 1389 l 1076 0 q 1047 -10 1065 -6 q 1014 -14 1029 -14 q 884 35 950 -14 q 751 168 818 83 q 617 362 683 253 q 488 593 551 471 q 326 908 388 783 q 235 1090 265 1032 q 184 1173 206 1146 q 149 1208 163 1200 q 129 1215 136 1217 q 122 1214 122 1214 q 151 733 122 949 q 240 338 181 518 q 386 0 299 158 l 97 0 l 97 1389 m 796 1599 q 705 1547 763 1574 q 579 1497 647 1519 q 449 1464 511 1475 q 343 1458 386 1453 l 343 1465 q 421 1475 374 1463 q 522 1510 468 1488 q 625 1558 575 1532 q 712 1609 675 1585 q 763 1650 749 1633 l 796 1599 z "},"ń":{"ha":963,"x_min":0,"x_max":879,"o":"m 99 761 q 75 835 99 818 q 0 851 51 851 l 0 858 q 107 881 51 865 q 213 917 163 896 q 300 958 264 938 l 300 660 q 333 756 307 704 q 401 853 358 807 q 505 928 444 899 q 640 958 565 958 q 708 951 668 958 q 788 920 749 944 q 853 842 826 896 q 879 694 879 789 l 879 0 l 678 0 l 678 764 q 647 863 678 831 q 565 896 615 896 q 461 865 510 896 q 376 783 413 835 q 320 664 340 731 q 300 525 300 597 l 300 0 l 99 0 l 99 761 m 711 1168 q 620 1116 678 1143 q 494 1067 563 1089 q 364 1033 426 1044 q 258 1028 301 1022 l 258 1035 q 336 1044 289 1032 q 437 1079 383 1057 q 540 1128 490 1101 q 627 1178 590 1154 q 678 1219 664 1203 l 711 1168 z "},"Ņ":{"ha":1174,"x_min":97,"x_max":1076,"o":"m 97 0 l 97 1389 q 127 1399 108 1396 q 160 1403 146 1403 q 267 1376 222 1403 q 351 1293 313 1349 q 431 1153 389 1238 q 528 953 474 1068 q 661 694 583 839 q 836 394 765 501 q 951 238 907 286 q 1010 188 989 197 q 1042 182 1032 178 q 1051 186 1051 186 q 1022 659 1051 446 q 935 1051 993 872 q 788 1389 876 1231 l 1076 1389 l 1076 0 q 1047 -10 1065 -6 q 1014 -14 1029 -14 q 884 35 950 -14 q 751 168 818 83 q 617 362 683 253 q 488 593 551 471 q 326 908 388 783 q 235 1090 265 1032 q 184 1173 206 1146 q 149 1208 163 1200 q 129 1215 136 1217 q 122 1214 122 1214 q 151 733 122 949 q 240 338 181 518 q 386 0 299 158 l 97 0 m 158 -160 q 178 -112 158 -132 q 225 -93 197 -93 q 275 -117 260 -93 q 290 -172 290 -140 q 274 -233 290 -211 q 237 -265 258 -256 q 199 -276 215 -274 q 183 -278 183 -278 l 183 -271 q 221 -260 207 -271 q 235 -237 235 -249 q 225 -226 235 -226 q 178 -207 197 -226 q 158 -160 158 -187 z "},"ņ":{"ha":963,"x_min":0,"x_max":879,"o":"m 0 851 l 0 858 q 107 881 51 865 q 213 917 163 896 q 300 958 264 938 l 300 660 q 333 756 307 704 q 401 853 358 807 q 505 928 444 899 q 640 958 565 958 q 708 951 668 958 q 788 920 749 944 q 853 842 826 896 q 879 694 879 789 l 879 0 l 678 0 l 678 764 q 647 863 678 831 q 565 896 615 896 q 461 865 510 896 q 376 783 413 835 q 320 664 340 731 q 300 525 300 597 l 300 0 l 99 0 l 99 761 q 75 835 99 818 q 0 851 51 851 m 503 -226 q 456 -207 476 -226 q 436 -160 436 -187 q 456 -112 436 -132 q 503 -93 476 -93 q 553 -117 538 -93 q 569 -172 569 -140 q 553 -233 569 -211 q 516 -265 538 -256 q 478 -276 494 -274 q 463 -278 463 -278 l 463 -271 q 499 -260 486 -271 q 513 -237 513 -249 q 503 -226 513 -226 z "},"Ň":{"ha":1174,"x_min":97,"x_max":1076,"o":"m 97 0 l 97 1389 q 127 1399 108 1396 q 160 1403 146 1403 q 267 1376 222 1403 q 351 1293 313 1349 q 431 1153 389 1238 q 528 953 474 1068 q 661 694 583 839 q 836 394 765 501 q 951 238 907 286 q 1010 188 989 197 q 1042 182 1032 178 q 1051 186 1051 186 q 1022 659 1051 446 q 935 1051 993 872 q 788 1389 876 1231 l 1076 1389 l 1076 0 q 1047 -10 1065 -6 q 1014 -14 1029 -14 q 884 35 950 -14 q 751 168 818 83 q 617 362 683 253 q 488 593 551 471 q 326 908 388 783 q 235 1090 265 1032 q 184 1173 206 1146 q 149 1208 163 1200 q 129 1215 136 1217 q 122 1214 122 1214 q 151 733 122 949 q 240 338 181 518 q 386 0 299 158 l 97 0 m 261 1615 l 282 1661 l 569 1515 l 857 1661 l 878 1615 l 569 1458 l 261 1615 z "},"ň":{"ha":963,"x_min":0,"x_max":879,"o":"m 99 761 q 75 835 99 818 q 0 851 51 851 l 0 858 q 107 881 51 865 q 213 917 163 896 q 300 958 264 938 l 300 660 q 333 756 307 704 q 401 853 358 807 q 505 928 444 899 q 640 958 565 958 q 708 951 668 958 q 788 920 749 944 q 853 842 826 896 q 879 694 879 789 l 879 0 l 678 0 l 678 764 q 647 863 678 831 q 565 896 615 896 q 461 865 510 896 q 376 783 413 835 q 320 664 340 731 q 300 525 300 597 l 300 0 l 99 0 l 99 761 m 176 1185 l 197 1231 l 485 1085 l 772 1231 l 793 1185 l 485 1028 l 176 1185 z "},"ŉ":{"ha":1318,"x_min":69,"x_max":1235,"o":"m 356 851 l 356 858 q 463 881 407 865 q 569 917 518 896 q 656 958 619 938 l 656 660 q 688 756 663 704 q 757 853 714 807 q 860 928 800 899 q 996 958 921 958 q 1064 951 1024 958 q 1143 920 1104 944 q 1208 842 1182 896 q 1235 694 1235 789 l 1235 0 l 1033 0 l 1033 764 q 1002 863 1033 831 q 921 896 971 896 q 817 865 865 896 q 732 783 768 835 q 676 664 696 731 q 656 525 656 597 l 656 0 l 454 0 l 454 761 q 431 835 454 818 q 356 851 407 851 m 69 839 q 105 923 69 888 q 190 958 140 958 q 280 915 251 958 q 308 817 308 872 q 289 724 308 760 q 241 669 269 689 q 184 640 213 649 q 136 630 156 632 q 117 628 117 628 l 117 639 q 182 658 157 639 q 207 699 207 678 q 190 718 207 718 q 105 753 140 718 q 69 839 69 789 z "},"Ŋ":{"ha":1136,"x_min":69,"x_max":1067,"o":"m 69 1389 q 99 1399 81 1396 q 132 1403 118 1403 q 251 1367 203 1403 q 343 1261 300 1332 q 438 1081 386 1190 q 565 824 490 972 q 656 652 610 738 q 754 497 703 567 q 867 385 806 426 l 867 1389 l 1067 1389 l 1067 274 q 1026 113 1067 176 q 917 17 985 49 q 768 -15 849 -15 q 678 -7 726 -15 q 594 18 631 1 q 549 57 557 35 q 584 47 564 50 q 626 43 604 43 q 729 60 676 43 q 820 107 782 76 q 865 176 858 138 q 642 322 740 210 q 460 593 543 433 q 299 908 360 783 q 207 1090 238 1032 q 156 1173 178 1146 q 122 1208 135 1200 q 101 1215 108 1217 q 94 1214 94 1214 q 124 733 94 949 q 212 338 153 518 q 358 0 271 158 l 69 0 l 69 1389 z "},"ŋ":{"ha":1018,"x_min":69,"x_max":949,"o":"m 69 858 q 176 881 121 865 q 283 917 232 896 q 369 958 333 938 l 369 660 q 402 756 376 704 q 471 853 428 807 q 574 928 514 899 q 710 958 635 958 q 778 951 738 958 q 857 920 818 944 q 922 842 896 896 q 949 694 949 789 l 949 -18 q 935 -149 949 -85 q 888 -265 921 -214 q 800 -347 856 -317 q 661 -378 744 -378 q 612 -373 633 -378 q 568 -354 590 -368 l 571 -347 q 652 -329 611 -354 q 720 -252 693 -304 q 747 -125 747 -200 l 747 764 q 716 863 747 831 q 635 896 685 896 q 531 865 579 896 q 446 783 482 835 q 390 664 410 731 q 369 525 369 597 l 369 0 l 168 0 l 168 761 q 144 835 168 818 q 69 851 121 851 l 69 858 z "},"Ō":{"ha":1208,"x_min":56,"x_max":1153,"o":"m 56 694 q 124 1066 56 907 q 315 1314 192 1225 q 604 1403 439 1403 q 828 1352 728 1403 q 1002 1208 929 1301 q 1114 984 1075 1114 q 1153 694 1153 854 q 1114 405 1153 535 q 1002 181 1075 275 q 828 37 929 88 q 604 -14 728 -14 q 315 75 439 -14 q 124 323 192 164 q 56 694 56 482 m 603 1383 q 429 1297 504 1383 q 313 1057 354 1211 q 272 696 272 903 q 313 334 272 489 q 429 93 354 179 q 603 7 504 7 q 778 93 703 7 q 894 334 853 179 q 936 696 936 489 q 894 1057 936 903 q 778 1297 853 1211 q 603 1383 703 1383 m 903 1472 l 307 1472 l 307 1519 l 903 1519 l 903 1472 z "},"ō":{"ha":924,"x_min":69,"x_max":854,"o":"m 69 472 q 121 745 69 638 q 260 906 172 853 q 461 958 349 958 q 658 906 569 958 q 801 745 747 853 q 854 472 854 638 q 801 199 854 307 q 660 39 749 92 q 461 -14 571 -14 q 264 39 353 -14 q 122 199 175 92 q 69 472 69 307 m 356 924 q 269 838 300 910 q 234 656 238 765 q 260 422 231 547 q 341 203 289 299 q 453 58 393 107 q 569 22 514 8 q 658 108 626 36 q 692 290 689 181 q 667 522 696 399 q 610 693 644 615 q 532 826 575 771 q 443 908 489 882 q 356 924 397 935 m 760 1028 l 164 1028 l 164 1075 l 760 1075 l 760 1028 z "},"Ŏ":{"ha":1208,"x_min":56,"x_max":1153,"o":"m 604 -14 q 315 75 439 -14 q 124 323 192 164 q 56 694 56 482 q 124 1066 56 907 q 315 1314 192 1225 q 604 1403 439 1403 q 828 1352 728 1403 q 1002 1208 929 1301 q 1114 984 1075 1114 q 1153 694 1153 854 q 1114 405 1153 535 q 1002 181 1075 275 q 828 37 929 88 q 604 -14 728 -14 m 603 1383 q 429 1297 504 1383 q 313 1057 354 1211 q 272 696 272 903 q 313 334 272 489 q 429 93 354 179 q 603 7 504 7 q 778 93 703 7 q 894 334 853 179 q 936 696 936 489 q 894 1057 936 903 q 778 1297 853 1211 q 603 1383 703 1383 m 604 1469 q 477 1488 539 1469 q 369 1539 415 1506 q 300 1618 322 1572 l 332 1647 q 442 1546 372 1579 q 604 1513 511 1513 q 767 1546 697 1513 q 876 1647 838 1579 l 908 1618 q 840 1539 886 1572 q 732 1488 793 1506 q 604 1469 671 1469 z "},"ŏ":{"ha":924,"x_min":69,"x_max":854,"o":"m 461 -14 q 264 39 353 -14 q 122 199 175 92 q 69 472 69 307 q 121 745 69 638 q 260 906 172 853 q 461 958 349 958 q 658 906 569 958 q 801 745 747 853 q 854 472 854 638 q 801 199 854 307 q 660 39 749 92 q 461 -14 571 -14 m 356 924 q 269 838 300 910 q 234 656 238 765 q 260 422 231 547 q 341 203 289 299 q 453 58 393 107 q 569 22 514 8 q 658 108 626 36 q 692 290 689 181 q 667 522 696 399 q 610 693 644 615 q 532 826 575 771 q 443 908 489 882 q 356 924 397 935 m 461 1025 q 334 1043 396 1025 q 226 1094 272 1061 q 157 1174 179 1128 l 189 1203 q 299 1101 229 1135 q 461 1068 368 1068 q 624 1101 554 1068 q 733 1203 694 1135 l 765 1174 q 697 1094 743 1128 q 589 1043 650 1061 q 461 1025 528 1025 z "},"Ő":{"ha":1208,"x_min":56,"x_max":1153,"o":"m 604 -14 q 315 75 439 -14 q 124 323 192 164 q 56 694 56 482 q 124 1066 56 907 q 315 1314 192 1225 q 604 1403 439 1403 q 828 1352 728 1403 q 1002 1208 929 1301 q 1114 984 1075 1114 q 1153 694 1153 854 q 1114 405 1153 535 q 1002 181 1075 275 q 828 37 929 88 q 604 -14 728 -14 m 272 696 q 313 334 272 489 q 429 93 354 179 q 603 7 504 7 q 778 93 703 7 q 894 334 853 179 q 936 696 936 489 q 894 1057 936 903 q 778 1297 853 1211 q 603 1383 703 1383 q 429 1297 504 1383 q 313 1057 354 1211 q 272 696 272 903 m 600 1478 l 601 1485 q 703 1517 653 1476 q 783 1626 754 1557 l 833 1599 q 778 1528 815 1561 q 694 1481 742 1496 q 600 1478 647 1465 m 376 1478 l 378 1485 q 480 1517 429 1476 q 560 1626 531 1557 l 610 1599 q 555 1528 592 1561 q 471 1481 518 1496 q 376 1478 424 1465 z "},"ő":{"ha":924,"x_min":69,"x_max":854,"o":"m 69 472 q 121 745 69 638 q 260 906 172 853 q 461 958 349 958 q 658 906 569 958 q 801 745 747 853 q 854 472 854 638 q 801 199 854 307 q 660 39 749 92 q 461 -14 571 -14 q 264 39 353 -14 q 122 199 175 92 q 69 472 69 307 m 356 924 q 269 838 300 910 q 234 656 238 765 q 260 422 231 547 q 341 203 289 299 q 453 58 393 107 q 569 22 514 8 q 658 108 626 36 q 692 290 689 181 q 667 522 696 399 q 610 693 644 615 q 532 826 575 771 q 443 908 489 882 q 356 924 397 935 m 690 1154 q 635 1084 672 1117 q 551 1036 599 1051 q 457 1033 504 1021 l 458 1040 q 560 1072 510 1032 q 640 1182 611 1113 l 690 1154 m 233 1033 l 235 1040 q 337 1072 286 1032 q 417 1182 388 1113 l 467 1154 q 412 1084 449 1117 q 328 1036 375 1051 q 233 1033 281 1021 z "},"Ŕ":{"ha":1088,"x_min":97,"x_max":1088,"o":"m 97 1389 l 801 1389 q 927 1353 878 1389 q 1001 1262 976 1317 q 1026 1150 1026 1207 q 993 1008 1026 1067 q 908 908 960 949 q 797 840 856 867 q 685 792 738 813 q 600 755 633 772 q 567 717 567 738 q 590 648 567 696 q 652 535 613 600 q 740 398 692 469 q 841 257 789 326 q 941 131 893 188 q 1028 42 989 75 q 1088 8 1067 8 l 1088 0 l 858 0 q 797 7 818 0 q 756 36 775 14 q 700 106 736 58 q 625 209 665 151 q 546 328 585 267 q 475 446 507 389 q 424 549 443 503 q 406 622 406 596 q 436 682 406 656 q 514 735 467 708 q 615 794 561 761 q 717 872 669 826 q 794 982 764 917 q 825 1138 825 1047 q 802 1255 825 1203 q 728 1338 779 1307 q 596 1368 678 1368 l 299 1368 l 299 0 l 97 0 l 97 1389 m 764 1599 q 673 1547 731 1574 q 547 1497 615 1519 q 417 1464 479 1475 q 311 1458 354 1453 l 311 1465 q 389 1475 342 1463 q 490 1510 436 1488 q 593 1558 543 1532 q 680 1609 643 1585 q 731 1650 717 1633 l 764 1599 z "},"ŕ":{"ha":771,"x_min":0,"x_max":743,"o":"m 0 858 q 107 881 51 865 q 213 917 163 896 q 300 958 264 938 l 300 660 q 334 760 311 708 q 394 858 357 813 q 482 931 431 903 q 601 958 533 958 q 743 924 686 958 l 669 742 q 594 773 633 760 q 508 786 556 786 q 407 758 454 786 q 330 676 360 729 q 300 547 300 622 l 300 0 l 99 0 l 99 761 q 75 835 99 818 q 0 851 51 851 l 0 858 m 178 1035 q 256 1044 208 1032 q 356 1079 303 1057 q 460 1128 410 1101 q 547 1178 510 1154 q 597 1219 583 1203 l 631 1168 q 540 1116 597 1143 q 414 1067 482 1089 q 283 1033 346 1044 q 178 1028 221 1022 l 178 1035 z "},"Ŗ":{"ha":1088,"x_min":97,"x_max":1088,"o":"m 97 1389 l 801 1389 q 927 1353 878 1389 q 1001 1262 976 1317 q 1026 1150 1026 1207 q 993 1008 1026 1067 q 908 908 960 949 q 797 840 856 867 q 685 792 738 813 q 600 755 633 772 q 567 717 567 738 q 590 648 567 696 q 652 535 613 600 q 740 398 692 469 q 841 257 789 326 q 941 131 893 188 q 1028 42 989 75 q 1088 8 1067 8 l 1088 0 l 858 0 q 797 7 818 0 q 756 36 775 14 q 700 106 736 58 q 625 209 665 151 q 546 328 585 267 q 475 446 507 389 q 424 549 443 503 q 406 622 406 596 q 436 682 406 656 q 514 735 467 708 q 615 794 561 761 q 717 872 669 826 q 794 982 764 917 q 825 1138 825 1047 q 802 1255 825 1203 q 728 1338 779 1307 q 596 1368 678 1368 l 299 1368 l 299 0 l 97 0 l 97 1389 m 139 -160 q 158 -112 139 -132 q 206 -93 178 -93 q 256 -117 240 -93 q 272 -172 272 -140 q 256 -233 272 -211 q 219 -265 240 -256 q 181 -276 197 -274 q 165 -278 165 -278 l 165 -271 q 201 -260 188 -271 q 215 -237 215 -249 q 206 -226 215 -226 q 158 -207 178 -226 q 139 -160 139 -187 z "},"ŗ":{"ha":771,"x_min":0,"x_max":743,"o":"m 99 761 q 75 835 99 818 q 0 851 51 851 l 0 858 q 107 881 51 865 q 213 917 163 896 q 300 958 264 938 l 300 660 q 334 760 311 708 q 394 858 357 813 q 482 931 431 903 q 601 958 533 958 q 743 924 686 958 l 669 742 q 594 773 633 760 q 508 786 556 786 q 407 758 454 786 q 330 676 360 729 q 300 547 300 622 l 300 0 l 99 0 l 99 761 m 139 -160 q 159 -112 139 -132 q 207 -93 179 -93 q 257 -117 242 -93 q 272 -172 272 -140 q 256 -233 272 -211 q 219 -265 240 -256 q 181 -276 197 -274 q 165 -278 165 -278 l 165 -271 q 203 -260 189 -271 q 217 -237 217 -249 q 207 -226 217 -226 q 159 -207 179 -226 q 139 -160 139 -187 z "},"Ř":{"ha":1088,"x_min":97,"x_max":1088,"o":"m 97 1389 l 801 1389 q 927 1353 878 1389 q 1001 1262 976 1317 q 1026 1150 1026 1207 q 993 1008 1026 1067 q 908 908 960 949 q 797 840 856 867 q 685 792 738 813 q 600 755 633 772 q 567 717 567 738 q 590 648 567 696 q 652 535 613 600 q 740 398 692 469 q 841 257 789 326 q 941 131 893 188 q 1028 42 989 75 q 1088 8 1067 8 l 1088 0 l 858 0 q 797 7 818 0 q 756 36 775 14 q 700 106 736 58 q 625 209 665 151 q 546 328 585 267 q 475 446 507 389 q 424 549 443 503 q 406 622 406 596 q 436 682 406 656 q 514 735 467 708 q 615 794 561 761 q 717 872 669 826 q 794 982 764 917 q 825 1138 825 1047 q 802 1255 825 1203 q 728 1338 779 1307 q 596 1368 678 1368 l 299 1368 l 299 0 l 97 0 l 97 1389 m 229 1615 l 250 1661 l 538 1515 l 825 1661 l 846 1615 l 538 1458 l 229 1615 z "},"ř":{"ha":771,"x_min":0,"x_max":743,"o":"m 99 761 q 75 835 99 818 q 0 851 51 851 l 0 858 q 107 881 51 865 q 213 917 163 896 q 300 958 264 938 l 300 660 q 334 760 311 708 q 394 858 357 813 q 482 931 431 903 q 601 958 533 958 q 743 924 686 958 l 669 742 q 594 773 633 760 q 508 786 556 786 q 407 758 454 786 q 330 676 360 729 q 300 547 300 622 l 300 0 l 99 0 l 99 761 m 96 1185 l 117 1231 l 404 1085 l 692 1231 l 713 1185 l 404 1028 l 96 1185 z "},"Ś":{"ha":1049,"x_min":28,"x_max":1021,"o":"m 28 146 l 111 339 q 257 256 186 293 q 408 199 328 219 q 586 178 488 178 q 686 183 632 178 q 795 200 740 188 q 895 236 850 213 q 967 296 940 260 q 994 385 994 332 q 965 467 994 435 q 887 519 936 499 q 776 551 838 539 q 650 573 715 564 q 524 592 585 582 q 247 676 349 622 q 101 813 144 731 q 57 1010 57 896 q 83 1142 57 1074 q 170 1270 110 1211 q 332 1366 231 1329 q 583 1403 433 1403 q 735 1394 656 1403 q 885 1365 815 1385 q 999 1310 956 1344 l 942 1099 q 831 1151 901 1128 q 674 1190 761 1175 q 499 1204 588 1204 q 348 1192 422 1204 q 213 1156 274 1181 q 117 1090 153 1131 q 81 993 81 1050 q 108 917 81 946 q 180 872 135 888 q 280 851 225 857 q 390 842 335 844 q 493 838 446 840 q 769 778 650 826 q 954 642 888 731 q 1021 424 1021 554 q 976 241 1021 322 q 856 103 932 160 q 684 16 781 46 q 483 -14 588 -14 q 300 9 389 -14 q 140 69 211 32 q 28 146 68 106 m 357 1479 q 435 1489 388 1476 q 535 1524 482 1501 q 639 1572 589 1546 q 726 1623 689 1599 q 776 1664 763 1647 l 810 1613 q 719 1560 776 1588 q 593 1511 661 1533 q 463 1478 525 1489 q 357 1472 400 1467 l 357 1479 z "},"ś":{"ha":806,"x_min":28,"x_max":778,"o":"m 28 135 l 133 383 q 247 219 178 294 q 407 97 317 143 q 601 50 497 50 q 666 73 639 50 q 693 136 693 96 q 658 224 693 188 q 567 290 624 261 q 442 345 510 318 q 306 402 374 372 q 181 471 238 432 q 89 565 124 510 q 54 694 54 619 q 104 842 54 783 q 240 929 154 900 q 429 958 325 958 q 572 941 507 958 q 683 901 636 924 q 754 861 731 878 l 649 651 q 540 760 603 704 q 401 854 478 815 q 233 893 324 893 q 160 865 183 893 q 136 801 136 836 q 171 709 136 747 q 263 642 206 671 q 388 587 319 613 q 526 533 457 561 q 651 465 594 504 q 743 372 708 426 q 778 242 778 318 q 731 99 778 156 q 601 14 683 42 q 414 -14 518 -14 q 194 24 289 -14 q 28 135 99 61 m 203 1035 q 281 1044 233 1032 q 381 1079 328 1057 q 485 1128 435 1101 q 572 1178 535 1154 q 622 1219 608 1203 l 656 1168 q 565 1116 622 1143 q 439 1067 507 1089 q 308 1033 371 1044 q 203 1028 246 1022 l 203 1035 z "},"Ŝ":{"ha":1049,"x_min":28,"x_max":1021,"o":"m 483 -14 q 300 9 389 -14 q 140 69 211 32 q 28 146 68 106 l 111 339 q 257 256 186 293 q 408 199 328 219 q 586 178 488 178 q 686 183 632 178 q 795 200 740 188 q 895 236 850 213 q 967 296 940 260 q 994 385 994 332 q 965 467 994 435 q 887 519 936 499 q 776 551 838 539 q 650 573 715 564 q 524 592 585 582 q 247 676 349 622 q 101 813 144 731 q 57 1010 57 896 q 83 1142 57 1074 q 170 1270 110 1211 q 332 1366 231 1329 q 583 1403 433 1403 q 735 1394 656 1403 q 885 1365 815 1385 q 999 1310 956 1344 l 942 1099 q 831 1151 901 1128 q 674 1190 761 1175 q 499 1204 588 1204 q 348 1192 422 1204 q 213 1156 274 1181 q 117 1090 153 1131 q 81 993 81 1050 q 108 917 81 946 q 180 872 135 888 q 280 851 225 857 q 390 842 335 844 q 493 838 446 840 q 769 778 650 826 q 954 642 888 731 q 1021 424 1021 554 q 976 241 1021 322 q 856 103 932 160 q 684 16 781 46 q 483 -14 588 -14 m 275 1518 l 583 1675 l 892 1518 l 871 1472 l 583 1618 l 296 1472 l 275 1518 z "},"ŝ":{"ha":806,"x_min":28,"x_max":778,"o":"m 414 -14 q 194 24 289 -14 q 28 135 99 61 l 133 383 q 247 219 178 294 q 407 97 317 143 q 601 50 497 50 q 666 73 639 50 q 693 136 693 96 q 658 224 693 188 q 567 290 624 261 q 442 345 510 318 q 306 402 374 372 q 181 471 238 432 q 89 565 124 510 q 54 694 54 619 q 104 842 54 783 q 240 929 154 900 q 429 958 325 958 q 572 941 507 958 q 683 901 636 924 q 754 861 731 878 l 649 651 q 540 760 603 704 q 401 854 478 815 q 233 893 324 893 q 160 865 183 893 q 136 801 136 836 q 171 709 136 747 q 263 642 206 671 q 388 587 319 613 q 526 533 457 561 q 651 465 594 504 q 743 372 708 426 q 778 242 778 318 q 731 99 778 156 q 601 14 683 42 q 414 -14 518 -14 m 121 1074 l 429 1231 l 738 1074 l 717 1028 l 429 1174 l 142 1028 l 121 1074 z "},"Ş":{"ha":1049,"x_min":28,"x_max":1021,"o":"m 468 -14 q 290 12 376 -11 q 135 71 204 35 q 28 146 67 107 l 111 339 q 257 256 186 293 q 408 199 328 219 q 586 178 488 178 q 686 183 632 178 q 795 200 740 188 q 895 236 850 213 q 967 296 940 260 q 994 385 994 332 q 965 467 994 435 q 887 519 936 499 q 776 551 838 539 q 650 573 715 564 q 524 592 585 582 q 247 676 349 622 q 101 813 144 731 q 57 1010 57 896 q 83 1142 57 1074 q 170 1270 110 1211 q 332 1366 231 1329 q 583 1403 433 1403 q 735 1394 656 1403 q 885 1365 815 1385 q 999 1310 956 1344 l 942 1099 q 831 1151 901 1128 q 674 1190 761 1175 q 499 1204 588 1204 q 348 1192 422 1204 q 213 1156 274 1181 q 117 1090 153 1131 q 81 993 81 1050 q 108 917 81 946 q 180 872 135 888 q 280 851 225 857 q 390 842 335 844 q 493 838 446 840 q 769 778 650 826 q 954 642 888 731 q 1021 424 1021 554 q 978 244 1021 324 q 863 107 936 164 q 695 19 789 50 q 499 -14 601 -11 l 469 -83 q 518 -69 488 -69 q 557 -77 536 -69 q 593 -103 578 -85 q 608 -156 608 -122 q 586 -224 608 -193 q 531 -272 564 -254 q 464 -289 497 -289 q 414 -272 431 -289 l 424 -246 q 464 -261 438 -261 q 543 -230 508 -261 q 578 -156 578 -199 q 563 -115 578 -132 q 513 -97 549 -97 q 474 -106 490 -97 q 449 -125 457 -115 l 429 -101 l 468 -14 z "}}}
